<svg width="431" height="31" fill="none" xmlns="http://www.w3.org/2000/svg"><path d="M22.952 21.136a.771.771 0 00-.576-.224c-.224 0-.448.064-.608.224a24.127 24.127 0 01-10.976 5.952.396.396 0 01-.448-.128c-.096-.16-.128-.32-.032-.48.576-1.12.448-2.464-.288-3.488a5.476 5.476 0 00-1.696-1.504c-.896-.608-1.888-1.312-1.92-2.048.032-.416.192-.8.48-1.12l1.728-1.632c.32-.32.352-.832.064-1.152-.288-.352-.768-.416-1.152-.128-.672.512-1.312 1.088-1.856 1.76L.744 21.776a.832.832 0 00-.256.8.84.84 0 00.576.64c.288.064.608 0 .832-.224l2.432-2.272c.128-.128.288-.16.448-.16.16.032.288.128.352.256a7.586 7.586 0 002.24 2.048c.48.288.896.608 1.248 1.024.32.352.48.832.384 1.312a1.62 1.62 0 01-.8 1.12 4.683 4.683 0 01-6.048-1.28.81.81 0 00-1.12-.224c-.384.224-.512.704-.288 1.12A6.39 6.39 0 005.8 29.104a8.992 8.992 0 001.6.128c5.408 0 12.064-3.392 15.552-6.912a.85.85 0 000-1.184zm21.032-.224a.771.771 0 00-.576-.224c-.224 0-.448.064-.608.224-3.84 3.84-9.28 5.6-14.624 4.704-.416-.096-.704-.48-.64-.896.256-1.536.128-3.104-.768-3.616-.576-.32-1.44-.352-2.464 1.376-.384.576-.512 1.28-.384 1.952.16.672.576 1.28 1.152 1.632.352.288-.064.768-.288.992-.608.736-1.664.864-2.4.288a1.852 1.852 0 01-.992-2.368c.416-1.696 2.08-3.168 2.688-3.168a.847.847 0 00.832-.832c.032-.448-.352-.832-.8-.864h-.032c-1.6 0-3.744 2.176-4.32 4.448a3.511 3.511 0 001.824 4.256c.608.352 1.28.512 1.984.544a3.656 3.656 0 003.168-2.176.355.355 0 01.352-.128c4.064 1.216 11.488.448 16.896-4.928a.874.874 0 00.256-.608.874.874 0 00-.256-.608zM25.872 24.56a.895.895 0 01-.128-1.216c.096-.16.16-.256.224-.352.032.512 0 1.056-.096 1.568zm52.013-2.688a.856.856 0 00-1.184.128c-.064.096-7.2 8.8-13.76 4.992-.864-.608-1.536-1.44-1.888-2.4-.608-1.216-1.344-2.688-3.392-2.368-1.056.16-2.688 1.504-4.064 3.04-.064.096-.192.128-.288.096-.096-.032-.192-.096-.192-.224a4.34 4.34 0 00-2.56-3.232c-1.088-.288-2.848-.608-6.528 3.04-.192.16-.448.096-.416-.16 0-.128.64-2.72.64-2.72.096-.448-.192-.896-.64-1.024-.448-.096-.896.192-1.024.64l-1.536 6.752c-.096.384.096.768.448.96.384.16.8.064 1.024-.256 4.288-5.376 6.4-5.888 7.264-5.76.864.16 2.016 1.888 1.888 4.672 0 .384.224.736.608.832a.807.807 0 00.96-.352c1.312-2.24 3.872-4.512 4.672-4.64.768-.128.992.16 1.632 1.44a6.34 6.34 0 002.528 3.104 8.719 8.719 0 004.448 1.248c6.112 0 11.232-6.272 11.488-6.624a.856.856 0 00-.128-1.184zm21.912-.96a.771.771 0 00-.576-.224c-.224 0-.448.064-.608.224-3.84 3.84-9.28 5.6-14.624 4.704-.416-.096-.704-.48-.64-.896.256-1.536.128-3.104-.768-3.616-.576-.32-1.44-.352-2.464 1.376-.384.576-.512 1.28-.384 1.952.16.672.576 1.28 1.152 1.632.352.288-.064.768-.288.992-.608.736-1.664.864-2.4.288a1.852 1.852 0 01-.992-2.368c.416-1.696 2.08-3.168 2.688-3.168a.847.847 0 00.832-.832c.032-.448-.352-.832-.8-.864h-.032c-1.6 0-3.744 2.176-4.32 4.448a3.511 3.511 0 001.824 4.256c.608.352 1.28.512 1.984.544a3.656 3.656 0 003.168-2.176.355.355 0 01.352-.128c4.064 1.216 11.488.448 16.896-4.928a.874.874 0 00.256-.608.874.874 0 00-.256-.608zM81.685 24.56a.895.895 0 01-.128-1.216c.096-.16.16-.256.224-.352.032.512 0 1.056-.096 1.568zm38.361-3.424a.771.771 0 00-.576-.224c-.224 0-.448.064-.608.224a24.127 24.127 0 01-10.976 5.952.396.396 0 01-.448-.128c-.096-.16-.128-.32-.032-.48.576-1.12.448-2.464-.288-3.488a5.476 5.476 0 00-1.696-1.504c-.896-.608-1.888-1.312-1.92-2.048.032-.416.192-.8.48-1.12l1.728-1.632c.32-.32.352-.832.064-1.152-.288-.352-.768-.416-1.152-.128-.672.512-1.312 1.088-1.856 1.76l-4.928 4.608a.832.832 0 00-.256.8.84.84 0 00.576.64c.288.064.608 0 .832-.224l2.432-2.272c.128-.128.288-.16.448-.16.16.032.288.128.352.256a7.586 7.586 0 002.24 2.048c.48.288.896.608 1.248 1.024.32.352.48.832.384 1.312a1.62 1.62 0 01-.8 1.12 4.683 4.683 0 01-6.048-1.28.81.81 0 00-1.12-.224c-.384.224-.512.704-.288 1.12a6.391 6.391 0 005.056 3.168 8.992 8.992 0 001.6.128c5.408 0 12.064-3.392 15.552-6.912a.85.85 0 000-1.184zm37.394 1.12a.86.86 0 00-1.216-.064c-.096.096-9.6 8.64-15.488 4.768-2.336-1.536-2.912-5.248-2.912-5.28-.032-.384-.32-.672-.704-.736-.352-.032-.736.16-.896.48-1.504 3.328-4.16 7.552-4.896 7.072-.064 0-.192-.128-.288-.352-.385-1.056-.256-2.208.288-3.2a9.307 9.307 0 016.144-4.96.849.849 0 00.608-.576c.096-.288 0-.608-.192-.832-.224-.192-.512-.288-.8-.224-3.2.768-5.856 2.944-7.297 5.888a5.556 5.556 0 00-.256 4.672c.288.736.992 1.248 1.793 1.248h.032c1.568-.032 3.52-1.984 4.864-4.096a.763.763 0 01.736-.352c.288 0 .544.16.672.416a6.52 6.52 0 002.176 2.208c6.976 4.64 17.12-4.512 17.568-4.896a.86.86 0 00.256-.576c.032-.224-.064-.448-.192-.608zm37.75 0a.86.86 0 00-1.216-.064c-.096.096-9.6 8.64-15.488 4.768-2.336-1.536-2.912-5.248-2.912-5.28-.032-.384-.32-.672-.704-.736-.352-.032-.736.16-.896.48-1.504 3.328-4.16 7.552-4.896 7.072-.064 0-.192-.128-.288-.352-.385-1.056-.256-2.208.288-3.2a9.307 9.307 0 016.144-4.96.849.849 0 00.608-.576c.096-.288 0-.608-.192-.832-.224-.192-.512-.288-.8-.224-3.2.768-5.856 2.944-7.297 5.888a5.556 5.556 0 00-.256 4.672c.288.736.992 1.248 1.793 1.248h.032c1.568-.032 3.52-1.984 4.864-4.096a.763.763 0 01.736-.352c.288 0 .544.16.672.416a6.52 6.52 0 002.176 2.208c6.976 4.64 17.12-4.512 17.568-4.896a.86.86 0 00.256-.576c.032-.224-.064-.448-.192-.608zm20.139-.448a.874.874 0 00-.608-.256.874.874 0 00-.608.256c-.064.064-8.48 8.352-14.528 6.528-2.144-.64-3.328-2.688-4-4.864a3.108 3.108 0 01.192-2.144c2.239-4.544 7.744-16.448 5.024-19.36a2.236 2.236 0 00-2.624-.672c-3.232 1.408-5.377 10.848-4.993 17.728a26.74 26.74 0 00.385 3.168c0 .128 0 .224.064.32.832 4.032 2.72 6.624 5.472 7.424a8.218 8.218 0 002.304.352c6.496 0 13.568-6.976 13.888-7.296a.801.801 0 00.256-.576c0-.256-.064-.448-.224-.608zm-20.384-3.264c-.992-5.344 2.304-15.04 3.904-15.712.064-.032.128-.064.192-.064.128 0 .288.064.512.32 1.28 1.344-2.368 12.928-4.064 15.648-.16.288-.48.128-.544-.192zm40.788 2.752a.822.822 0 00-1.184.032c-.064.064-8.736 8.8-14.496 6.624-2.56-.992-3.648-3.968-4.064-6.912.576-1.408 1.536-3.744 2.432-6.368.096-.32.192-.352.576-.384 4.32-.32 8.608-.48 11.136-.48.48 0 .832-.384.832-.832a.807.807 0 00-.832-.832c-2.432 0-6.432.192-10.528.416-.16.032-.448-.064-.224-.64 1.536-4.384 2.624-8.832 1.952-10.176-.672-1.344-1.568-1.376-2.016-1.28-2.368.448-4.096 6.592-4.864 11.616-.064.448-.288.832-.704.864-5.024.384-9.152.672-9.216.672-.48.032-.832.416-.8.896 0 .448.384.832.864.8h.064c.096 0 3.968-.288 8.8-.64.16-.032.32 0 .448.128a.547.547 0 01.224.416c-.48 7.616 1.44 12.832 5.312 14.304a7.882 7.882 0 002.592.448c6.336 0 13.376-7.136 13.728-7.456.16-.16.224-.384.224-.608a.874.874 0 00-.256-.608zm-19.584-9.28c.736-4.864 2.208-8.704 3.072-9.696a.444.444 0 01.352-.064.428.428 0 01.256.224c.384.832-.704 4.896-2.336 9.728a.681.681 0 01-.608.544c-.16.032-.32.032-.512.032-.32 0-.256-.512-.224-.736v-.032zm-.384 5.024c-.32 0-.192-2.24.096-2.56.256-.16.576-.192.832-.032.288.256-.576 2.592-.928 2.592zm44.802 4.736c-.16-.16-.352-.288-.576-.288a.802.802 0 00-.608.16c-.128.096-12.448 9.888-22.72 5.664-2.08-.864-2.176-1.984-2.112-2.592 0-.096.032-.192.128-.256.064-.064.192-.064.288-.032 2.08.128 4.16-.416 5.952-1.536 1.536-.992 1.792-2.08 1.696-2.784A2.232 2.232 0 00240.439 18c-2.528-.128-6.752 2.88-7.456 6.08-.288 1.184-.256 3.424 3.04 4.768 2.016.832 4.128 1.216 6.272 1.216 9.184 0 17.696-6.752 18.144-7.104.16-.128.288-.352.288-.544a.92.92 0 00-.16-.64zm-24.864.704c1.248-1.728 3.328-2.88 4.64-2.784.352 0 .544.128.608.608.032.32-.32.768-.96 1.184-1.312.864-5.248 2.272-4.288.992zm51.225-.896a.801.801 0 00-.576-.256.874.874 0 00-.608.256c-5.536 5.408-15.36 6.56-17.472 5.312-1.44-.832-1.28-1.824-.256-3.808.48-.96 1.024-2.08.096-2.752-.864-.64-1.696-.224-2.432.16a6.937 6.937 0 01-3.488.928c-.288 0-.544-.512-.48-.704 1.792-3.936.992-4.672.704-4.96-.48-.48-1.216-.448-2.112.096-1.472 1.056-2.112 2.944-1.6 4.704.128.48.352.928.672 1.312a.818.818 0 00.448.832c.192.096.416.096.64.032a4.15 4.15 0 001.76.384c1.312.032 2.592-.256 3.744-.896.448-.224.608-.032.544.096-.768 1.504-2.144 4.256.928 6.048a6.986 6.986 0 003.52.64c4.48 0 11.52-1.92 15.936-6.24a.75.75 0 00.256-.576.73.73 0 00-.224-.608zm-26.656-1.76a2.553 2.553 0 01.864-2.496 18.12 18.12 0 01-.864 2.528v-.032zm53.29 2.208c-.192-.128-.384-.224-.608-.224-.224.032-.448.128-.576.288-.096.064-7.136 7.584-13.248 5.12a7.75 7.75 0 01-3.104-3.072 6.67 6.67 0 00-.96-1.216c-.416-.512-1.056-.8-1.728-.832-1.632-.128-3.616.96-5.984 3.2-.064.064-.16.096-.256.032a.218.218 0 01-.128-.256l.704-3.136a.827.827 0 00-.608-1.024c-.448-.096-.896.192-1.024.64l-1.6 7.008a.8.8 0 00.448.928.831.831 0 001.024-.192c4.288-5.024 6.464-5.504 7.232-5.536.768-.032 1.248.96 1.504 1.344a9.172 9.172 0 003.84 3.648c7.168 2.912 14.784-5.184 15.104-5.536.32-.32.288-.864-.032-1.184zm25.19.224a.86.86 0 00-1.216-.064c-.096.096-9.6 8.64-15.488 4.768-2.336-1.536-2.912-5.248-2.912-5.28-.032-.384-.32-.672-.704-.736-.352-.032-.736.16-.896.48-1.504 3.328-4.16 7.552-4.896 7.072-.064 0-.192-.128-.288-.352-.384-1.056-.256-2.208.288-3.2a9.307 9.307 0 016.144-4.96.849.849 0 00.608-.576c.096-.288 0-.608-.192-.832-.224-.192-.512-.288-.8-.224-3.2.768-5.856 2.944-7.296 5.888a5.556 5.556 0 00-.256 4.672c.288.736.992 1.248 1.792 1.248h.032c1.568-.032 3.52-1.984 4.864-4.096a.763.763 0 01.736-.352c.288 0 .544.16.672.416a6.529 6.529 0 002.176 2.208c6.976 4.64 17.12-4.512 17.568-4.896a.86.86 0 00.256-.576c.032-.224-.064-.448-.192-.608zm20.263-.96a.822.822 0 00-1.184.032c-.064.064-8.736 8.8-14.496 6.624-2.56-.992-3.648-3.968-4.064-6.912.576-1.408 1.536-3.744 2.432-6.368.096-.32.192-.352.576-.384 4.32-.32 8.608-.48 11.136-.48.48 0 .832-.384.832-.832a.807.807 0 00-.832-.832c-2.432 0-6.432.192-10.528.416-.16.032-.448-.064-.224-.64 1.536-4.384 2.623-8.832 1.952-10.176-.672-1.344-1.568-1.376-2.016-1.28-2.368.448-4.096 6.592-4.864 11.616-.064.448-.288.832-.705.864-5.024.384-9.152.672-9.216.672-.48.032-.832.416-.8.896 0 .448.384.832.864.8h.064c.096 0 3.968-.288 8.8-.64.16-.032.32 0 .449.128a.547.547 0 01.224.416c-.481 7.616 1.44 12.832 5.312 14.304a7.882 7.882 0 002.592.448c6.336 0 13.376-7.136 13.728-7.456.16-.16.224-.384.224-.608a.874.874 0 00-.256-.608zm-19.584-9.28c.736-4.864 2.208-8.704 3.072-9.696.096-.064.224-.096.352-.064a.428.428 0 01.256.224c.384.832-.704 4.896-2.336 9.728a.681.681 0 01-.608.544c-.16.032-.32.032-.512.032-.32 0-.256-.512-.224-.736v-.032zm-.384 5.024c-.32 0-.192-2.24.096-2.56.256-.16.576-.192.832-.032.288.256-.576 2.592-.928 2.592zm39.189 4.32c-.352-.32-.864-.32-1.184.032-.128.096-10.496 10.656-17.376 5.632-2.112-1.536-.064-5.536-.032-5.568a.853.853 0 00-.384-1.12c-.416-.192-.896-.064-1.12.352-.128.192-2.72 5.28.544 7.68a8.578 8.578 0 005.248 1.696c6.912 0 13.92-7.136 14.304-7.52a.801.801 0 00.256-.576c-.032-.224-.096-.448-.256-.608zm-20.448-2.528a.852.852 0 00.384-.096 7.87 7.87 0 002.048-1.504.85.85 0 00-.032-1.184c-.352-.32-.864-.32-1.184.032a6.66 6.66 0 01-1.632 1.184.838.838 0 00-.416.928c.096.384.448.64.832.64zm47.688 3.072a.86.86 0 00-.576-.256.874.874 0 00-.608.256c-2.688 2.688-8.192 5.44-12.608 5.344a6.295 6.295 0 01-4.736-1.888c-.032-.032-.096-.096-.128-.16a.542.542 0 010-.32 7.91 7.91 0 001.056-3.712c0-.64-.384-1.216-.992-1.472-.832-.448-1.92-.224-2.464.576-.736 1.056-.48 3.04.256 4.608a.657.657 0 010 .352 11.59 11.59 0 01-1.792 2.144c-.672.608-1.632 1.216-2.368.8-1.632-1.568-1.664-5.44-1.536-6.784.032-.448-.288-.864-.736-.896-.448-.064-.864.256-.928.736 0 .224-.544 5.824 2.112 8.256a.243.243 0 00.128.064c.448.288.96.448 1.472.448.704 0 1.376-.224 1.952-.608a10.483 10.483 0 002.368-2.24.755.755 0 01.512-.224c.192 0 .384.064.512.224a8.242 8.242 0 005.28 1.792c5.12.128 10.912-2.944 13.824-5.856a.874.874 0 00.256-.608.801.801 0 00-.256-.576zm-19.584.928c-.032.064-.128.064-.128 0a2.492 2.492 0 01.032-1.6c.064-.064.128-.128.224-.128.064.032.128.064.192.128 0 .576-.096 1.12-.32 1.6zm44.891-.576a.86.86 0 00-1.216-.064c-.096.096-9.6 8.64-15.488 4.768-2.336-1.536-2.912-5.248-2.912-5.28-.032-.384-.32-.672-.704-.736-.352-.032-.736.16-.896.48-1.504 3.328-4.16 7.552-4.896 7.072-.064 0-.192-.128-.288-.352-.384-1.056-.256-2.208.288-3.2a9.307 9.307 0 016.144-4.96.849.849 0 00.608-.576c.096-.288 0-.608-.192-.832-.224-.192-.512-.288-.8-.224-3.2.768-5.856 2.944-7.296 5.888a5.556 5.556 0 00-.256 4.672c.288.736.992 1.248 1.792 1.248h.032c1.568-.032 3.52-1.984 4.864-4.096a.763.763 0 01.736-.352c.288 0 .544.16.672.416a6.529 6.529 0 002.176 2.208c6.976 4.64 17.12-4.512 17.568-4.896a.86.86 0 00.256-.576c.032-.224-.064-.448-.192-.608z" fill="#78E08F"/></svg>