<svg width="48" height="48" fill="none" xmlns="http://www.w3.org/2000/svg"><path d="M29.5 47.5H18L13.5 36l-3-1.5L7 29l-4-5.5h4l2.5 1-3.5-11L8.5 12V8l1-1 2 1 1 2h4l1 2.5L19 12h2l3.5 7 1.5 6.5-1.5 6 5 16z" fill="#FFE493"/><path d="M45.51 23.221a.938.938 0 00-.564-.572 6.52 6.52 0 00-5.018.22l-.061.03 2.918-8.019a2.816 2.816 0 00-2.617-3.774l.376-1.032a2.81 2.81 0 00-1.68-3.605 2.81 2.81 0 00-3.605 1.68l-.376 1.032a2.817 2.817 0 00-4.43 1.21l-.377 1.033a2.815 2.815 0 00-4.43 1.208L24 17.153l-1.646-4.521a2.815 2.815 0 00-4.43-1.208l-.376-1.032a2.81 2.81 0 00-4.431-1.211l-.375-1.03a2.81 2.81 0 00-3.605-1.682 2.81 2.81 0 00-1.68 3.604l.375 1.033a2.816 2.816 0 00-2.617 3.774l2.918 8.02-.06-.03a6.52 6.52 0 00-5.019-.22.938.938 0 00-.478 1.37l4.963 8.095a10.367 10.367 0 005.55 4.42l3.746 10.834c.131.378.487.63.886.63H30.28c.4 0 .756-.253.886-.63l3.746-10.834a10.367 10.367 0 005.55-4.42l4.963-8.095a.936.936 0 00.086-.799zm-6.648 7.914a8.5 8.5 0 01-4.938 3.744.938.938 0 00-.63.595l-3.312 9.58-1.154-3.294a.937.937 0 10-1.77.62l1.313 3.745H18.39l-3.683-10.65a.938.938 0 00-.63-.596 8.5 8.5 0 01-4.939-3.744l-4.284-6.987a4.689 4.689 0 014.85 3.063v.005l.642 1.76a.937.937 0 101.761-.642L6.977 14.24a.939.939 0 011.762-.642l3.207 8.81a.938.938 0 001.762-.64L9.218 9.431a.936.936 0 111.761-.64l4.49 12.333a.938.938 0 001.762-.641c-1.172-3.22-2.05-5.63-3.206-8.81a.937.937 0 111.761-.641l3.849 10.57a.938.938 0 001.761-.64c-.384-1.058-2.494-6.85-2.566-7.05a.938.938 0 011.762-.64l3.82 10.492a8.462 8.462 0 01-.852 7.542.937.937 0 00-.097.818l.805 2.294a.938.938 0 101.769-.62l-.657-1.873a10.314 10.314 0 00.793-8.802l-1.175-3.23 2.41-6.62a.938.938 0 011.762.639l-.002.008-2.564 7.042a.937.937 0 101.762.64l3.849-10.571a.936.936 0 111.76.642l-.003.01-3.203 8.8a.937.937 0 101.762.64l4.49-12.334a.936.936 0 011.201-.559.936.936 0 01.56 1.201l-4.489 12.334a.937.937 0 101.762.641l3.206-8.81a.939.939 0 011.762.641l-5.13 14.096a.937.937 0 101.762.642l.642-1.763a4.657 4.657 0 012.423-2.645c.77-.359 1.603-.5 2.426-.42l-4.284 6.987z" fill="#000"/><path d="M23.063 5.25a.938.938 0 001.875 0V.937a.938.938 0 00-1.875 0V5.25zM20.363 7.239a.938.938 0 000-1.326l-2.65-2.651a.938.938 0 00-1.327 1.325l2.652 2.652a.938.938 0 001.325 0zM28.962 7.239l2.651-2.652a.938.938 0 10-1.325-1.325l-2.652 2.65a.938.938 0 001.326 1.327zM26.625 39a.937.937 0 100-1.875.937.937 0 000 1.875z" fill="#000"/></svg>