<svg width="48" height="48" fill="none" xmlns="http://www.w3.org/2000/svg"><path d="M19.437 13.563l-5.63 5.63a1.848 1.848 0 01-2.614 0 1.848 1.848 0 00-2.49-.113l-.091.077a1.979 1.979 0 00-.177 2.874l4.652 4.962a2 2 0 002.874.046l8.26-8.26a2 2 0 00.133-2.68l-1.955-2.389a2 2 0 00-2.962-.147zM28.685 27.148l-.633-.62a2.603 2.603 0 01.148-3.854l.088-.074a2.506 2.506 0 000-3.84 2.506 2.506 0 010-3.84l.312-.261a2.847 2.847 0 013.821.146l.042.041a2.912 2.912 0 004.074 0 2.912 2.912 0 013.908-.15l.371.312a2.584 2.584 0 01.147 3.826 2.583 2.583 0 000 3.692l.075.074a2.687 2.687 0 010 3.84l-.723.708a2.961 2.961 0 01-3.943.179 2.961 2.961 0 00-3.744 0 2.961 2.961 0 01-3.943-.179z" fill="#FFE493"/><path d="M8.25 43.594a.938.938 0 01-.938-.938v-5.625H5.438A5.444 5.444 0 010 31.594V9.844a5.444 5.444 0 015.438-5.438h37.124A5.444 5.444 0 0148 9.844v21.75a5.444 5.444 0 01-5.438 5.437h-4.114a.938.938 0 010-1.875h4.114a3.566 3.566 0 003.563-3.562V9.844a3.567 3.567 0 00-3.563-3.563H5.438a3.567 3.567 0 00-3.563 3.563v21.75a3.566 3.566 0 003.563 3.562H8.25c.518 0 .938.42.938.938v4.3l4.962-4.963a.937.937 0 01.662-.275h16.136a.937.937 0 110 1.875H15.201L8.913 43.32a.937.937 0 01-.663.275z" fill="#000"/><path d="M37.88 28.02a.937.937 0 01-.662-.274l-2.52-2.52-2.518 2.52a.938.938 0 01-1.326 0l-3.182-3.182a.937.937 0 010-1.326l2.519-2.52-2.52-2.518a.937.937 0 010-1.326l3.183-3.182a.938.938 0 011.326 0l2.519 2.52 2.519-2.52a.937.937 0 011.326 0l3.181 3.182a.937.937 0 010 1.326l-2.519 2.519 2.52 2.519a.937.937 0 010 1.326l-3.182 3.182a.938.938 0 01-.663.274zm-8.22-4.12l1.857 1.857 2.519-2.52a.938.938 0 011.326 0l2.518 2.52 1.857-1.856-2.52-2.52a.938.938 0 010-1.325l2.52-2.52-1.857-1.855-2.518 2.519a.938.938 0 01-1.326 0l-2.52-2.52-1.855 1.857 2.518 2.519a.938.938 0 010 1.326L29.66 23.9zM12.662 27.72a.935.935 0 01-.663-.274l-1.395-1.396-.04-.037-4.29-4.29a.937.937 0 010-1.325l3.182-3.182a.937.937 0 011.326 0l1.879 1.878 5.102-5.102a.938.938 0 011.326 0l3.182 3.182a.938.938 0 010 1.326l-8.946 8.946a.935.935 0 01-.663.274zm-.81-3.07a.967.967 0 01.04.037l.77.77 7.62-7.62-1.856-1.857-5.102 5.103a.938.938 0 01-1.326 0l-1.878-1.879-1.857 1.856 3.59 3.59zM34.699 37.028a.948.948 0 01-.664-.273.949.949 0 01-.274-.664c0-.247.1-.488.274-.663a.949.949 0 01.664-.275c.246 0 .488.1.662.275a.946.946 0 01.275.663c0 .246-.1.488-.275.664a.943.943 0 01-.662.273z" fill="#000"/></svg>