<svg width="431" height="31" viewBox="0 0 431 31" fill="none" xmlns="http://www.w3.org/2000/svg">
<path d="M22.952 21.136C22.792 20.976 22.6 20.912 22.376 20.912C22.152 20.912 21.928 20.976 21.768 21.136C18.696 24.048 14.92 26.096 10.792 27.088C10.632 27.152 10.44 27.088 10.344 26.96C10.248 26.8 10.216 26.64 10.312 26.48C10.888 25.36 10.76 24.016 10.024 22.992C9.576 22.384 9 21.872 8.328 21.488C7.432 20.88 6.44 20.176 6.408 19.44C6.44 19.024 6.6 18.64 6.888 18.32L8.616 16.688C8.936 16.368 8.968 15.856 8.68 15.536C8.392 15.184 7.912 15.12 7.528 15.408C6.856 15.92 6.216 16.496 5.672 17.168L0.744 21.776C0.52 21.968 0.424 22.288 0.488 22.576C0.552 22.896 0.776 23.12 1.064 23.216C1.352 23.28 1.672 23.216 1.896 22.992L4.328 20.72C4.456 20.592 4.616 20.56 4.776 20.56C4.936 20.592 5.064 20.688 5.128 20.816C5.736 21.648 6.504 22.352 7.368 22.864C7.848 23.152 8.264 23.472 8.616 23.888C8.936 24.24 9.096 24.72 9 25.2C8.904 25.68 8.616 26.096 8.2 26.32C6.152 27.472 3.56 26.928 2.152 25.04C1.928 24.688 1.416 24.56 1.032 24.816C0.648 25.04 0.52 25.52 0.744 25.936C1.8 27.76 3.688 28.944 5.8 29.104C6.344 29.2 6.856 29.232 7.4 29.232C12.808 29.232 19.464 25.84 22.952 22.32C23.272 22 23.272 21.456 22.952 21.136ZM43.9843 20.912C43.8243 20.752 43.6323 20.688 43.4083 20.688C43.1843 20.688 42.9603 20.752 42.8003 20.912C38.9603 24.752 33.5203 26.512 28.1763 25.616C27.7603 25.52 27.4723 25.136 27.5363 24.72C27.7923 23.184 27.6643 21.616 26.7683 21.104C26.1923 20.784 25.3283 20.752 24.3043 22.48C23.9203 23.056 23.7923 23.76 23.9203 24.432C24.0803 25.104 24.4963 25.712 25.0723 26.064C25.4243 26.352 25.0083 26.832 24.7843 27.056C24.1763 27.792 23.1203 27.92 22.3843 27.344C21.4563 26.928 21.0403 25.904 21.3923 24.976C21.8083 23.28 23.4723 21.808 24.0803 21.808C24.5283 21.808 24.9123 21.424 24.9123 20.976C24.9443 20.528 24.5603 20.144 24.1123 20.112H24.0803C22.4803 20.112 20.3362 22.288 19.7602 24.56C19.2162 26.224 19.9842 28.048 21.5843 28.816C22.1923 29.168 22.8643 29.328 23.5683 29.36C24.9443 29.296 26.1603 28.464 26.7363 27.184C26.8003 27.088 26.9603 27.024 27.0883 27.056C31.1523 28.272 38.5763 27.504 43.9843 22.128C44.1443 21.968 44.2403 21.744 44.2403 21.52C44.2403 21.296 44.1443 21.072 43.9843 20.912ZM25.8723 24.56C25.5203 24.24 25.4563 23.728 25.7443 23.344C25.8403 23.184 25.9043 23.088 25.9683 22.992C26.0003 23.504 25.9683 24.048 25.8723 24.56ZM77.8853 21.872C77.5333 21.584 76.9893 21.648 76.7013 22C76.6373 22.096 69.5013 30.8 62.9413 26.992C62.0773 26.384 61.4053 25.552 61.0533 24.592C60.4453 23.376 59.7093 21.904 57.6613 22.224C56.6053 22.384 54.9733 23.728 53.5973 25.264C53.5333 25.36 53.4053 25.392 53.3093 25.36C53.2133 25.328 53.1173 25.264 53.1173 25.136C52.8613 23.696 51.9013 22.48 50.5573 21.904C49.4693 21.616 47.7093 21.296 44.0293 24.944C43.8372 25.104 43.5813 25.04 43.6133 24.784C43.6133 24.656 44.2533 22.064 44.2533 22.064C44.3493 21.616 44.0613 21.168 43.6133 21.04C43.1653 20.944 42.7172 21.232 42.5892 21.68L41.0532 28.432C40.9572 28.816 41.1492 29.2 41.5012 29.392C41.8852 29.552 42.3012 29.456 42.5252 29.136C46.8133 23.76 48.9253 23.248 49.7893 23.376C50.6533 23.536 51.8053 25.264 51.6773 28.048C51.6773 28.432 51.9013 28.784 52.2853 28.88C52.6693 29.008 53.0533 28.848 53.2453 28.528C54.5573 26.288 57.1173 24.016 57.9173 23.888C58.6853 23.76 58.9093 24.048 59.5493 25.328C60.0293 26.608 60.9253 27.696 62.0773 28.432C63.4213 29.232 64.9573 29.68 66.5253 29.68C72.6373 29.68 77.7573 23.408 78.0133 23.056C78.3013 22.704 78.2373 22.16 77.8853 21.872ZM99.7968 20.912C99.6368 20.752 99.4448 20.688 99.2208 20.688C98.9968 20.688 98.7728 20.752 98.6128 20.912C94.7728 24.752 89.3328 26.512 83.9888 25.616C83.5728 25.52 83.2848 25.136 83.3488 24.72C83.6048 23.184 83.4768 21.616 82.5808 21.104C82.0048 20.784 81.1408 20.752 80.1168 22.48C79.7328 23.056 79.6048 23.76 79.7328 24.432C79.8928 25.104 80.3088 25.712 80.8848 26.064C81.2368 26.352 80.8208 26.832 80.5968 27.056C79.9888 27.792 78.9328 27.92 78.1968 27.344C77.2688 26.928 76.8528 25.904 77.2048 24.976C77.6208 23.28 79.2848 21.808 79.8928 21.808C80.3408 21.808 80.7248 21.424 80.7248 20.976C80.7568 20.528 80.3728 20.144 79.9248 20.112H79.8928C78.2928 20.112 76.1487 22.288 75.5727 24.56C75.0287 26.224 75.7967 28.048 77.3968 28.816C78.0048 29.168 78.6768 29.328 79.3808 29.36C80.7568 29.296 81.9728 28.464 82.5488 27.184C82.6128 27.088 82.7728 27.024 82.9008 27.056C86.9648 28.272 94.3888 27.504 99.7968 22.128C99.9568 21.968 100.053 21.744 100.053 21.52C100.053 21.296 99.9568 21.072 99.7968 20.912ZM81.6848 24.56C81.3328 24.24 81.2688 23.728 81.5568 23.344C81.6528 23.184 81.7168 23.088 81.7808 22.992C81.8128 23.504 81.7808 24.048 81.6848 24.56ZM120.046 21.136C119.886 20.976 119.694 20.912 119.47 20.912C119.246 20.912 119.022 20.976 118.862 21.136C115.79 24.048 112.014 26.096 107.886 27.088C107.726 27.152 107.534 27.088 107.438 26.96C107.342 26.8 107.31 26.64 107.406 26.48C107.982 25.36 107.854 24.016 107.118 22.992C106.67 22.384 106.094 21.872 105.422 21.488C104.526 20.88 103.534 20.176 103.502 19.44C103.534 19.024 103.694 18.64 103.982 18.32L105.71 16.688C106.03 16.368 106.062 15.856 105.774 15.536C105.486 15.184 105.006 15.12 104.622 15.408C103.95 15.92 103.31 16.496 102.766 17.168L97.8377 21.776C97.6137 21.968 97.5177 22.288 97.5817 22.576C97.6457 22.896 97.8697 23.12 98.1578 23.216C98.4458 23.28 98.7658 23.216 98.9898 22.992L101.422 20.72C101.55 20.592 101.71 20.56 101.87 20.56C102.03 20.592 102.158 20.688 102.222 20.816C102.83 21.648 103.598 22.352 104.462 22.864C104.942 23.152 105.358 23.472 105.71 23.888C106.03 24.24 106.19 24.72 106.094 25.2C105.998 25.68 105.71 26.096 105.294 26.32C103.246 27.472 100.654 26.928 99.2458 25.04C99.0218 24.688 98.5098 24.56 98.1258 24.816C97.7417 25.04 97.6137 25.52 97.8377 25.936C98.8938 27.76 100.782 28.944 102.894 29.104C103.438 29.2 103.95 29.232 104.494 29.232C109.902 29.232 116.558 25.84 120.046 22.32C120.366 22 120.366 21.456 120.046 21.136ZM157.44 22.256C157.12 21.904 156.576 21.872 156.224 22.192C156.128 22.288 146.624 30.832 140.736 26.96C138.4 25.424 137.824 21.712 137.824 21.68C137.792 21.296 137.504 21.008 137.12 20.944C136.768 20.912 136.384 21.104 136.224 21.424C134.72 24.752 132.064 28.976 131.328 28.496C131.264 28.496 131.136 28.368 131.04 28.144C130.655 27.088 130.784 25.936 131.328 24.944C132.544 22.448 134.784 20.656 137.472 19.984C137.76 19.92 137.984 19.696 138.08 19.408C138.176 19.12 138.08 18.8 137.888 18.576C137.664 18.384 137.376 18.288 137.088 18.352C133.888 19.12 131.232 21.296 129.791 24.24C129.023 25.68 128.927 27.408 129.535 28.912C129.823 29.648 130.527 30.16 131.328 30.16H131.36C132.928 30.128 134.88 28.176 136.224 26.064C136.384 25.808 136.672 25.68 136.96 25.712C137.248 25.712 137.504 25.872 137.632 26.128C138.176 27.024 138.911 27.792 139.808 28.336C146.784 32.976 156.928 23.824 157.376 23.44C157.536 23.28 157.632 23.056 157.632 22.864C157.664 22.64 157.568 22.416 157.44 22.256ZM195.19 22.256C194.87 21.904 194.326 21.872 193.974 22.192C193.878 22.288 184.374 30.832 178.486 26.96C176.15 25.424 175.574 21.712 175.574 21.68C175.542 21.296 175.254 21.008 174.87 20.944C174.518 20.912 174.134 21.104 173.974 21.424C172.47 24.752 169.814 28.976 169.078 28.496C169.014 28.496 168.886 28.368 168.79 28.144C168.405 27.088 168.534 25.936 169.078 24.944C170.294 22.448 172.534 20.656 175.222 19.984C175.51 19.92 175.734 19.696 175.83 19.408C175.926 19.12 175.83 18.8 175.638 18.576C175.414 18.384 175.126 18.288 174.838 18.352C171.638 19.12 168.982 21.296 167.541 24.24C166.773 25.68 166.677 27.408 167.285 28.912C167.573 29.648 168.277 30.16 169.078 30.16H169.11C170.678 30.128 172.63 28.176 173.974 26.064C174.134 25.808 174.422 25.68 174.71 25.712C174.998 25.712 175.254 25.872 175.382 26.128C175.926 27.024 176.661 27.792 177.558 28.336C184.534 32.976 194.678 23.824 195.126 23.44C195.286 23.28 195.382 23.056 195.382 22.864C195.414 22.64 195.318 22.416 195.19 22.256ZM215.329 21.808C215.169 21.648 214.945 21.552 214.721 21.552C214.497 21.552 214.273 21.648 214.113 21.808C214.049 21.872 205.633 30.16 199.585 28.336C197.441 27.696 196.257 25.648 195.585 23.472C195.393 22.768 195.457 22 195.777 21.328C198.016 16.784 203.521 4.88 200.801 1.968C200.161 1.168 199.105 0.911999 198.177 1.296C194.945 2.704 192.8 12.144 193.184 19.024C193.248 20.08 193.377 21.136 193.569 22.192C193.569 22.32 193.569 22.416 193.633 22.512C194.465 26.544 196.353 29.136 199.105 29.936C199.873 30.16 200.641 30.288 201.409 30.288C207.905 30.288 214.977 23.312 215.297 22.992C215.457 22.832 215.553 22.64 215.553 22.416C215.553 22.16 215.489 21.968 215.329 21.808ZM194.945 18.544C193.953 13.2 197.249 3.504 198.849 2.832C198.913 2.8 198.977 2.768 199.041 2.768C199.169 2.768 199.329 2.832 199.553 3.088C200.833 4.432 197.185 16.016 195.489 18.736C195.329 19.024 195.009 18.864 194.945 18.544ZM235.733 21.296C235.413 20.976 234.869 20.976 234.549 21.328C234.485 21.392 225.813 30.128 220.053 27.952C217.493 26.96 216.405 23.984 215.989 21.04C216.565 19.632 217.525 17.296 218.421 14.672C218.517 14.352 218.613 14.32 218.997 14.288C223.317 13.968 227.605 13.808 230.133 13.808C230.613 13.808 230.965 13.424 230.965 12.976C230.965 12.496 230.613 12.144 230.133 12.144C227.701 12.144 223.701 12.336 219.605 12.56C219.445 12.592 219.157 12.496 219.381 11.92C220.917 7.536 222.005 3.088 221.333 1.744C220.661 0.399998 219.765 0.367998 219.317 0.463999C216.949 0.911999 215.221 7.056 214.453 12.08C214.389 12.528 214.165 12.912 213.749 12.944C208.725 13.328 204.597 13.616 204.533 13.616C204.053 13.648 203.701 14.032 203.733 14.512C203.733 14.96 204.117 15.344 204.597 15.312H204.661C204.757 15.312 208.629 15.024 213.461 14.672C213.621 14.64 213.781 14.672 213.909 14.8C214.037 14.896 214.133 15.056 214.133 15.216C213.653 22.832 215.573 28.048 219.445 29.52C220.277 29.808 221.141 29.968 222.037 29.968C228.373 29.968 235.413 22.832 235.765 22.512C235.925 22.352 235.989 22.128 235.989 21.904C235.989 21.68 235.893 21.456 235.733 21.296ZM216.149 12.016C216.885 7.152 218.357 3.312 219.221 2.32C219.317 2.256 219.445 2.224 219.573 2.256C219.669 2.288 219.765 2.352 219.829 2.48C220.213 3.312 219.125 7.376 217.493 12.208C217.429 12.496 217.205 12.72 216.885 12.752C216.725 12.784 216.565 12.784 216.373 12.784C216.053 12.784 216.117 12.272 216.149 12.048V12.016ZM215.765 17.04C215.445 17.04 215.573 14.8 215.861 14.48C216.117 14.32 216.437 14.288 216.693 14.448C216.981 14.704 216.117 17.04 215.765 17.04ZM260.567 21.776C260.407 21.616 260.215 21.488 259.991 21.488C259.767 21.456 259.543 21.52 259.383 21.648C259.255 21.744 246.935 31.536 236.663 27.312C234.583 26.448 234.487 25.328 234.551 24.72C234.551 24.624 234.583 24.528 234.679 24.464C234.743 24.4 234.871 24.4 234.967 24.432C237.047 24.56 239.127 24.016 240.919 22.896C242.455 21.904 242.711 20.816 242.615 20.112C242.551 18.96 241.623 18.032 240.439 18C237.911 17.872 233.687 20.88 232.983 24.08C232.695 25.264 232.727 27.504 236.023 28.848C238.039 29.68 240.151 30.064 242.295 30.064C251.479 30.064 259.991 23.312 260.439 22.96C260.599 22.832 260.727 22.608 260.727 22.416C260.759 22.192 260.695 21.968 260.567 21.776ZM235.703 22.48C236.951 20.752 239.031 19.6 240.343 19.696C240.695 19.696 240.887 19.824 240.951 20.304C240.983 20.624 240.631 21.072 239.991 21.488C238.679 22.352 234.743 23.76 235.703 22.48ZM286.928 21.584C286.768 21.424 286.576 21.328 286.352 21.328C286.128 21.328 285.904 21.424 285.744 21.584C280.208 26.992 270.384 28.144 268.272 26.896C266.832 26.064 266.992 25.072 268.016 23.088C268.496 22.128 269.04 21.008 268.112 20.336C267.248 19.696 266.416 20.112 265.68 20.496C264.624 21.104 263.44 21.424 262.192 21.424C261.904 21.424 261.648 20.912 261.712 20.72C263.504 16.784 262.704 16.048 262.416 15.76C261.936 15.28 261.2 15.312 260.304 15.856C258.832 16.912 258.192 18.8 258.704 20.56C258.832 21.04 259.056 21.488 259.376 21.872C259.344 22.224 259.504 22.544 259.824 22.704C260.016 22.8 260.24 22.8 260.464 22.736C261.008 22.992 261.616 23.12 262.224 23.12C263.536 23.152 264.816 22.864 265.968 22.224C266.416 22 266.576 22.192 266.512 22.32C265.744 23.824 264.368 26.576 267.44 28.368C268.528 28.88 269.744 29.104 270.96 29.008C275.44 29.008 282.48 27.088 286.896 22.768C287.056 22.64 287.152 22.416 287.152 22.192C287.184 21.968 287.088 21.744 286.928 21.584ZM260.272 19.824C260.08 18.896 260.4 17.936 261.136 17.328C260.912 18.192 260.624 19.024 260.272 19.856V19.824ZM313.562 22.032C313.37 21.904 313.178 21.808 312.954 21.808C312.73 21.84 312.506 21.936 312.378 22.096C312.282 22.16 305.242 29.68 299.13 27.216C297.818 26.512 296.762 25.456 296.026 24.144C295.77 23.728 295.45 23.312 295.066 22.928C294.65 22.416 294.01 22.128 293.338 22.096C291.706 21.968 289.722 23.056 287.354 25.296C287.29 25.36 287.194 25.392 287.098 25.328C287.002 25.296 286.938 25.168 286.97 25.072L287.674 21.936C287.802 21.488 287.514 21.008 287.066 20.912C286.618 20.816 286.17 21.104 286.042 21.552L284.442 28.56C284.346 28.944 284.538 29.328 284.89 29.488C285.242 29.68 285.658 29.584 285.914 29.296C290.202 24.272 292.378 23.792 293.146 23.76C293.914 23.728 294.394 24.72 294.65 25.104C295.546 26.672 296.89 27.952 298.49 28.752C305.658 31.664 313.274 23.568 313.594 23.216C313.914 22.896 313.882 22.352 313.562 22.032ZM338.752 22.256C338.432 21.904 337.888 21.872 337.536 22.192C337.44 22.288 327.936 30.832 322.048 26.96C319.712 25.424 319.136 21.712 319.136 21.68C319.104 21.296 318.816 21.008 318.432 20.944C318.08 20.912 317.696 21.104 317.536 21.424C316.032 24.752 313.376 28.976 312.64 28.496C312.576 28.496 312.448 28.368 312.352 28.144C311.968 27.088 312.096 25.936 312.64 24.944C313.856 22.448 316.096 20.656 318.784 19.984C319.072 19.92 319.296 19.696 319.392 19.408C319.488 19.12 319.392 18.8 319.2 18.576C318.976 18.384 318.688 18.288 318.4 18.352C315.2 19.12 312.544 21.296 311.104 24.24C310.336 25.68 310.24 27.408 310.848 28.912C311.136 29.648 311.84 30.16 312.64 30.16H312.672C314.24 30.128 316.192 28.176 317.536 26.064C317.696 25.808 317.984 25.68 318.272 25.712C318.56 25.712 318.816 25.872 318.944 26.128C319.488 27.024 320.224 27.792 321.12 28.336C328.096 32.976 338.24 23.824 338.688 23.44C338.848 23.28 338.944 23.056 338.944 22.864C338.976 22.64 338.88 22.416 338.752 22.256ZM359.015 21.296C358.695 20.976 358.151 20.976 357.831 21.328C357.767 21.392 349.095 30.128 343.335 27.952C340.775 26.96 339.687 23.984 339.271 21.04C339.847 19.632 340.807 17.296 341.703 14.672C341.799 14.352 341.895 14.32 342.279 14.288C346.599 13.968 350.887 13.808 353.415 13.808C353.895 13.808 354.247 13.424 354.247 12.976C354.247 12.496 353.895 12.144 353.415 12.144C350.983 12.144 346.983 12.336 342.887 12.56C342.727 12.592 342.439 12.496 342.663 11.92C344.199 7.536 345.286 3.088 344.615 1.744C343.943 0.399998 343.047 0.367998 342.599 0.463999C340.231 0.911999 338.503 7.056 337.735 12.08C337.671 12.528 337.447 12.912 337.03 12.944C332.006 13.328 327.878 13.616 327.814 13.616C327.334 13.648 326.982 14.032 327.014 14.512C327.014 14.96 327.398 15.344 327.878 15.312H327.942C328.038 15.312 331.91 15.024 336.742 14.672C336.902 14.64 337.062 14.672 337.191 14.8C337.319 14.896 337.415 15.056 337.415 15.216C336.934 22.832 338.855 28.048 342.727 29.52C343.559 29.808 344.423 29.968 345.319 29.968C351.655 29.968 358.695 22.832 359.047 22.512C359.207 22.352 359.271 22.128 359.271 21.904C359.271 21.68 359.175 21.456 359.015 21.296ZM339.431 12.016C340.167 7.152 341.639 3.312 342.503 2.32C342.599 2.256 342.727 2.224 342.855 2.256C342.951 2.288 343.047 2.352 343.111 2.48C343.495 3.312 342.407 7.376 340.775 12.208C340.711 12.496 340.487 12.72 340.167 12.752C340.007 12.784 339.847 12.784 339.655 12.784C339.335 12.784 339.399 12.272 339.431 12.048V12.016ZM339.047 17.04C338.727 17.04 338.855 14.8 339.143 14.48C339.399 14.32 339.719 14.288 339.975 14.448C340.263 14.704 339.399 17.04 339.047 17.04ZM378.236 21.36C377.884 21.04 377.372 21.04 377.052 21.392C376.924 21.488 366.556 32.048 359.676 27.024C357.564 25.488 359.612 21.488 359.644 21.456C359.836 21.04 359.676 20.56 359.26 20.336C358.844 20.144 358.364 20.272 358.14 20.688C358.012 20.88 355.42 25.968 358.684 28.368C360.188 29.488 362.044 30.096 363.932 30.064C370.844 30.064 377.852 22.928 378.236 22.544C378.396 22.384 378.492 22.192 378.492 21.968C378.46 21.744 378.396 21.52 378.236 21.36ZM357.788 18.832C357.916 18.832 358.044 18.8 358.172 18.736C358.94 18.352 359.612 17.84 360.22 17.232C360.54 16.88 360.508 16.368 360.188 16.048C359.836 15.728 359.324 15.728 359.004 16.08C358.524 16.56 357.98 16.944 357.372 17.264C357.052 17.424 356.86 17.84 356.956 18.192C357.052 18.576 357.404 18.832 357.788 18.832ZM405.476 21.904C405.316 21.744 405.092 21.648 404.9 21.648C404.676 21.648 404.452 21.744 404.292 21.904C401.604 24.592 396.1 27.344 391.684 27.248C389.924 27.312 388.196 26.64 386.948 25.36C386.916 25.328 386.852 25.264 386.82 25.2C386.788 25.104 386.788 25.008 386.82 24.88C387.46 23.76 387.844 22.48 387.876 21.168C387.876 20.528 387.492 19.952 386.884 19.696C386.052 19.248 384.964 19.472 384.42 20.272C383.684 21.328 383.94 23.312 384.676 24.88C384.708 25.008 384.708 25.104 384.676 25.232C384.164 26.032 383.556 26.736 382.884 27.376C382.212 27.984 381.252 28.592 380.516 28.176C378.884 26.608 378.852 22.736 378.98 21.392C379.012 20.944 378.692 20.528 378.244 20.496C377.796 20.432 377.38 20.752 377.316 21.232C377.316 21.456 376.772 27.056 379.428 29.488C379.46 29.52 379.524 29.552 379.556 29.552C380.004 29.84 380.516 30 381.028 30C381.732 30 382.404 29.776 382.98 29.392C383.876 28.784 384.676 28.016 385.348 27.152C385.476 27.024 385.668 26.928 385.86 26.928C386.052 26.928 386.244 26.992 386.372 27.152C387.844 28.336 389.732 28.976 391.652 28.944C396.772 29.072 402.564 26 405.476 23.088C405.636 22.928 405.732 22.704 405.732 22.48C405.732 22.256 405.636 22.064 405.476 21.904ZM385.892 22.832C385.86 22.896 385.764 22.896 385.764 22.832C385.604 22.32 385.604 21.744 385.796 21.232C385.86 21.168 385.924 21.104 386.02 21.104C386.084 21.136 386.148 21.168 386.212 21.232C386.212 21.808 386.116 22.352 385.892 22.832ZM430.783 22.256C430.463 21.904 429.919 21.872 429.567 22.192C429.471 22.288 419.967 30.832 414.079 26.96C411.743 25.424 411.167 21.712 411.167 21.68C411.135 21.296 410.847 21.008 410.463 20.944C410.111 20.912 409.727 21.104 409.567 21.424C408.063 24.752 405.407 28.976 404.671 28.496C404.607 28.496 404.479 28.368 404.383 28.144C403.999 27.088 404.127 25.936 404.671 24.944C405.887 22.448 408.127 20.656 410.815 19.984C411.103 19.92 411.327 19.696 411.423 19.408C411.519 19.12 411.423 18.8 411.231 18.576C411.007 18.384 410.719 18.288 410.431 18.352C407.231 19.12 404.575 21.296 403.135 24.24C402.367 25.68 402.271 27.408 402.879 28.912C403.167 29.648 403.871 30.16 404.671 30.16H404.703C406.271 30.128 408.223 28.176 409.567 26.064C409.727 25.808 410.015 25.68 410.303 25.712C410.591 25.712 410.847 25.872 410.975 26.128C411.519 27.024 412.255 27.792 413.151 28.336C420.127 32.976 430.271 23.824 430.719 23.44C430.879 23.28 430.975 23.056 430.975 22.864C431.007 22.64 430.911 22.416 430.783 22.256Z" fill="#78E08F"/>
</svg>
