<svg width="48" height="48" fill="none" xmlns="http://www.w3.org/2000/svg"><path d="M18.072 30.148l-5.675-9.347a4 4 0 01.208-4.462l7.93-10.674c1.671-2.25 5.08-2.127 6.585.238l11.186 17.578c1.525 2.397.136 5.575-2.659 6.083l-13.44 2.444a4 4 0 01-4.135-1.86z" fill="#FFE493"/><path d="M12.84 30.21a.938.938 0 10-.938-1.625.938.938 0 00.939 1.624z" fill="#000"/><path d="M8.999 36.68l4.72 8.178c1.02 1.767 3.311 2.42 5.124 1.373a3.748 3.748 0 001.372-5.123l-2.813-4.872 2.436-1.406a.938.938 0 00.343-1.28l-1.219-2.112 17.957-3.522c2.084-.114 3.332-2.393 2.28-4.215l-3.116-5.396 1.99-3.016a.938.938 0 00.03-.985l-1.875-3.248a.94.94 0 00-.868-.467l-3.607.217-3.458-5.991a2.788 2.788 0 00-2.4-1.406h-.037c-.968 0-1.847.481-2.368 1.296L11.243 20.306l-7.961 4.597A6.566 6.566 0 00.88 33.868c1.657 2.87 5.152 4 8.119 2.812zm9.592 5.366a1.874 1.874 0 11-3.248 1.875l-4.687-8.12 3.248-1.875 4.687 8.12zm-2.126-7.434l-.938-1.624 1.624-.937.938 1.624-1.624.937zm18.43-22.117l1.295 2.245-1.155 1.75-2.233-3.869 2.092-.126zm-9.837-6.762a.917.917 0 01.813-.45c.16.002.559.052.8.469l10.904 18.887a.937.937 0 01-.79 1.406c-.127.002-.186.026-.513.087L24.737 6.153c.242-.311.273-.341.321-.42zm-1.569 2.01l10.838 18.77-16.356 3.208-4.973-8.613L23.49 7.742zM2.503 32.93a4.681 4.681 0 011.716-6.403l7.307-4.219 4.688 8.119-7.307 4.22a4.693 4.693 0 01-6.404-1.717z" fill="#000"/><path d="M9.936 30.804a.938.938 0 00-1.28-.343l-1.624.937a.939.939 0 01-1.281-.343.938.938 0 00-1.624.938 2.816 2.816 0 003.842 1.029l1.624-.938a.938.938 0 00.343-1.28zM46.606 5.414L41.382 8.32a.938.938 0 00.912 1.638l5.224-2.907a.937.937 0 10-.912-1.638zM46.059 15.123l-3.622-.97a.938.938 0 10-.486 1.811l3.623.97a.937.937 0 10.485-1.81zM36.956 2.008l-.971 3.622a.938.938 0 001.81.486l.972-3.623a.938.938 0 00-1.81-.485z" fill="#000"/></svg>