<svg width="275" height="200" viewBox="0 0 275 200" fill="none" xmlns="http://www.w3.org/2000/svg">
<circle cx="66.6667" cy="133.333" r="65.625" fill="#78E08F" stroke="#78E08F" stroke-width="2.08333"/>
<mask id="mask0" mask-type="alpha" maskUnits="userSpaceOnUse" x="0" y="0" width="275" height="200">
<path fill-rule="evenodd" clip-rule="evenodd" d="M275 0H64.5833V66.6986C28.7283 67.7992 0 97.2113 0 133.333C0 169.455 28.7283 198.867 64.5833 199.968V200H66.6667H275V0Z" fill="#C4C4C4"/>
</mask>
<g mask="url(#mask0)">
<path d="M153.942 66.1031L174.588 105.902C175.3 107.275 174.852 108.963 173.554 109.803L70.559 176.401L43.1164 137.348L153.942 66.1031Z" fill="#F2C94C"/>
<path d="M26.0183 111.379L122.278 52.3818L153.942 66.1031L43.9079 138.14L25.4812 114.308C24.7532 113.366 25.0036 112.001 26.0183 111.379Z" fill="#FFE493"/>
<path d="M31.7699 129.696L24.6454 113.072L43.6441 137.876L70.295 176.401L61.8512 171.388L31.7699 129.696Z" fill="#DAB850"/>
<mask id="path-6-outside-1" maskUnits="userSpaceOnUse" x="-39.6063" y="121.605" width="146" height="121" fill="black">
<rect fill="white" x="-39.6063" y="121.605" width="146" height="121"/>
<path fill-rule="evenodd" clip-rule="evenodd" d="M-37.5002 190.35C-23.5545 186.815 11.709 176.253 41.1978 162.292C42.4106 161.337 45.3754 158.149 47.5325 153.038C48.1924 151.474 48.7116 149.949 49.2136 148.474C50.7628 143.922 52.1475 139.854 56.9937 136.651C60.0615 134.623 63.9077 132.818 67.6598 131.057C71.7557 129.135 75.7394 127.266 78.4755 125.217C83.718 121.292 86.2643 125.397 84.5441 128.377C84.1764 129.014 83.9462 129.577 83.7294 130.108C82.9321 132.06 82.3161 133.568 75.7044 136.651C72.2472 138.262 71.5021 139.678 71.8871 140.773C72.5577 142.68 75.2401 142.561 77.2383 142.254L85.2193 141.029L94.0249 139.682C95.3366 139.482 96.4862 138.696 97.1497 137.547L100.401 131.916C101.757 130.713 104.399 129.458 104.121 134.064C103.934 137.152 103.678 139.485 103.474 140.956C101.066 144.612 95.5227 151.48 91.0092 151.993C91.9767 152.257 95.0728 151.782 99.7169 147.771C101.675 146.08 102.795 144.674 103.389 143.56L103.775 146.105C102.201 150.438 98.8496 157.444 94.9439 158.982C95.9467 158.986 98.8144 157.726 102.262 152.65C103.129 151.374 103.734 150.273 104.142 149.331L104.385 153.128C104.426 153.779 104.322 154.431 104.079 155.036L102.297 159.472C102.22 159.664 102.13 159.85 102.026 160.029L101.011 161.788C100.093 162.972 98.9443 163.9 97.4235 164.35C98.0332 164.406 99.2103 163.813 100.304 163.012L98.8265 165.572C98.4876 166.159 98.0167 166.659 97.4512 167.033L87.8113 173.404C87.33 173.722 86.7921 173.941 86.2259 174.051C77.7358 175.71 61.1841 179.381 56.556 182.084C50.5695 185.58 -9.56199 231.309 -18.1288 239.274L-37.5002 190.35Z"/>
</mask>
<path fill-rule="evenodd" clip-rule="evenodd" d="M-37.5002 190.35C-23.5545 186.815 11.709 176.253 41.1978 162.292C42.4106 161.337 45.3754 158.149 47.5325 153.038C48.1924 151.474 48.7116 149.949 49.2136 148.474C50.7628 143.922 52.1475 139.854 56.9937 136.651C60.0615 134.623 63.9077 132.818 67.6598 131.057C71.7557 129.135 75.7394 127.266 78.4755 125.217C83.718 121.292 86.2643 125.397 84.5441 128.377C84.1764 129.014 83.9462 129.577 83.7294 130.108C82.9321 132.06 82.3161 133.568 75.7044 136.651C72.2472 138.262 71.5021 139.678 71.8871 140.773C72.5577 142.68 75.2401 142.561 77.2383 142.254L85.2193 141.029L94.0249 139.682C95.3366 139.482 96.4862 138.696 97.1497 137.547L100.401 131.916C101.757 130.713 104.399 129.458 104.121 134.064C103.934 137.152 103.678 139.485 103.474 140.956C101.066 144.612 95.5227 151.48 91.0092 151.993C91.9767 152.257 95.0728 151.782 99.7169 147.771C101.675 146.08 102.795 144.674 103.389 143.56L103.775 146.105C102.201 150.438 98.8496 157.444 94.9439 158.982C95.9467 158.986 98.8144 157.726 102.262 152.65C103.129 151.374 103.734 150.273 104.142 149.331L104.385 153.128C104.426 153.779 104.322 154.431 104.079 155.036L102.297 159.472C102.22 159.664 102.13 159.85 102.026 160.029L101.011 161.788C100.093 162.972 98.9443 163.9 97.4235 164.35C98.0332 164.406 99.2103 163.813 100.304 163.012L98.8265 165.572C98.4876 166.159 98.0167 166.659 97.4512 167.033L87.8113 173.404C87.33 173.722 86.7921 173.941 86.2259 174.051C77.7358 175.71 61.1841 179.381 56.556 182.084C50.5695 185.58 -9.56199 231.309 -18.1288 239.274L-37.5002 190.35Z" fill="white"/>
<path d="M41.1978 162.292L42.1258 163.47L41.9928 163.575L41.8397 163.647L41.1978 162.292ZM-37.5002 190.35L-38.8948 190.902L-39.5231 189.315L-37.8688 188.896L-37.5002 190.35ZM47.5325 153.038L46.1506 152.455V152.455L47.5325 153.038ZM49.2136 148.474L50.6336 148.957L49.2136 148.474ZM56.9937 136.651L56.1667 135.399L56.9937 136.651ZM67.6598 131.057L67.0226 129.699L67.6598 131.057ZM78.4755 125.217L77.5764 124.016L77.5764 124.016L78.4755 125.217ZM84.5441 128.377L85.8431 129.127V129.127L84.5441 128.377ZM83.7294 130.108L85.1181 130.675V130.675L83.7294 130.108ZM75.7044 136.651L76.3382 138.01L76.3382 138.01L75.7044 136.651ZM71.8871 140.773L73.3021 140.275L73.3021 140.275L71.8871 140.773ZM77.2383 142.254L77.466 143.737H77.466L77.2383 142.254ZM85.2193 141.029L84.9916 139.546L84.9926 139.546L85.2193 141.029ZM94.0249 139.682L93.7982 138.2L94.0249 139.682ZM97.1497 137.547L95.8506 136.797L97.1497 137.547ZM100.401 131.916L99.1016 131.166L99.2231 130.956L99.405 130.795L100.401 131.916ZM104.121 134.064L105.618 134.155L104.121 134.064ZM103.474 140.956L104.96 141.161L104.913 141.497L104.727 141.781L103.474 140.956ZM91.0092 151.993L90.6145 153.44L90.8398 150.503L91.0092 151.993ZM99.7169 147.771L98.7365 146.636H98.7365L99.7169 147.771ZM103.389 143.56L102.066 142.854L104.194 138.865L104.872 143.335L103.389 143.56ZM103.775 146.105L105.258 145.88L105.316 146.258L105.185 146.617L103.775 146.105ZM94.9439 158.982L94.9372 160.482L94.3945 157.586L94.9439 158.982ZM102.262 152.65L101.021 151.807L102.262 152.65ZM104.142 149.331L102.765 148.735L105.639 149.235L104.142 149.331ZM104.385 153.128L105.882 153.032L105.882 153.032L104.385 153.128ZM104.079 155.036L102.687 154.477L102.687 154.477L104.079 155.036ZM102.297 159.472L103.689 160.031L103.689 160.031L102.297 159.472ZM102.026 160.029L100.727 159.279L100.727 159.279L102.026 160.029ZM101.011 161.788L102.31 162.538L102.259 162.627L102.196 162.708L101.011 161.788ZM97.4235 164.35L97.2861 165.844L96.9979 162.912L97.4235 164.35ZM100.304 163.012L99.418 161.802L101.603 163.762L100.304 163.012ZM98.8265 165.572L100.126 166.322L100.126 166.322L98.8265 165.572ZM97.4512 167.033L96.6242 165.781L96.6242 165.781L97.4512 167.033ZM87.8113 173.404L88.6383 174.655L88.6383 174.655L87.8113 173.404ZM86.2259 174.051L86.5135 175.523L86.5135 175.523L86.2259 174.051ZM56.556 182.084L57.3124 183.379V183.379L56.556 182.084ZM-18.1288 239.274L-17.1074 240.373L-18.7153 241.868L-19.5235 239.827L-18.1288 239.274ZM41.8397 163.647C12.2328 177.665 -23.1313 188.255 -37.1315 191.804L-37.8688 188.896C-23.9777 185.374 11.1852 174.842 40.5559 160.936L41.8397 163.647ZM48.9145 153.621C46.6667 158.947 43.5532 162.346 42.1258 163.47L40.2697 161.113C41.2679 160.327 44.0841 157.351 46.1506 152.455L48.9145 153.621ZM50.6336 148.957C50.1337 150.426 49.5983 152.001 48.9145 153.621L46.1506 152.455C46.7865 150.948 47.2896 149.472 47.7936 147.991L50.6336 148.957ZM57.8208 137.902C53.4415 140.796 52.1849 144.399 50.6336 148.957L47.7936 147.991C49.3408 143.445 50.8534 138.911 56.1667 135.399L57.8208 137.902ZM68.2971 132.415C64.5184 134.189 60.7794 135.947 57.8208 137.902L56.1667 135.399C59.3435 133.3 63.2971 131.448 67.0226 129.699L68.2971 132.415ZM79.3746 126.418C76.4883 128.579 72.3429 130.517 68.2971 132.415L67.0226 129.699C71.1686 127.754 74.9906 125.953 77.5764 124.016L79.3746 126.418ZM83.2451 127.627C83.8336 126.607 83.5459 125.685 83.1538 125.354C82.8831 125.126 81.7843 124.613 79.3746 126.418L77.5764 124.016C80.4092 121.895 83.2047 121.473 85.0878 123.061C86.8495 124.546 86.9748 127.167 85.8431 129.127L83.2451 127.627ZM82.3408 129.541C82.5572 129.011 82.8208 128.361 83.2451 127.627L85.8431 129.127C85.5319 129.666 85.3352 130.143 85.1181 130.675L82.3408 129.541ZM75.0707 135.291C78.3373 133.768 79.9708 132.7 80.8748 131.858C81.7055 131.084 81.9593 130.475 82.3408 129.541L85.1181 130.675C84.7023 131.693 84.2493 132.814 82.9198 134.053C81.6635 135.224 79.6832 136.451 76.3382 138.01L75.0707 135.291ZM70.472 141.271C70.0727 140.135 70.3605 138.968 71.1972 137.952C71.9763 137.006 73.2625 136.134 75.0707 135.291L76.3382 138.01C74.6891 138.779 73.8742 139.421 73.5127 139.859C73.3432 140.065 73.3066 140.186 73.2988 140.221C73.2935 140.245 73.2941 140.253 73.3021 140.275L70.472 141.271ZM77.466 143.737C76.4314 143.896 75.0648 144.035 73.814 143.823C72.5486 143.608 71.0652 142.958 70.472 141.271L73.3021 140.275C73.3795 140.496 73.5727 140.739 74.3157 140.865C75.0733 140.994 76.0469 140.92 77.0105 140.772L77.466 143.737ZM85.447 142.511L77.466 143.737L77.0105 140.772L84.9916 139.546L85.447 142.511ZM94.2516 141.165L85.446 142.511L84.9926 139.546L93.7982 138.2L94.2516 141.165ZM98.4487 138.297C97.5575 139.841 96.0134 140.896 94.2516 141.165L93.7982 138.2C94.6598 138.068 95.4149 137.552 95.8506 136.797L98.4487 138.297ZM101.7 132.666L98.4487 138.297L95.8506 136.797L99.1016 131.166L101.7 132.666ZM102.623 133.974C102.687 132.92 102.564 132.419 102.479 132.231C102.445 132.155 102.438 132.176 102.495 132.221C102.556 132.269 102.624 132.291 102.665 132.297C102.7 132.302 102.575 132.284 102.259 132.441C101.971 132.583 101.661 132.803 101.396 133.038L99.405 130.795C99.8179 130.428 100.347 130.04 100.928 129.752C101.479 129.479 102.252 129.21 103.082 129.326C104.043 129.461 104.798 130.071 105.216 131.001C105.591 131.836 105.694 132.905 105.618 134.155L102.623 133.974ZM101.988 140.75C102.186 139.32 102.439 137.026 102.623 133.974L105.618 134.155C105.429 137.278 105.169 139.65 104.96 141.161L101.988 140.75ZM90.8398 150.503C91.648 150.411 92.6157 150.015 93.7061 149.308C94.7836 148.609 95.8939 147.663 96.9737 146.589C99.1347 144.441 101.059 141.895 102.221 140.131L104.727 141.781C103.481 143.672 101.43 146.389 99.0889 148.717C97.9176 149.881 96.6453 150.977 95.3386 151.825C94.045 152.664 92.6271 153.319 91.1785 153.483L90.8398 150.503ZM100.697 148.906C98.2763 150.997 96.2003 152.218 94.5389 152.879C92.9446 153.513 91.5603 153.698 90.6145 153.44L91.4038 150.546C91.3789 150.539 91.5313 150.577 91.9161 150.523C92.2781 150.472 92.7846 150.348 93.4297 150.091C94.7192 149.578 96.5134 148.556 98.7365 146.636L100.697 148.906ZM104.713 144.266C104.003 145.595 102.742 147.141 100.697 148.906L98.7365 146.636C100.608 145.019 101.586 143.752 102.066 142.854L104.713 144.266ZM102.292 146.33L101.906 143.785L104.872 143.335L105.258 145.88L102.292 146.33ZM94.3945 157.586C95.8561 157.011 97.4522 155.26 98.9547 152.808C100.409 150.434 101.601 147.697 102.366 145.592L105.185 146.617C104.375 148.846 103.104 151.779 101.513 154.375C99.9696 156.894 97.9373 159.415 95.4932 160.377L94.3945 157.586ZM103.503 153.493C101.706 156.139 100.016 157.855 98.5826 158.924C97.2068 159.949 95.9176 160.486 94.9372 160.482L94.9505 157.482C94.9247 157.482 95.0818 157.479 95.4395 157.327C95.776 157.184 96.233 156.933 96.7898 156.518C97.9025 155.689 99.3709 154.237 101.021 151.807L103.503 153.493ZM105.518 149.927C105.066 150.972 104.411 152.155 103.503 153.493L101.021 151.807C101.846 150.592 102.402 149.574 102.765 148.735L105.518 149.927ZM102.888 153.224L102.645 149.427L105.639 149.235L105.882 153.032L102.888 153.224ZM102.687 154.477C102.847 154.079 102.915 153.651 102.888 153.224L105.882 153.032C105.938 153.906 105.797 154.782 105.471 155.595L102.687 154.477ZM100.905 158.913L102.687 154.477L105.471 155.595L103.689 160.031L100.905 158.913ZM100.727 159.279C100.795 159.162 100.855 159.039 100.905 158.913L103.689 160.031C103.586 160.289 103.464 160.539 103.326 160.779L100.727 159.279ZM99.7117 161.038L100.727 159.279L103.326 160.779L102.31 162.538L99.7117 161.038ZM102.196 162.708C101.134 164.077 99.7393 165.229 97.8491 165.789L96.9979 162.912C98.1493 162.571 99.0517 161.867 99.8255 160.869L102.196 162.708ZM97.5609 162.857C97.4556 162.847 97.4431 162.87 97.5691 162.834C97.6783 162.803 97.8355 162.744 98.0376 162.648C98.4416 162.456 98.9285 162.16 99.418 161.802L101.191 164.222C100.586 164.665 99.9374 165.066 99.327 165.357C98.7952 165.61 98.0269 165.912 97.2861 165.844L97.5609 162.857ZM97.5275 164.822L99.0053 162.262L101.603 163.762L100.126 166.322L97.5275 164.822ZM96.6242 165.781C96.9956 165.536 97.3049 165.207 97.5275 164.822L100.126 166.322C99.6703 167.11 99.0379 167.782 98.2783 168.284L96.6242 165.781ZM86.9842 172.152L96.6242 165.781L98.2783 168.284L88.6383 174.655L86.9842 172.152ZM85.9383 172.579C86.314 172.506 86.6683 172.361 86.9842 172.152L88.6383 174.655C87.9917 175.082 87.2702 175.376 86.5135 175.523L85.9383 172.579ZM55.7996 180.788C57.1092 180.024 59.1476 179.247 61.4917 178.493C63.8682 177.73 66.6695 176.957 69.5745 176.222C75.3861 174.75 81.6747 173.412 85.9384 172.579L86.5135 175.523C82.287 176.349 76.0547 177.676 70.3109 179.13C67.4382 179.857 64.7032 180.613 62.4092 181.35C60.083 182.097 58.3168 182.792 57.3124 183.379L55.7996 180.788ZM-19.1502 238.176C-14.7991 234.13 2.45197 220.651 19.271 207.811C27.7009 201.375 36.0521 195.078 42.6722 190.17C49.2457 185.296 54.2125 181.715 55.7996 180.788L57.3124 183.379C55.9062 184.2 51.1116 187.647 44.459 192.579C37.8531 197.477 29.5135 203.766 21.0914 210.195C4.20638 223.086 -12.8917 236.453 -17.1074 240.373L-19.1502 238.176ZM-36.1055 189.798L-16.7342 238.722L-19.5235 239.827L-38.8948 190.902L-36.1055 189.798Z" fill="black" mask="url(#path-6-outside-1)"/>
<mask id="path-8-outside-2" maskUnits="userSpaceOnUse" x="115.986" y="-52.3301" width="191" height="120" fill="black">
<rect fill="white" x="115.986" y="-52.3301" width="191" height="120"/>
<path fill-rule="evenodd" clip-rule="evenodd" d="M302.083 -23.588C288.138 -20.0525 210.671 13.0212 181.182 26.9828C179.969 27.9378 177.004 31.1257 174.847 36.2366C174.187 37.8 173.668 39.3257 173.166 40.8006C171.617 45.3525 170.232 49.4209 165.386 52.6239C162.318 54.6514 158.472 56.4564 154.72 58.2171C150.624 60.1393 146.64 62.0087 143.904 64.0574C138.662 67.9829 136.115 63.8774 137.835 60.8979C138.203 60.2609 138.433 59.6973 138.65 59.1665C139.447 57.2144 140.063 55.706 146.675 52.6239C150.132 51.0122 150.877 49.5962 150.492 48.5015C149.822 46.5944 147.139 46.7131 145.141 47.02L137.16 48.2459L128.355 49.592C127.043 49.7925 125.893 50.578 125.23 51.7272L121.979 57.358C120.623 58.5614 117.98 59.8165 118.259 55.2102C118.445 52.1229 118.702 49.7896 118.906 48.3191C121.313 44.6632 126.857 37.7944 131.37 37.2814C130.403 37.0176 127.307 37.4925 122.663 41.5034C120.705 43.1944 119.585 44.6009 118.99 45.7149L118.604 43.1698C120.179 38.8363 123.53 31.83 127.436 30.2929C126.433 30.2884 123.565 31.5485 120.117 36.6247C119.251 37.9006 118.646 39.0018 118.238 39.9437L117.995 36.1464C117.953 35.4956 118.058 34.8437 118.301 34.2386L120.082 29.8021C120.159 29.6103 120.25 29.4243 120.353 29.2454L121.37 27.4846C122.287 26.3021 123.436 25.3739 124.956 24.9241C124.346 24.8681 123.169 25.4611 122.075 26.2621L123.553 23.7029C123.892 23.1159 124.363 22.6157 124.928 22.2419L134.568 15.8708C135.05 15.5527 135.587 15.3338 136.154 15.2232C144.644 13.5648 161.195 9.89348 165.824 7.19083C171.81 3.69496 231.942 -42.0349 240.508 -50L302.083 -23.588Z"/>
</mask>
<path fill-rule="evenodd" clip-rule="evenodd" d="M302.083 -23.588C288.138 -20.0525 210.671 13.0212 181.182 26.9828C179.969 27.9378 177.004 31.1257 174.847 36.2366C174.187 37.8 173.668 39.3257 173.166 40.8006C171.617 45.3525 170.232 49.4209 165.386 52.6239C162.318 54.6514 158.472 56.4564 154.72 58.2171C150.624 60.1393 146.64 62.0087 143.904 64.0574C138.662 67.9829 136.115 63.8774 137.835 60.8979C138.203 60.2609 138.433 59.6973 138.65 59.1665C139.447 57.2144 140.063 55.706 146.675 52.6239C150.132 51.0122 150.877 49.5962 150.492 48.5015C149.822 46.5944 147.139 46.7131 145.141 47.02L137.16 48.2459L128.355 49.592C127.043 49.7925 125.893 50.578 125.23 51.7272L121.979 57.358C120.623 58.5614 117.98 59.8165 118.259 55.2102C118.445 52.1229 118.702 49.7896 118.906 48.3191C121.313 44.6632 126.857 37.7944 131.37 37.2814C130.403 37.0176 127.307 37.4925 122.663 41.5034C120.705 43.1944 119.585 44.6009 118.99 45.7149L118.604 43.1698C120.179 38.8363 123.53 31.83 127.436 30.2929C126.433 30.2884 123.565 31.5485 120.117 36.6247C119.251 37.9006 118.646 39.0018 118.238 39.9437L117.995 36.1464C117.953 35.4956 118.058 34.8437 118.301 34.2386L120.082 29.8021C120.159 29.6103 120.25 29.4243 120.353 29.2454L121.37 27.4846C122.287 26.3021 123.436 25.3739 124.956 24.9241C124.346 24.8681 123.169 25.4611 122.075 26.2621L123.553 23.7029C123.892 23.1159 124.363 22.6157 124.928 22.2419L134.568 15.8708C135.05 15.5527 135.587 15.3338 136.154 15.2232C144.644 13.5648 161.195 9.89348 165.824 7.19083C171.81 3.69496 231.942 -42.0349 240.508 -50L302.083 -23.588Z" fill="white"/>
<path d="M181.182 26.9828L180.254 25.8043L180.387 25.6995L180.54 25.627L181.182 26.9828ZM302.083 -23.588L302.675 -24.9665L306.742 -23.2217L302.452 -22.134L302.083 -23.588ZM174.847 36.2366L173.465 35.6533L174.847 36.2366ZM173.166 40.8006L174.586 41.2839L173.166 40.8006ZM165.386 52.6239L166.213 53.8753L165.386 52.6239ZM154.72 58.2171L155.357 59.5751V59.5751L154.72 58.2171ZM143.904 64.0574L143.005 62.8567V62.8567L143.904 64.0574ZM137.835 60.8979L136.536 60.1479L136.536 60.1479L137.835 60.8979ZM138.65 59.1665L140.039 59.7337V59.7337L138.65 59.1665ZM146.675 52.6239L147.309 53.9834L146.675 52.6239ZM150.492 48.5015L149.077 48.9991L149.077 48.9991L150.492 48.5015ZM145.141 47.02L144.914 45.5374H144.914L145.141 47.02ZM137.16 48.2459L137.388 49.7285L137.387 49.7286L137.16 48.2459ZM128.355 49.592L128.128 48.1092H128.128L128.355 49.592ZM125.23 51.7272L123.931 50.9772L123.931 50.9772L125.23 51.7272ZM121.979 57.358L123.278 58.108L123.156 58.3186L122.974 58.48L121.979 57.358ZM118.259 55.2102L119.756 55.3007L119.756 55.3007L118.259 55.2102ZM118.906 48.3191L117.42 48.1133L117.466 47.7774L117.653 47.4941L118.906 48.3191ZM131.37 37.2814L131.765 35.8343L131.54 38.7719L131.37 37.2814ZM122.663 41.5034L121.682 40.3681L121.682 40.3681L122.663 41.5034ZM118.99 45.7149L120.314 46.421L118.186 50.4096L117.507 45.9399L118.99 45.7149ZM118.604 43.1698L117.121 43.3948L117.064 43.0168L117.194 42.6575L118.604 43.1698ZM127.436 30.2929L127.442 28.7929L127.985 31.6886L127.436 30.2929ZM120.117 36.6247L118.877 35.7819H118.877L120.117 36.6247ZM118.238 39.9437L119.614 40.5398L116.741 40.0394L118.238 39.9437ZM117.995 36.1464L119.492 36.0506L119.492 36.0506L117.995 36.1464ZM118.301 34.2386L119.693 34.7976L119.693 34.7976L118.301 34.2386ZM120.082 29.8021L118.69 29.2431L118.69 29.243L120.082 29.8021ZM120.353 29.2454L119.054 28.4954L119.054 28.4954L120.353 29.2454ZM121.37 27.4846L120.071 26.7346L120.122 26.646L120.185 26.5651L121.37 27.4846ZM124.956 24.9241L125.093 23.4304L125.381 26.3625L124.956 24.9241ZM122.075 26.2621L122.962 27.4723L120.776 25.5121L122.075 26.2621ZM123.553 23.7029L122.254 22.9529V22.9529L123.553 23.7029ZM124.928 22.2419L125.755 23.4933L125.755 23.4933L124.928 22.2419ZM134.568 15.8708L135.395 17.1222H135.395L134.568 15.8708ZM136.154 15.2232L135.866 13.751L136.154 15.2232ZM165.824 7.19083L165.067 5.89552L165.067 5.89551L165.824 7.19083ZM240.508 -50L239.487 -51.0985L240.202 -51.7635L241.1 -51.3785L240.508 -50ZM180.54 25.627C195.313 18.6327 222.075 6.86421 246.878 -3.59454C259.282 -8.82488 271.207 -13.7318 280.906 -17.5537C290.565 -21.3598 298.117 -24.1299 301.715 -25.042L302.452 -22.134C299.077 -21.2783 291.715 -18.5883 282.006 -14.7625C272.336 -10.9525 260.436 -6.05545 248.044 -0.830238C223.255 9.62212 196.539 21.3713 181.824 28.3385L180.54 25.627ZM173.465 35.6533C175.713 30.3277 178.826 26.9284 180.254 25.8043L182.11 28.1612C181.112 28.9473 178.295 31.9238 176.229 36.8199L173.465 35.6533ZM171.746 40.3173C172.246 38.8485 172.781 37.2735 173.465 35.6533L176.229 36.8199C175.593 38.3266 175.09 39.8029 174.586 41.2839L171.746 40.3173ZM164.559 51.3725C168.938 48.4782 170.195 44.8752 171.746 40.3173L174.586 41.2839C173.039 45.8298 171.526 50.3637 166.213 53.8753L164.559 51.3725ZM154.082 56.8592C157.861 55.086 161.6 53.3279 164.559 51.3725L166.213 53.8753C163.036 55.9748 159.082 57.8268 155.357 59.5751L154.082 56.8592ZM143.005 62.8567C145.891 60.6955 150.037 58.7578 154.082 56.8592L155.357 59.5751C151.211 61.5207 147.389 63.3219 144.803 65.2581L143.005 62.8567ZM139.134 61.6479C138.546 62.6673 138.834 63.5897 139.226 63.9203C139.496 64.1486 140.595 64.6611 143.005 62.8567L144.803 65.2581C141.97 67.3792 139.175 67.8017 137.292 66.2137C135.53 64.7281 135.405 62.1079 136.536 60.1479L139.134 61.6479ZM140.039 59.7337C139.822 60.2637 139.559 60.913 139.134 61.6479L136.536 60.1479C136.848 59.6088 137.044 59.131 137.261 58.5994L140.039 59.7337ZM147.309 53.9834C144.042 55.5062 142.409 56.5742 141.505 57.4164C140.674 58.1905 140.42 58.7996 140.039 59.7337L137.261 58.5994C137.677 57.5814 138.13 56.4602 139.46 55.2215C140.716 54.051 142.696 52.8237 146.041 51.2643L147.309 53.9834ZM151.908 48.0039C152.307 49.1394 152.019 50.3069 151.182 51.3226C150.403 52.2684 149.117 53.1405 147.309 53.9834L146.041 51.2643C147.69 50.4956 148.505 49.8539 148.867 49.4151C149.036 49.2094 149.073 49.0882 149.081 49.0535C149.086 49.03 149.085 49.0219 149.077 48.9991L151.908 48.0039ZM144.914 45.5374C145.948 45.3785 147.315 45.2394 148.566 45.4516C149.831 45.6663 151.314 46.3169 151.908 48.0039L149.077 48.9991C149 48.7789 148.807 48.5354 148.064 48.4094C147.306 48.2809 146.333 48.3546 145.369 48.5026L144.914 45.5374ZM136.932 46.7633L144.914 45.5374L145.369 48.5026L137.388 49.7285L136.932 46.7633ZM128.128 48.1092L136.934 46.7631L137.387 49.7286L128.581 51.0748L128.128 48.1092ZM123.931 50.9772C124.822 49.4337 126.366 48.3785 128.128 48.1092L128.581 51.0748C127.72 51.2065 126.965 51.7224 126.529 52.4772L123.931 50.9772ZM120.68 56.608L123.931 50.9772L126.529 52.4772L123.278 58.108L120.68 56.608ZM119.756 55.3007C119.692 56.354 119.815 56.8554 119.9 57.0435C119.934 57.1196 119.942 57.0984 119.885 57.0537C119.823 57.0052 119.755 56.983 119.714 56.9773C119.68 56.9724 119.804 56.9903 120.121 56.8336C120.408 56.6913 120.718 56.4713 120.983 56.236L122.974 58.48C122.562 58.8464 122.033 59.2345 121.452 59.5221C120.9 59.7952 120.127 60.0646 119.297 59.9482C118.336 59.8133 117.582 59.2036 117.164 58.2731C116.789 57.4386 116.686 56.3695 116.762 55.1196L119.756 55.3007ZM120.391 48.5248C120.193 49.9544 119.941 52.2491 119.756 55.3007L116.762 55.1196C116.95 51.9966 117.21 49.6248 117.42 48.1133L120.391 48.5248ZM131.54 38.7719C130.732 38.8637 129.764 39.2595 128.673 39.9668C127.596 40.6657 126.486 41.6117 125.406 42.6853C123.245 44.8341 121.32 47.3796 120.158 49.1441L117.653 47.4941C118.898 45.6027 120.949 42.8858 123.291 40.558C124.462 39.3933 125.734 38.2974 127.041 37.4499C128.335 36.6108 129.752 35.9557 131.201 35.791L131.54 38.7719ZM121.682 40.3681C124.103 38.2773 126.179 37.0568 127.841 36.3957C129.435 35.7613 130.819 35.5763 131.765 35.8343L130.976 38.7286C131.001 38.7354 130.848 38.6971 130.464 38.7512C130.102 38.802 129.595 38.9264 128.95 39.1831C127.66 39.6962 125.866 40.7187 123.643 42.6386L121.682 40.3681ZM117.667 45.0087C118.376 43.6794 119.638 42.1337 121.682 40.3681L123.643 42.6386C121.771 44.2551 120.793 45.5224 120.314 46.421L117.667 45.0087ZM120.087 42.9448L120.473 45.4898L117.507 45.9399L117.121 43.3948L120.087 42.9448ZM127.985 31.6886C126.523 32.2639 124.927 34.0141 123.425 36.4664C121.97 38.8407 120.779 41.5773 120.014 43.6821L117.194 42.6575C118.004 40.4287 119.276 37.4955 120.867 34.899C122.41 32.3805 124.442 29.859 126.886 28.8971L127.985 31.6886ZM118.877 35.7819C120.674 33.1356 122.363 31.4194 123.797 30.3508C125.173 29.3255 126.462 28.7885 127.442 28.7929L127.429 31.7928C127.455 31.793 127.298 31.7954 126.94 31.9473C126.603 32.0901 126.146 32.3413 125.59 32.7562C124.477 33.5856 123.009 35.0375 121.358 37.4675L118.877 35.7819ZM116.861 39.3475C117.314 38.3028 117.968 37.1191 118.877 35.7819L121.358 37.4675C120.533 38.6821 119.978 39.7008 119.614 40.5398L116.861 39.3475ZM119.492 36.0506L119.735 39.8479L116.741 40.0394L116.498 36.2421L119.492 36.0506ZM119.693 34.7976C119.533 35.195 119.464 35.6232 119.492 36.0506L116.498 36.2422C116.442 35.368 116.582 34.4924 116.909 33.6796L119.693 34.7976ZM121.474 30.361L119.693 34.7976L116.909 33.6796L118.69 29.2431L121.474 30.361ZM121.652 29.9954C121.584 30.1129 121.525 30.2351 121.474 30.3611L118.69 29.243C118.794 28.9856 118.915 28.7357 119.054 28.4954L121.652 29.9954ZM122.669 28.2346L121.652 29.9954L119.054 28.4954L120.071 26.7346L122.669 28.2346ZM120.185 26.5651C121.246 25.1969 122.641 24.0448 124.53 23.4858L125.381 26.3625C124.23 26.703 123.328 27.4072 122.555 28.4042L120.185 26.5651ZM124.818 26.4178C124.924 26.4275 124.936 26.4048 124.81 26.4404C124.701 26.4712 124.544 26.5299 124.342 26.6261C123.938 26.8184 123.451 27.1139 122.962 27.4723L121.189 25.0519C121.794 24.6093 122.442 24.2078 123.053 23.9173C123.584 23.6642 124.352 23.3623 125.093 23.4304L124.818 26.4178ZM124.852 24.4529L123.374 27.0121L120.776 25.5121L122.254 22.9529L124.852 24.4529ZM125.755 23.4933C125.384 23.7388 125.075 24.0673 124.852 24.4529L122.254 22.9529C122.709 22.1644 123.342 21.4925 124.101 20.9905L125.755 23.4933ZM135.395 17.1222L125.755 23.4933L124.101 20.9905L133.741 14.6194L135.395 17.1222ZM136.441 16.6954C136.065 16.7688 135.711 16.9134 135.395 17.1222L133.741 14.6194C134.388 14.192 135.109 13.8989 135.866 13.751L136.441 16.6954ZM166.58 8.48615C165.27 9.25092 163.232 10.028 160.888 10.781C158.511 11.5444 155.71 12.3171 152.805 13.0527C146.993 14.5243 140.705 15.8626 136.441 16.6954L135.866 13.751C140.092 12.9255 146.325 11.5989 152.069 10.1445C154.941 9.41711 157.676 8.66164 159.97 7.92473C162.297 7.17744 164.063 6.48207 165.067 5.89552L166.58 8.48615ZM241.53 -48.9015C237.179 -44.856 219.928 -31.3762 203.109 -18.5363C194.679 -12.1008 186.327 -5.80354 179.707 -0.895035C173.134 3.97889 168.167 7.55937 166.58 8.48615L165.067 5.89551C166.473 5.07435 171.268 1.62766 177.92 -3.30489C184.526 -8.20286 192.866 -14.4913 201.288 -20.9209C218.173 -33.8112 235.271 -47.1789 239.487 -51.0985L241.53 -48.9015ZM301.492 -22.2094L239.917 -48.6215L241.1 -51.3785L302.675 -24.9665L301.492 -22.2094Z" fill="black" mask="url(#path-8-outside-2)"/>
</g>
</svg>
