<svg width="71" height="70" viewBox="0 0 71 70" fill="none" xmlns="http://www.w3.org/2000/svg">
<circle r="35" transform="matrix(-1 0 0 1 36 35)" fill="white"/>
<circle r="7.08334" transform="matrix(-1 0 0 1 46.263 52.8078)" stroke="black" stroke-width="0.921053"/>
<circle r="7.08334" transform="matrix(-1 0 0 1 10.4298 52.8078)" stroke="black" stroke-width="0.921053"/>
<circle r="1.42544" transform="matrix(-1 0 0 1 46.263 52.8074)" stroke="black" stroke-width="0.921053"/>
<path d="M21.1167 54.3794L38.4048 54.6937L48.1489 42.7493C43.8741 34.1996 36.2045 33.6338 32.7469 33.6338C37.7761 39.9203 36.8331 47.6738 35.5758 50.6075H29.9179L26.7746 46.2069L29.6777 42.82C30.0191 42.4216 29.7361 41.8063 29.2115 41.8063H22.0597L8.85796 36.1484C8.60649 39.4174 6.86721 40.4442 6.02901 40.549L6.65766 42.7493L21.1167 54.3794Z" fill="white" stroke="black" stroke-width="0.921053"/>
<path d="M28.7109 39.3918L29.4736 40.9173C29.6778 41.3256 29.3809 41.806 28.9244 41.806H22.0598L8.54368 35.8337H17.0305L22.7972 37.9583C22.9332 38.0084 23.0769 38.034 23.2218 38.034H26.514C27.4443 38.034 28.2948 38.5597 28.7109 39.3918Z" stroke="black" stroke-width="0.921053"/>
<path d="M2.84204 35.8338H16.1315C17.1489 35.8338 17.9736 35.0091 17.9736 33.9917V23.2169C17.9736 22.1995 17.1489 21.3748 16.1315 21.3748H2.84204C1.82467 21.3748 0.999935 22.1995 0.999935 23.2169V33.9917C0.999935 35.0091 1.82467 35.8338 2.84204 35.8338Z" fill="#FFE493" stroke="black" stroke-width="0.921053"/>
<path d="M17.9736 25.7754H0.999934" stroke="black" stroke-width="0.921053"/>
<path d="M32.4327 33.319H40.6052C40.6052 30.05 38.3002 29.0232 37.1476 28.9185H33.6608C32.9825 28.9185 32.4327 29.4683 32.4327 30.1465V33.319Z" stroke="black" stroke-width="0.921053"/>
<path d="M36.5188 33.3193V25.4611M36.5188 25.4611V23.5313C36.5188 22.5139 35.6941 21.6892 34.6767 21.6892H32.7322C32.3931 21.6892 32.1182 21.9641 32.1182 22.3032V24.8471C32.1182 25.1862 32.3931 25.4611 32.7322 25.4611H36.5188Z" stroke="black" stroke-width="0.921053"/>
<path d="M52.4736 44.4455C51.3212 43.4583 49.4977 43.0019 48.149 42.749L46.263 45.2636H52.0937C52.571 45.2636 52.8361 44.756 52.4736 44.4455Z" stroke="black" stroke-width="0.921053"/>
<path d="M20.7176 54.2333L16.2439 50.7537H10.1154C9.15451 50.7537 8.37559 51.5327 8.37559 52.4935C8.37559 53.4544 9.15451 54.2333 10.1154 54.2333H20.7176Z" stroke="black" stroke-width="0.921053"/>
<line y1="-0.460526" x2="3.66566" y2="-0.460526" transform="matrix(0.514496 -0.857493 -0.857493 -0.514496 10.4296 50.2932)" stroke="black" stroke-width="0.921053"/>
<line y1="-0.460526" x2="3.55621" y2="-0.460526" transform="matrix(-0.707107 -0.707107 -0.707107 0.707107 45.0057 52.179)" stroke="black" stroke-width="0.921053"/>
<line x1="0.460526" y1="-0.460526" x2="3.75662" y2="-0.460526" transform="matrix(-0.894427 0.447214 0.447214 0.894427 6.65771 42.749)" stroke="black" stroke-width="0.921053" stroke-linecap="round"/>
<line y1="-0.460526" x2="16.9737" y2="-0.460526" transform="matrix(-1 0 0 1 17.9736 28.9185)" stroke="black" stroke-width="0.921053"/>
<line y1="-0.460526" x2="7.54387" y2="-0.460526" transform="matrix(4.37114e-08 1 1 -4.37114e-08 14.2015 28.2896)" stroke="black" stroke-width="0.921053"/>
<line y1="-0.460526" x2="7.54387" y2="-0.460526" transform="matrix(4.37114e-08 1 1 -4.37114e-08 5.40039 28.2896)" stroke="black" stroke-width="0.921053"/>
</svg>
