<svg width="224" height="162" viewBox="0 0 224 162" fill="none" xmlns="http://www.w3.org/2000/svg">
<path d="M107.225 108C107.225 137.246 83.4575 160.958 54.1333 160.958C24.8092 160.958 1.04167 137.246 1.04167 108C1.04167 78.7543 24.8092 55.0417 54.1333 55.0417C83.4575 55.0417 107.225 78.7543 107.225 108Z" fill="#78E08F" stroke="#78E08F" stroke-width="2.08333"/>
<mask id="mask0" mask-type="alpha" maskUnits="userSpaceOnUse" x="0" y="0" width="224" height="162">
<path fill-rule="evenodd" clip-rule="evenodd" d="M223.3 0H52.4417V54.0259C23.3274 54.9174 0 78.7412 0 108C0 137.259 23.3274 161.083 52.4417 161.974V162H54.1333H223.3V0Z" fill="#C4C4C4"/>
</mask>
<g mask="url(#mask0)">
<path d="M125.001 53.5436L141.524 85.3171C142.239 86.691 141.79 88.3829 140.489 89.2223L57.2941 142.885L35.0107 111.252L125.001 53.5436Z" fill="#F2C94C"/>
<path d="M21.4901 89.9954L99.2895 42.4293L125.001 53.5436L35.6534 111.893L20.9526 92.927C20.2223 91.9849 20.4731 90.6172 21.4901 89.9954Z" fill="#FFE493"/>
<path d="M25.7973 105.054L20.0122 91.5885L35.4391 111.68L57.0797 142.885L50.2233 138.824L25.7973 105.054Z" fill="#DAB850"/>
<mask id="path-6-outside-1" maskUnits="userSpaceOnUse" x="-33.2427" y="98.1198" width="120" height="99" fill="black">
<rect fill="white" x="-33.2427" y="98.1198" width="120" height="99"/>
<path fill-rule="evenodd" clip-rule="evenodd" d="M-30.4501 154.184C-19.1262 151.32 9.50774 142.765 33.4526 131.456C34.4374 130.683 36.8448 128.101 38.5964 123.961C39.1322 122.694 39.5539 121.459 39.9614 120.264C41.2194 116.577 42.3437 113.281 46.2789 110.687C48.7699 109.045 51.8931 107.583 54.9398 106.156C58.2657 104.6 61.5004 103.085 63.7221 101.426C67.979 98.2462 70.0466 101.572 68.6498 103.985C68.3512 104.501 68.1643 104.958 67.9883 105.387C67.3409 106.969 66.8406 108.191 61.472 110.687C59.2342 111.728 58.3958 112.668 58.3061 113.455C58.0776 115.461 61.294 115.444 63.2927 115.138L69.1981 114.233L75.9542 113.203C77.2683 113.003 78.4205 112.217 79.0856 111.068L81.5253 106.852C82.6265 105.878 84.7723 104.861 84.546 108.592C84.3944 111.093 84.1862 112.983 84.0208 114.174C82.0659 117.136 77.5644 122.699 73.8995 123.114C74.6851 123.328 77.1991 122.943 80.9701 119.695C82.56 118.325 83.4694 117.186 83.9521 116.283L84.2656 118.345C82.9868 121.855 80.2659 127.53 77.0944 128.775C77.9088 128.779 80.2373 127.758 83.0369 123.646C83.7406 122.613 84.232 121.721 84.5632 120.958L84.7484 123.846C84.7901 124.497 84.6853 125.149 84.4416 125.754L83.0875 129.118C83.0102 129.31 82.9195 129.496 82.8159 129.675L82.0207 131.049C81.2755 132.007 80.3428 132.759 79.1079 133.124C79.603 133.169 80.5588 132.689 81.4471 132.04L80.3456 133.943C80.0056 134.53 79.5334 135.031 78.9664 135.405L71.4412 140.366C70.959 140.684 70.4228 140.902 69.8559 141.013C62.9161 142.37 49.6527 145.315 45.9235 147.488C41.0624 150.319 -7.76433 187.361 -14.7206 193.812L-30.4501 154.184Z"/>
</mask>
<path fill-rule="evenodd" clip-rule="evenodd" d="M-30.4501 154.184C-19.1262 151.32 9.50774 142.765 33.4526 131.456C34.4374 130.683 36.8448 128.101 38.5964 123.961C39.1322 122.694 39.5539 121.459 39.9614 120.264C41.2194 116.577 42.3437 113.281 46.2789 110.687C48.7699 109.045 51.8931 107.583 54.9398 106.156C58.2657 104.6 61.5004 103.085 63.7221 101.426C67.979 98.2462 70.0466 101.572 68.6498 103.985C68.3512 104.501 68.1643 104.958 67.9883 105.387C67.3409 106.969 66.8406 108.191 61.472 110.687C59.2342 111.728 58.3958 112.668 58.3061 113.455C58.0776 115.461 61.294 115.444 63.2927 115.138L69.1981 114.233L75.9542 113.203C77.2683 113.003 78.4205 112.217 79.0856 111.068L81.5253 106.852C82.6265 105.878 84.7723 104.861 84.546 108.592C84.3944 111.093 84.1862 112.983 84.0208 114.174C82.0659 117.136 77.5644 122.699 73.8995 123.114C74.6851 123.328 77.1991 122.943 80.9701 119.695C82.56 118.325 83.4694 117.186 83.9521 116.283L84.2656 118.345C82.9868 121.855 80.2659 127.53 77.0944 128.775C77.9088 128.779 80.2373 127.758 83.0369 123.646C83.7406 122.613 84.232 121.721 84.5632 120.958L84.7484 123.846C84.7901 124.497 84.6853 125.149 84.4416 125.754L83.0875 129.118C83.0102 129.31 82.9195 129.496 82.8159 129.675L82.0207 131.049C81.2755 132.007 80.3428 132.759 79.1079 133.124C79.603 133.169 80.5588 132.689 81.4471 132.04L80.3456 133.943C80.0056 134.53 79.5334 135.031 78.9664 135.405L71.4412 140.366C70.959 140.684 70.4228 140.902 69.8559 141.013C62.9161 142.37 49.6527 145.315 45.9235 147.488C41.0624 150.319 -7.76433 187.361 -14.7206 193.812L-30.4501 154.184Z" fill="white"/>
<path d="M33.4526 131.456L34.3792 132.636L34.2462 132.74L34.0932 132.813L33.4526 131.456ZM-30.4501 154.184L-31.8443 154.737L-32.4748 153.148L-30.8179 152.729L-30.4501 154.184ZM38.5964 123.961L39.9779 124.545L38.5964 123.961ZM39.9614 120.264L38.5418 119.78V119.78L39.9614 120.264ZM46.2789 110.687L45.4533 109.435L46.2789 110.687ZM54.9398 106.156L55.5758 107.515L54.9398 106.156ZM63.7221 101.426L64.6197 102.628L63.7221 101.426ZM68.6498 103.985L69.9481 104.736L69.9481 104.736L68.6498 103.985ZM67.9883 105.387L69.3764 105.956L69.3764 105.956L67.9883 105.387ZM61.472 110.687L62.1045 112.047L62.1045 112.047L61.472 110.687ZM58.3061 113.455L56.8157 113.285L56.8157 113.285L58.3061 113.455ZM63.2927 115.138L63.0656 113.655L63.2927 115.138ZM69.1981 114.233L68.9709 112.751L68.972 112.75L69.1981 114.233ZM75.9542 113.203L76.1804 114.686L76.1803 114.686L75.9542 113.203ZM79.0856 111.068L77.7874 110.316V110.316L79.0856 111.068ZM81.5253 106.852L80.227 106.101L80.3489 105.89L80.5311 105.729L81.5253 106.852ZM84.546 108.592L83.0488 108.501L83.0488 108.501L84.546 108.592ZM84.0208 114.174L85.5066 114.38L85.4599 114.717L85.2727 115.001L84.0208 114.174ZM73.8995 123.114L73.5057 124.562L73.7305 121.624L73.8995 123.114ZM80.9701 119.695L79.9911 118.558H79.9911L80.9701 119.695ZM83.9521 116.283L82.6294 115.576L84.7568 111.599L85.435 116.058L83.9521 116.283ZM84.2656 118.345L85.7486 118.119L85.8062 118.498L85.675 118.858L84.2656 118.345ZM77.0944 128.775L77.0878 130.275L76.5463 127.379L77.0944 128.775ZM83.0369 123.646L81.797 122.802H81.797L83.0369 123.646ZM84.5632 120.958L83.1873 120.361L86.0601 120.862L84.5632 120.958ZM84.7484 123.846L86.2453 123.75L86.2453 123.75L84.7484 123.846ZM84.4416 125.754L85.8331 126.314L85.8331 126.314L84.4416 125.754ZM83.0875 129.118L81.696 128.558L81.696 128.558L83.0875 129.118ZM82.8159 129.675L84.1141 130.426L84.1141 130.426L82.8159 129.675ZM82.0207 131.049L83.319 131.8L83.2677 131.889L83.2049 131.969L82.0207 131.049ZM79.1079 133.124L78.9709 134.617L78.6833 131.685L79.1079 133.124ZM81.4471 132.04L80.5623 130.828L82.7454 132.791L81.4471 132.04ZM80.3456 133.943L81.6438 134.694L81.6438 134.694L80.3456 133.943ZM78.9664 135.405L79.792 136.657H79.792L78.9664 135.405ZM71.4412 140.366L72.2668 141.618L72.2668 141.618L71.4412 140.366ZM69.8559 141.013L70.1439 142.485H70.1439L69.8559 141.013ZM45.9235 147.488L45.1684 146.192V146.192L45.9235 147.488ZM-14.7206 193.812L-13.7006 194.912L-15.3067 196.402L-16.1148 194.366L-14.7206 193.812ZM34.0932 132.813C10.0304 144.177 -18.704 152.76 -30.0824 155.638L-30.8179 152.729C-19.5485 149.879 8.9851 141.353 32.812 130.1L34.0932 132.813ZM39.9779 124.545C38.1352 128.9 35.5787 131.694 34.3792 132.636L32.526 130.277C33.2961 129.672 35.5544 127.301 37.215 123.376L39.9779 124.545ZM41.3811 120.748C40.9756 121.937 40.5377 123.222 39.9779 124.545L37.215 123.376C37.7268 122.167 38.1321 120.98 38.5418 119.78L41.3811 120.748ZM47.1046 111.939C43.6367 114.226 42.6409 117.056 41.3811 120.748L38.5418 119.78C39.7979 116.098 41.0507 112.337 45.4533 109.435L47.1046 111.939ZM55.5758 107.515C52.5024 108.954 49.4865 110.369 47.1045 111.939L45.4533 109.435C48.0533 107.721 51.2838 106.212 54.3039 104.798L55.5758 107.515ZM64.6197 102.628C62.2479 104.399 58.8515 105.982 55.5758 107.515L54.3039 104.798C57.6799 103.218 60.753 101.771 62.8245 100.224L64.6197 102.628ZM67.3516 103.234C67.7771 102.498 67.5286 101.914 67.3405 101.756C67.2712 101.698 66.5365 101.196 64.6197 102.628L62.8245 100.224C65.1646 98.4762 67.5921 98.0473 69.2717 99.4602C70.8324 100.773 70.9193 103.058 69.9481 104.736L67.3516 103.234ZM66.6001 104.819C66.7758 104.39 66.9963 103.848 67.3516 103.234L69.9481 104.736C69.7061 105.154 69.5528 105.525 69.3764 105.956L66.6001 104.819ZM60.8395 109.327C63.4848 108.097 64.7786 107.247 65.4794 106.595C66.1067 106.012 66.2937 105.568 66.6001 104.819L69.3764 105.956C69.0355 106.789 68.6486 107.745 67.5218 108.793C66.4685 109.772 64.8279 110.781 62.1045 112.047L60.8395 109.327ZM56.8157 113.285C56.9149 112.415 57.4052 111.676 58.0643 111.065C58.7226 110.456 59.6446 109.883 60.8395 109.327L62.1045 112.047C61.0616 112.532 60.4455 112.949 60.1027 113.267C59.7607 113.583 59.787 113.708 59.7964 113.625L56.8157 113.285ZM63.5199 116.621C62.453 116.784 60.9455 116.893 59.6656 116.633C59.0316 116.505 58.2824 116.252 57.694 115.713C57.0295 115.103 56.7059 114.25 56.8157 113.285L59.7964 113.625C59.7921 113.663 59.7848 113.56 59.7216 113.502C59.7205 113.501 59.7535 113.531 59.8503 113.572C59.9464 113.614 60.0821 113.657 60.2628 113.694C61.0337 113.85 62.1338 113.798 63.0656 113.655L63.5199 116.621ZM69.4253 115.716L63.5199 116.621L63.0656 113.655L68.9709 112.751L69.4253 115.716ZM76.1803 114.686L69.4242 115.716L68.972 112.75L75.7281 111.72L76.1803 114.686ZM80.3839 111.819C79.4905 113.363 77.9437 114.417 76.1804 114.686L75.7281 111.72C76.5929 111.588 77.3504 111.071 77.7874 110.316L80.3839 111.819ZM82.8235 107.604L80.3839 111.819L77.7874 110.316L80.227 106.101L82.8235 107.604ZM83.0488 108.501C83.0731 108.101 83.063 107.801 83.037 107.584C83.0107 107.365 82.9717 107.258 82.9567 107.225C82.9444 107.198 82.9645 107.255 83.0524 107.324C83.1449 107.397 83.2478 107.432 83.3255 107.443C83.3915 107.452 83.4121 107.44 83.3704 107.45C83.3298 107.46 83.2583 107.484 83.1579 107.533C82.952 107.635 82.7208 107.797 82.5195 107.976L80.5311 105.729C80.8803 105.42 81.3303 105.09 81.8294 104.843C82.2994 104.611 82.9873 104.366 83.7413 104.472C84.6263 104.596 85.3162 105.159 85.692 105.993C86.0244 106.731 86.1058 107.652 86.0433 108.683L83.0488 108.501ZM82.5351 113.968C82.6947 112.818 82.8993 110.966 83.0488 108.501L86.0433 108.683C85.8895 111.22 85.6776 113.148 85.5066 114.38L82.5351 113.968ZM73.7305 121.624C74.3273 121.556 75.0711 121.26 75.9373 120.699C76.7907 120.147 77.677 119.395 78.5451 118.534C80.2828 116.81 81.8335 114.765 82.769 113.348L85.2727 115.001C84.2533 116.545 82.5757 118.762 80.6577 120.664C79.698 121.616 78.6495 122.518 77.567 123.218C76.4974 123.91 75.3041 124.465 74.0684 124.605L73.7305 121.624ZM81.9492 120.831C79.9646 122.541 78.2525 123.548 76.8687 124.097C75.5519 124.62 74.3595 124.794 73.5057 124.562L74.2932 121.667C74.2251 121.648 74.6825 121.737 75.7619 121.309C76.7743 120.907 78.2046 120.097 79.9911 118.558L81.9492 120.831ZM85.2747 116.991C84.6768 118.109 83.6253 119.387 81.9492 120.831L79.9911 118.558C81.4946 117.263 82.262 116.263 82.6294 115.576L85.2747 116.991ZM82.7827 118.57L82.4691 116.509L85.435 116.058L85.7486 118.119L82.7827 118.57ZM76.5463 127.379C77.6411 126.949 78.8958 125.604 80.1116 123.624C81.2799 121.722 82.2395 119.524 82.8562 117.831L85.675 118.858C85.013 120.675 83.9727 123.07 82.6679 125.194C81.4107 127.241 79.7193 129.356 77.6426 130.171L76.5463 127.379ZM84.2768 124.491C82.8033 126.655 81.4106 128.07 80.2162 128.958C79.0796 129.803 77.9727 130.279 77.0878 130.275L77.1011 127.275C77.0305 127.275 77.4951 127.243 78.4262 126.55C79.2996 125.901 80.4709 124.75 81.797 122.802L84.2768 124.491ZM85.9391 121.555C85.5632 122.421 85.0222 123.396 84.2768 124.491L81.797 122.802C82.459 121.83 82.9007 121.021 83.1873 120.361L85.9391 121.555ZM83.2515 123.942L83.0663 121.054L86.0601 120.862L86.2453 123.75L83.2515 123.942ZM83.0501 125.194C83.2101 124.796 83.2788 124.369 83.2515 123.942L86.2453 123.75C86.3014 124.625 86.1605 125.501 85.8331 126.314L83.0501 125.194ZM81.696 128.558L83.0501 125.194L85.8331 126.314L84.4789 129.678L81.696 128.558ZM81.5176 128.923C81.5857 128.806 81.6453 128.684 81.696 128.558L84.479 129.678C84.3752 129.936 84.2533 130.186 84.1141 130.426L81.5176 128.923ZM80.7225 130.297L81.5176 128.923L84.1141 130.426L83.319 131.8L80.7225 130.297ZM83.2049 131.969C82.3153 133.113 81.1362 134.089 79.5326 134.562L78.6833 131.685C79.5494 131.429 80.2357 130.901 80.8366 130.128L83.2049 131.969ZM79.245 131.63C79.1116 131.618 79.0643 131.645 79.1504 131.621C79.2196 131.602 79.3322 131.56 79.4866 131.487C79.7954 131.34 80.1756 131.111 80.5623 130.828L82.332 133.251C81.8303 133.617 81.2884 133.953 80.7734 134.197C80.3368 134.404 79.6533 134.68 78.9709 134.617L79.245 131.63ZM79.0473 133.192L80.1489 131.288L82.7454 132.791L81.6438 134.694L79.0473 133.192ZM78.1407 134.152C78.5137 133.906 78.824 133.577 79.0473 133.192L81.6438 134.694C81.1872 135.483 80.5532 136.155 79.792 136.657L78.1407 134.152ZM70.6156 139.113L78.1408 134.152L79.792 136.657L72.2668 141.618L70.6156 139.113ZM69.5679 139.541C69.9447 139.467 70.298 139.323 70.6156 139.113L72.2668 141.618C71.62 142.045 70.901 142.337 70.1439 142.485L69.5679 139.541ZM45.1684 146.192C46.2525 145.56 47.9158 144.928 49.8015 144.322C51.719 143.706 53.9766 143.083 56.3175 142.491C61.0009 141.305 66.0798 140.223 69.5679 139.541L70.1439 142.485C66.6922 143.16 61.6695 144.23 57.054 145.399C54.7454 145.983 52.5542 146.589 50.7191 147.179C48.8521 147.778 47.4591 148.329 46.6785 148.784L45.1684 146.192ZM-15.7406 192.713C-12.1948 189.424 1.82752 178.495 15.4784 168.099C22.3242 162.886 29.1064 157.784 34.4833 153.807C39.8136 149.865 43.8628 146.952 45.1684 146.192L46.6785 148.784C45.5536 149.439 41.6766 152.218 36.2673 156.219C30.9046 160.186 24.1339 165.279 17.2959 170.486C3.57906 180.932 -10.2901 191.749 -13.7006 194.912L-15.7406 192.713ZM-29.0559 153.63L-13.3264 193.259L-16.1148 194.366L-31.8443 154.737L-29.0559 153.63Z" fill="black" mask="url(#path-6-outside-1)"/>
<mask id="path-8-outside-2" maskUnits="userSpaceOnUse" x="93.8149" y="-42.8074" width="157" height="98" fill="black">
<rect fill="white" x="93.8149" y="-42.8074" width="157" height="98"/>
<path fill-rule="evenodd" clip-rule="evenodd" d="M245.292 -19.1062C233.968 -16.2425 171.065 10.5472 147.12 21.8561C146.135 22.6297 143.727 25.2119 141.976 29.3517C141.44 30.618 141.018 31.8538 140.611 33.0485C139.353 36.7355 138.229 40.031 134.293 42.6254C131.802 44.2676 128.679 45.7297 125.632 47.1559C122.307 48.7128 119.072 50.2271 116.85 51.8865C112.593 55.0661 110.526 51.7407 111.922 49.3273C112.221 48.8114 112.408 48.3549 112.584 47.9249C113.231 46.3437 113.732 45.1219 119.1 42.6254C121.338 41.5847 122.176 40.6448 122.266 39.8572C122.495 37.8517 119.278 37.8681 117.28 38.1744L111.374 39.0792L104.618 40.1094C103.304 40.3098 102.152 41.0955 101.487 42.2448L99.047 46.46C97.9458 47.4347 95.8 48.4514 96.0262 44.7203C96.1778 42.2195 96.386 40.3296 96.5514 39.1385C98.5062 36.1772 103.008 30.6135 106.673 30.198C105.887 29.9843 103.373 30.369 99.6023 33.6178C98.0123 34.9875 97.1029 36.1267 96.6202 37.0291L96.3067 34.9676C97.5854 31.4574 100.306 25.7824 103.478 24.5372C102.664 24.5336 100.335 25.5543 97.5354 29.666C96.8317 30.6996 96.3403 31.5915 96.0091 32.3544L95.8239 29.4664C95.7821 28.8156 95.887 28.1637 96.1306 27.5584L97.4848 24.1946C97.562 24.0027 97.6528 23.8166 97.7564 23.6376L98.5522 22.2627C99.2973 21.3047 100.23 20.5529 101.464 20.1886C100.969 20.1432 100.014 20.6235 99.1253 21.2724L100.227 19.3694C100.567 18.7821 101.039 18.2817 101.606 17.9078L109.131 12.9466C109.613 12.6287 110.149 12.4106 110.716 12.2997C117.656 10.942 130.92 7.99697 134.649 5.8246C139.51 2.99294 188.337 -34.0482 195.293 -40.5L245.292 -19.1062Z"/>
</mask>
<path fill-rule="evenodd" clip-rule="evenodd" d="M245.292 -19.1062C233.968 -16.2425 171.065 10.5472 147.12 21.8561C146.135 22.6297 143.727 25.2119 141.976 29.3517C141.44 30.618 141.018 31.8538 140.611 33.0485C139.353 36.7355 138.229 40.031 134.293 42.6254C131.802 44.2676 128.679 45.7297 125.632 47.1559C122.307 48.7128 119.072 50.2271 116.85 51.8865C112.593 55.0661 110.526 51.7407 111.922 49.3273C112.221 48.8114 112.408 48.3549 112.584 47.9249C113.231 46.3437 113.732 45.1219 119.1 42.6254C121.338 41.5847 122.176 40.6448 122.266 39.8572C122.495 37.8517 119.278 37.8681 117.28 38.1744L111.374 39.0792L104.618 40.1094C103.304 40.3098 102.152 41.0955 101.487 42.2448L99.047 46.46C97.9458 47.4347 95.8 48.4514 96.0262 44.7203C96.1778 42.2195 96.386 40.3296 96.5514 39.1385C98.5062 36.1772 103.008 30.6135 106.673 30.198C105.887 29.9843 103.373 30.369 99.6023 33.6178C98.0123 34.9875 97.1029 36.1267 96.6202 37.0291L96.3067 34.9676C97.5854 31.4574 100.306 25.7824 103.478 24.5372C102.664 24.5336 100.335 25.5543 97.5354 29.666C96.8317 30.6996 96.3403 31.5915 96.0091 32.3544L95.8239 29.4664C95.7821 28.8156 95.887 28.1637 96.1306 27.5584L97.4848 24.1946C97.562 24.0027 97.6528 23.8166 97.7564 23.6376L98.5522 22.2627C99.2973 21.3047 100.23 20.5529 101.464 20.1886C100.969 20.1432 100.014 20.6235 99.1253 21.2724L100.227 19.3694C100.567 18.7821 101.039 18.2817 101.606 17.9078L109.131 12.9466C109.613 12.6287 110.149 12.4106 110.716 12.2997C117.656 10.942 130.92 7.99697 134.649 5.8246C139.51 2.99294 188.337 -34.0482 195.293 -40.5L245.292 -19.1062Z" fill="white"/>
<path d="M147.12 21.8561L146.193 20.6765L146.326 20.572L146.479 20.4997L147.12 21.8561ZM245.292 -19.1062L245.882 -20.4853L249.961 -18.7398L245.659 -17.652L245.292 -19.1062ZM141.976 29.3517L140.594 28.7672V28.7672L141.976 29.3517ZM140.611 33.0485L139.191 32.5641V32.5641L140.611 33.0485ZM134.293 42.6254L133.468 41.373V41.373L134.293 42.6254ZM125.632 47.1559L126.268 48.5144L125.632 47.1559ZM116.85 51.8865L117.748 53.0883L117.748 53.0883L116.85 51.8865ZM111.922 49.3273L113.221 50.0787L113.221 50.0787L111.922 49.3273ZM112.584 47.9249L111.196 47.3566L112.584 47.9249ZM119.1 42.6254L118.468 41.2652L118.468 41.2652L119.1 42.6254ZM122.266 39.8572L120.776 39.6874V39.6874L122.266 39.8572ZM117.28 38.1744L117.507 39.6571L117.507 39.6571L117.28 38.1744ZM111.374 39.0792L111.601 40.5619L111.6 40.562L111.374 39.0792ZM104.618 40.1094L104.844 41.5923L104.844 41.5923L104.618 40.1094ZM101.487 42.2448L102.785 42.9962L102.785 42.9962L101.487 42.2448ZM99.047 46.46L100.345 47.2114L100.223 47.4219L100.041 47.5832L99.047 46.46ZM96.0262 44.7203L94.529 44.6295H94.529L96.0262 44.7203ZM96.5514 39.1385L95.0656 38.9323L95.1124 38.5957L95.2995 38.3121L96.5514 39.1385ZM106.673 30.198L107.067 28.7506L106.842 31.6885L106.673 30.198ZM99.6023 33.6178L98.6232 32.4813H98.6232L99.6023 33.6178ZM96.6202 37.0291L97.9429 37.7366L95.8156 41.7137L95.1373 37.2547L96.6202 37.0291ZM96.3067 34.9676L94.8237 35.1932L94.7661 34.8143L94.8973 34.4541L96.3067 34.9676ZM103.478 24.5372L103.485 23.0373L104.026 25.9335L103.478 24.5372ZM97.5354 29.666L96.2955 28.8218H96.2955L97.5354 29.666ZM96.0091 32.3544L97.385 32.9518L94.5121 32.4504L96.0091 32.3544ZM95.8239 29.4664L94.3269 29.5623L94.3269 29.5623L95.8239 29.4664ZM96.1306 27.5584L94.7392 26.9982L94.7392 26.9982L96.1306 27.5584ZM97.4848 24.1946L98.8763 24.7547L98.8763 24.7547L97.4848 24.1946ZM97.7564 23.6376L99.0546 24.389L99.0546 24.389L97.7564 23.6376ZM98.5522 22.2627L97.2539 21.5113L97.3052 21.4226L97.3682 21.3417L98.5522 22.2627ZM101.464 20.1886L101.601 18.6948L101.889 21.6272L101.464 20.1886ZM99.1253 21.2724L100.01 22.4836L97.8271 20.521L99.1253 21.2724ZM100.227 19.3694L101.525 20.1208H101.525L100.227 19.3694ZM101.606 17.9078L102.432 19.1602L102.431 19.1602L101.606 17.9078ZM109.131 12.9466L109.957 14.199H109.957L109.131 12.9466ZM110.716 12.2997L110.428 10.8276H110.428L110.716 12.2997ZM134.649 5.8246L135.404 7.12073L134.649 5.8246ZM195.293 -40.5L194.273 -41.5998L194.987 -42.2623L195.883 -41.879L195.293 -40.5ZM146.479 20.4997C158.48 14.8318 180.215 5.29751 200.357 -3.17467C210.43 -7.41173 220.115 -11.3872 227.994 -14.4841C235.832 -17.5652 241.982 -19.8165 244.924 -20.5604L245.659 -17.652C242.939 -16.9641 236.98 -14.7927 229.091 -11.692C221.242 -8.60695 211.581 -4.64128 201.52 -0.409344C181.393 8.05647 159.704 17.5715 147.76 23.2124L146.479 20.4997ZM140.594 28.7672C142.437 24.4122 144.994 21.6188 146.193 20.6765L148.046 23.0356C147.276 23.6406 145.018 26.0115 143.357 29.9362L140.594 28.7672ZM139.191 32.5641C139.597 31.3755 140.035 30.0904 140.594 28.7672L143.357 29.9362C142.846 31.1457 142.44 32.3321 142.03 33.5328L139.191 32.5641ZM133.468 41.373C136.936 39.0868 137.931 36.2566 139.191 32.5641L142.03 33.5328C140.774 37.2145 139.522 40.9752 135.119 43.8777L133.468 41.373ZM124.997 45.7974C128.07 44.3587 131.086 42.9434 133.468 41.373L135.119 43.8777C132.519 45.5918 129.289 47.1006 126.268 48.5144L124.997 45.7974ZM115.953 50.6848C118.324 48.9131 121.721 47.3308 124.997 45.7974L126.268 48.5144C122.892 50.0948 119.819 51.541 117.748 53.0883L115.953 50.6848ZM113.221 50.0787C112.795 50.8139 113.044 51.3982 113.232 51.5564C113.301 51.6147 114.036 52.1165 115.953 50.6848L117.748 53.0883C115.408 54.8362 112.98 55.2651 111.301 53.8522C109.74 52.5393 109.653 50.2541 110.624 48.5759L113.221 50.0787ZM113.972 48.4933C113.796 48.9224 113.576 49.4648 113.221 50.0787L110.624 48.5759C110.866 48.1579 111.019 47.7873 111.196 47.3566L113.972 48.4933ZM119.733 43.9855C117.087 45.2156 115.794 46.0657 115.093 46.7171C114.466 47.3001 114.279 47.7449 113.972 48.4933L111.196 47.3566C111.537 46.5238 111.924 45.567 113.05 44.5197C114.104 43.5407 115.744 42.5316 118.468 41.2652L119.733 43.9855ZM123.757 40.0269C123.657 40.8975 123.167 41.6366 122.508 42.247C121.85 42.8566 120.928 43.4298 119.733 43.9855L118.468 41.2652C119.511 40.7803 120.127 40.3632 120.47 40.0458C120.812 39.7292 120.785 39.6045 120.776 39.6874L123.757 40.0269ZM117.052 36.6917C118.119 36.5282 119.627 36.4189 120.907 36.6789C121.541 36.8077 122.29 37.06 122.878 37.5996C123.543 38.209 123.866 39.0626 123.757 40.0269L120.776 39.6874C120.78 39.649 120.787 39.7527 120.851 39.8107C120.852 39.8116 120.819 39.7819 120.722 39.7401C120.626 39.6987 120.49 39.6556 120.309 39.6189C119.539 39.4623 118.438 39.5143 117.507 39.6571L117.052 36.6917ZM111.147 37.5965L117.052 36.6917L117.507 39.6571L111.601 40.5619L111.147 37.5965ZM104.392 38.6266L111.148 37.5963L111.6 40.562L104.844 41.5923L104.392 38.6266ZM100.188 41.4934C101.082 39.9498 102.629 38.8955 104.392 38.6266L104.844 41.5923C103.979 41.7242 103.222 42.2412 102.785 42.9962L100.188 41.4934ZM97.7487 45.7086L100.188 41.4934L102.785 42.9962L100.345 47.2114L97.7487 45.7086ZM97.5235 44.811C97.4992 45.2116 97.5093 45.5109 97.5353 45.728C97.5615 45.9475 97.6006 46.0539 97.6156 46.0872C97.6279 46.1144 97.6077 46.0578 97.5199 45.9886C97.4274 45.9158 97.3245 45.8802 97.2467 45.8693C97.1807 45.8601 97.1602 45.872 97.2019 45.8621C97.2425 45.8525 97.3139 45.8288 97.4144 45.7792C97.6202 45.6775 97.8514 45.515 98.0528 45.3368L100.041 47.5832C99.6919 47.8923 99.242 48.2225 98.7428 48.469C98.2729 48.7011 97.5849 48.9459 96.8309 48.8404C95.9459 48.7165 95.256 48.1534 94.8803 47.3193C94.5479 46.5814 94.4664 45.6609 94.529 44.6295L97.5235 44.811ZM98.0371 39.3447C97.8775 40.4948 97.6729 42.3461 97.5235 44.811L94.529 44.6295C94.6828 42.093 94.8946 40.1644 95.0656 38.9323L98.0371 39.3447ZM106.842 31.6885C106.245 31.7561 105.501 32.0527 104.635 32.6132C103.782 33.1653 102.895 33.9175 102.027 34.7785C100.289 36.5021 98.7387 38.5477 97.8032 39.9649L95.2995 38.3121C96.3189 36.768 97.9965 34.551 99.9145 32.6486C100.874 31.6966 101.923 30.7948 103.005 30.0944C104.075 29.4023 105.268 28.8476 106.504 28.7075L106.842 31.6885ZM98.6232 32.4813C100.608 30.7716 102.32 29.7645 103.704 29.2153C105.02 28.6926 106.213 28.5183 107.067 28.7506L106.279 31.6454C106.347 31.6639 105.89 31.5752 104.811 32.0036C103.798 32.4055 102.368 33.2151 100.581 34.7542L98.6232 32.4813ZM95.2976 36.3216C95.8955 35.2038 96.947 33.9254 98.6232 32.4813L100.581 34.7542C99.0777 36.0496 98.3103 37.0497 97.9429 37.7366L95.2976 36.3216ZM97.7896 34.742L98.1032 36.8035L95.1373 37.2547L94.8237 35.1932L97.7896 34.742ZM104.026 25.9335C102.931 26.3633 101.676 27.7086 100.461 29.6881C99.2924 31.5901 98.3328 33.788 97.716 35.481L94.8973 34.4541C95.5593 32.637 96.5996 30.2423 97.9043 28.118C99.1615 26.0711 100.853 23.9563 102.93 23.141L104.026 25.9335ZM96.2955 28.8218C97.769 26.6577 99.1617 25.2427 100.356 24.3546C101.493 23.5096 102.6 23.0333 103.485 23.0373L103.471 26.0372C103.542 26.0375 103.077 26.0698 102.146 26.7621C101.273 27.4115 100.101 28.5626 98.7753 30.5102L96.2955 28.8218ZM94.6332 31.7571C95.0091 30.8912 95.55 29.9166 96.2955 28.8218L98.7753 30.5102C98.1133 31.4825 97.6715 32.2918 97.385 32.9518L94.6332 31.7571ZM97.3208 29.3704L97.506 32.2585L94.5121 32.4504L94.3269 29.5623L97.3208 29.3704ZM97.5221 28.1185C97.3622 28.5159 97.2934 28.9437 97.3208 29.3704L94.3269 29.5623C94.2709 28.6876 94.4118 27.8114 94.7392 26.9982L97.5221 28.1185ZM98.8763 24.7547L97.5221 28.1185L94.7392 26.9982L96.0933 23.6344L98.8763 24.7547ZM99.0546 24.389C98.9866 24.5066 98.927 24.6288 98.8763 24.7547L96.0933 23.6344C96.1971 23.3767 96.319 23.1266 96.4582 22.8862L99.0546 24.389ZM99.8504 23.0141L99.0546 24.389L96.4582 22.8862L97.2539 21.5113L99.8504 23.0141ZM97.3682 21.3417C98.2577 20.1981 99.4365 19.2231 101.04 18.7499L101.889 21.6272C101.023 21.8828 100.337 22.4113 99.7362 23.1836L97.3682 21.3417ZM101.327 21.6823C101.46 21.6945 101.508 21.667 101.422 21.6912C101.353 21.7108 101.24 21.7518 101.086 21.8251C100.777 21.9717 100.397 22.2012 100.01 22.4836L98.2405 20.0611C98.7421 19.6947 99.284 19.3596 99.7989 19.1151C100.235 18.9078 100.919 18.6322 101.601 18.6948L101.327 21.6823ZM101.525 20.1208L100.424 22.0238L97.8271 20.521L98.9285 18.618L101.525 20.1208ZM102.431 19.1602C102.059 19.4061 101.748 19.735 101.525 20.1208L98.9285 18.618C99.3851 17.8292 100.019 17.1573 100.78 16.6555L102.431 19.1602ZM109.957 14.199L102.432 19.1602L100.78 16.6555L108.305 11.6943L109.957 14.199ZM111.004 13.7718C110.628 13.8455 110.274 13.9896 109.957 14.199L108.305 11.6943C108.952 11.2679 109.671 10.9757 110.428 10.8276L111.004 13.7718ZM135.404 7.12073C134.32 7.7522 132.656 8.38418 130.771 8.98999C128.853 9.60603 126.596 10.2289 124.255 10.8217C119.571 12.0079 114.492 13.0894 111.004 13.7718L110.428 10.8276C113.88 10.1523 118.903 9.08247 123.518 7.91356C125.827 7.3289 128.018 6.72332 129.853 6.13377C131.72 5.53398 133.113 4.98319 133.894 4.52847L135.404 7.12073ZM196.313 -39.4002C192.767 -36.1115 178.745 -25.1824 165.094 -14.7868C158.248 -9.57346 151.466 -4.47183 146.089 -0.494961C140.759 3.44743 136.709 6.36016 135.404 7.12073L133.894 4.52847C135.019 3.87321 138.896 1.09393 144.305 -2.90692C149.668 -6.87329 156.438 -11.9661 163.276 -17.1735C176.993 -27.6194 190.862 -38.4367 194.273 -41.5998L196.313 -39.4002ZM244.702 -17.7271L194.703 -39.1209L195.883 -41.879L245.882 -20.4853L244.702 -17.7271Z" fill="black" mask="url(#path-8-outside-2)"/>
</g>
</svg>
