<svg width="275" height="200" fill="none" xmlns="http://www.w3.org/2000/svg"><circle cx="66.667" cy="133.333" r="65.625" fill="#78E08F" stroke="#78E08F" stroke-width="2.083"/><mask id="a" maskUnits="userSpaceOnUse" x="0" y="0" width="275" height="200"><path fill-rule="evenodd" clip-rule="evenodd" d="M275 0H64.583v66.699C28.728 67.799 0 97.21 0 133.333s28.728 65.534 64.583 66.635V200H275V0z" fill="#C4C4C4"/></mask><g mask="url(#a)"><path d="M153.942 66.103l20.646 39.799a3 3 0 01-1.034 3.901L70.559 176.401l-27.443-39.053 110.826-71.245z" fill="#F2C94C"/><path d="M26.018 111.379l96.26-58.997 31.664 13.721L43.908 138.14 25.48 114.308a2 2 0 01.537-2.929z" fill="#FFE493"/><path d="M31.77 129.696l-7.125-16.624 19 24.804 26.65 38.525-8.444-5.013-30.081-41.692z" fill="#DAB850"/><mask id="b" maskUnits="userSpaceOnUse" x="-39.606" y="121.605" width="146" height="121" fill="#000"><path fill="#fff" d="M-39.606 121.605h146v121h-146z"/><path fill-rule="evenodd" clip-rule="evenodd" d="M-37.5 190.35c13.945-3.535 49.209-14.097 78.698-28.058 1.213-.955 4.177-4.143 6.334-9.254.66-1.564 1.18-3.089 1.682-4.564 1.549-4.552 2.934-8.62 7.78-11.823 3.068-2.028 6.914-3.833 10.666-5.594 4.096-1.922 8.08-3.791 10.816-5.84 5.242-3.925 7.788.18 6.068 3.16-.368.637-.598 1.2-.815 1.731-.797 1.952-1.413 3.46-8.025 6.543-3.457 1.611-4.202 3.027-3.817 4.122.67 1.907 3.353 1.788 5.351 1.481l7.981-1.225 8.806-1.347a4.37 4.37 0 003.125-2.135l3.251-5.631c1.356-1.203 3.998-2.458 3.72 2.148-.187 3.088-.443 5.421-.647 6.892-2.408 3.656-7.951 10.524-12.465 11.037.968.264 4.064-.211 8.708-4.222 1.958-1.691 3.078-3.097 3.672-4.211l.386 2.545c-1.574 4.333-4.925 11.339-8.831 12.877 1.003.004 3.87-1.256 7.318-6.332.867-1.276 1.472-2.377 1.88-3.319l.243 3.797a4.38 4.38 0 01-.306 1.908l-1.782 4.436a4.274 4.274 0 01-.271.557l-1.015 1.759c-.918 1.184-2.067 2.112-3.587 2.562.61.056 1.786-.537 2.88-1.338l-1.478 2.56a4.373 4.373 0 01-1.375 1.461l-9.64 6.371a4.393 4.393 0 01-1.585.647c-8.49 1.659-25.042 5.33-29.67 8.033-5.986 3.496-66.118 49.225-74.685 57.19L-37.5 190.35z"/></mask><path fill-rule="evenodd" clip-rule="evenodd" d="M-37.5 190.35c13.945-3.535 49.209-14.097 78.698-28.058 1.213-.955 4.177-4.143 6.334-9.254.66-1.564 1.18-3.089 1.682-4.564 1.549-4.552 2.934-8.62 7.78-11.823 3.068-2.028 6.914-3.833 10.666-5.594 4.096-1.922 8.08-3.791 10.816-5.84 5.242-3.925 7.788.18 6.068 3.16-.368.637-.598 1.2-.815 1.731-.797 1.952-1.413 3.46-8.025 6.543-3.457 1.611-4.202 3.027-3.817 4.122.67 1.907 3.353 1.788 5.351 1.481l7.981-1.225 8.806-1.347a4.37 4.37 0 003.125-2.135l3.251-5.631c1.356-1.203 3.998-2.458 3.72 2.148-.187 3.088-.443 5.421-.647 6.892-2.408 3.656-7.951 10.524-12.465 11.037.968.264 4.064-.211 8.708-4.222 1.958-1.691 3.078-3.097 3.672-4.211l.386 2.545c-1.574 4.333-4.925 11.339-8.831 12.877 1.003.004 3.87-1.256 7.318-6.332.867-1.276 1.472-2.377 1.88-3.319l.243 3.797a4.38 4.38 0 01-.306 1.908l-1.782 4.436a4.274 4.274 0 01-.271.557l-1.015 1.759c-.918 1.184-2.067 2.112-3.587 2.562.61.056 1.786-.537 2.88-1.338l-1.478 2.56a4.373 4.373 0 01-1.375 1.461l-9.64 6.371a4.393 4.393 0 01-1.585.647c-8.49 1.659-25.042 5.33-29.67 8.033-5.986 3.496-66.118 49.225-74.685 57.19L-37.5 190.35z" fill="#fff"/><path d="M41.198 162.292l.928 1.178-.133.105-.153.072-.642-1.355zM-37.5 190.35l-1.395.552-.628-1.587 1.654-.419.369 1.454zm85.032-37.312l-1.381-.583 1.381.583zm1.682-4.564l1.42.483-1.42-.483zm7.78-11.823l-.827-1.252.827 1.252zm10.666-5.594l-.637-1.358.637 1.358zm10.816-5.84l-.9-1.201.9 1.201zm6.068 3.16l1.3.75-1.3-.75zm-.815 1.731l1.39.567-1.39-.567zm-8.025 6.543l.634 1.359-.634-1.359zm-3.817 4.122l1.415-.498-1.415.498zm5.351 1.481l.228 1.483-.228-1.483zm7.981-1.225l-.227-1.483.227 1.483zm8.806-1.347l-.227-1.482.227 1.482zm3.125-2.135l-1.3-.75 1.3.75zm3.251-5.631l-1.3-.75.122-.21.182-.161.996 1.121zm3.72 2.148l1.497.091-1.497-.091zm-.647 6.892l1.486.205-.047.336-.186.284-1.253-.825zm-12.465 11.037l-.394 1.447.225-2.937.17 1.49zm8.708-4.222l-.98-1.135.98 1.135zm3.672-4.211l-1.323-.706 2.128-3.989.678 4.47-1.483.225zm.386 2.545l1.483-.225.058.378-.131.359-1.41-.512zm-8.831 12.877l-.007 1.5-.543-2.896.55 1.396zm7.318-6.332l-1.241-.843 1.241.843zm1.88-3.319l-1.377-.596 2.874.5-1.497.096zm.243 3.797l1.497-.096-1.497.096zm-.306 1.908l-1.392-.559 1.392.559zm-1.782 4.436l1.392.559-1.392-.559zm-.271.557l-1.299-.75 1.299.75zm-1.015 1.759l1.299.75-.051.089-.063.081-1.185-.92zm-3.587 2.562l-.138 1.494-.288-2.932.425 1.438zm2.88-1.338l-.886-1.21 2.185 1.96-1.299-.75zm-1.478 2.56l1.3.75-1.3-.75zm-1.375 1.461l-.827-1.252.827 1.252zm-9.64 6.371l.827 1.251-.827-1.251zm-1.585.647l.287 1.472-.287-1.472zm-29.67 8.033l.756 1.295-.756-1.295zm-74.685 57.19l1.022 1.099-1.608 1.495-.808-2.041 1.394-.553zm59.969-75.627c-29.607 14.018-64.971 24.608-78.972 28.157l-.737-2.908c13.891-3.522 49.054-14.054 78.425-27.96l1.284 2.711zm7.074-10.026c-2.247 5.326-5.36 8.725-6.788 9.849l-1.856-2.357c.998-.786 3.814-3.762 5.88-8.658l2.764 1.166zm1.72-4.664c-.5 1.469-1.036 3.044-1.72 4.664l-2.763-1.166c.635-1.507 1.139-2.983 1.643-4.464l2.84.966zm7.187-11.055c-4.38 2.894-5.636 6.497-7.187 11.055l-2.84-.966c1.547-4.546 3.06-9.08 8.373-12.592l1.654 2.503zm10.476-5.487c-3.779 1.774-7.518 3.532-10.476 5.487l-1.654-2.503c3.176-2.099 7.13-3.951 10.856-5.7l1.274 2.716zm11.078-5.997c-2.887 2.161-7.032 4.099-11.078 5.997l-1.274-2.716c4.146-1.945 7.968-3.746 10.553-5.683l1.799 2.402zm3.87 1.209c.589-1.02.3-1.942-.091-2.273-.27-.228-1.37-.741-3.78 1.064l-1.798-2.402c2.833-2.121 5.629-2.543 7.512-.955 1.762 1.485 1.887 4.106.755 6.066l-2.598-1.5zm-.904 1.914c.216-.53.48-1.18.904-1.914l2.598 1.5c-.311.539-.508 1.016-.725 1.548l-2.777-1.134zm-7.27 5.75c3.266-1.523 4.9-2.591 5.804-3.433.83-.774 1.084-1.383 1.466-2.317l2.777 1.134c-.416 1.018-.869 2.139-2.198 3.378-1.257 1.171-3.237 2.398-6.582 3.957l-1.267-2.719zm-4.599 5.98c-.4-1.136-.111-2.303.725-3.319.78-.946 2.066-1.818 3.874-2.661l1.267 2.719c-1.649.769-2.464 1.411-2.825 1.849-.17.206-.206.327-.214.362a.075.075 0 00.003.054l-2.83.996zm6.994 2.466c-1.035.159-2.401.298-3.652.086-1.265-.215-2.749-.865-3.342-2.552l2.83-.996c.077.221.27.464 1.014.59.757.129 1.73.055 2.694-.093l.456 2.965zm7.981-1.226l-7.981 1.226-.456-2.965 7.982-1.226.455 2.965zm8.805-1.346l-8.806 1.346-.453-2.965 8.805-1.346.454 2.965zm4.197-2.868a5.869 5.869 0 01-4.197 2.868l-.454-2.965a2.872 2.872 0 002.053-1.403l2.598 1.5zm3.251-5.631l-3.251 5.631-2.598-1.5 3.25-5.631 2.599 1.5zm.923 1.308c.064-1.054-.059-1.555-.144-1.743-.034-.076-.041-.055.016-.01.061.048.129.07.17.076.035.005-.09-.013-.406.144a4.113 4.113 0 00-.863.597l-1.991-2.243a7.111 7.111 0 011.523-1.043c.551-.273 1.324-.542 2.154-.426.961.135 1.716.745 2.134 1.675.375.835.478 1.904.402 3.154l-2.995-.181zm-.635 6.776c.198-1.43.451-3.724.635-6.776l2.995.181c-.189 3.123-.449 5.495-.658 7.006l-2.972-.411zm-11.148 9.753c.808-.092 1.776-.488 2.866-1.195 1.078-.699 2.188-1.645 3.268-2.719 2.16-2.148 4.085-4.694 5.247-6.458l2.506 1.65c-1.246 1.891-3.297 4.608-5.638 6.936-1.171 1.164-2.444 2.26-3.75 3.108-1.294.839-2.712 1.494-4.16 1.658l-.34-2.98zm9.857-1.597c-2.42 2.091-4.497 3.312-6.158 3.973-1.594.634-2.979.819-3.924.561l.789-2.894c-.025-.007.127.031.512-.023.362-.051.869-.175 1.514-.432 1.29-.513 3.083-1.535 5.306-3.455l1.961 2.27zm4.016-4.64c-.71 1.329-1.971 2.875-4.016 4.64l-1.96-2.27c1.871-1.617 2.849-2.884 3.329-3.782l2.647 1.412zm-2.421 2.064l-.386-2.545 2.966-.45.386 2.545-2.966.45zm-7.898 11.256c1.462-.575 3.058-2.326 4.56-4.778 1.455-2.374 2.647-5.111 3.412-7.216l2.819 1.025c-.81 2.229-2.081 5.162-3.672 7.758-1.543 2.519-3.576 5.04-6.02 6.002l-1.099-2.791zm9.109-4.093c-1.797 2.646-3.487 4.362-4.92 5.431-1.376 1.025-2.665 1.562-3.646 1.558l.014-3c-.026 0 .13-.003.489-.155.336-.143.793-.394 1.35-.809 1.112-.829 2.58-2.281 4.231-4.711l2.482 1.686zm2.015-3.566c-.452 1.045-1.107 2.228-2.015 3.566l-2.482-1.686c.825-1.215 1.381-2.233 1.744-3.072l2.753 1.192zm-2.63 3.297l-.243-3.797 2.994-.192.243 3.797-2.994.192zm-.201 1.253c.16-.398.228-.826.201-1.253l2.994-.192a5.878 5.878 0 01-.411 2.563l-2.784-1.118zm-1.782 4.436l1.782-4.436 2.784 1.118-1.782 4.436-2.784-1.118zm-.178.366c.068-.117.128-.24.178-.366l2.784 1.118a5.864 5.864 0 01-.363.748l-2.599-1.5zm-1.015 1.759l1.015-1.759 2.599 1.5-1.016 1.759-2.598-1.5zm2.484 1.67c-1.062 1.369-2.457 2.521-4.347 3.081l-.851-2.877c1.151-.341 2.054-1.045 2.828-2.043l2.37 1.839zm-4.635.149c-.105-.01-.118.013.008-.023.11-.031.266-.09.469-.186a8.99 8.99 0 001.38-.846l1.773 2.42c-.605.443-1.254.844-1.864 1.135-.532.253-1.3.555-2.04.487l.274-2.987zm-.034 1.965l1.478-2.56 2.598 1.5-1.477 2.56-2.599-1.5zm-.903.959a2.87 2.87 0 00.904-.959l2.598 1.5a5.88 5.88 0 01-1.848 1.962l-1.654-2.503zm-9.64 6.371l9.64-6.371 1.654 2.503-9.64 6.371-1.654-2.503zm-1.046.427c.376-.073.73-.218 1.046-.427l1.654 2.503a5.894 5.894 0 01-2.125.868l-.575-2.944zM55.8 180.788c1.31-.764 3.348-1.541 5.692-2.295 2.376-.763 5.178-1.536 8.083-2.271 5.811-1.472 12.1-2.81 16.363-3.643l.575 2.944c-4.226.826-10.458 2.153-16.202 3.607-2.873.727-5.608 1.483-7.902 2.22-2.326.747-4.092 1.442-5.097 2.029l-1.512-2.591zm-74.95 57.388c4.35-4.046 21.602-17.525 38.421-30.365 8.43-6.436 16.781-12.733 23.401-17.641 6.574-4.874 11.54-8.455 13.128-9.382l1.512 2.591c-1.406.821-6.2 4.268-12.853 9.2-6.606 4.898-14.946 11.187-23.368 17.616-16.885 12.891-33.983 26.258-38.198 30.178l-2.043-2.197zm-16.956-48.378l19.372 48.924-2.79 1.105-19.37-48.925 2.788-1.104z" fill="#000" mask="url(#b)"/><mask id="c" maskUnits="userSpaceOnUse" x="115.986" y="-52.33" width="191" height="120" fill="#000"><path fill="#fff" d="M115.986-52.33h191v120h-191z"/><path fill-rule="evenodd" clip-rule="evenodd" d="M302.083-23.588c-13.945 3.536-91.412 36.61-120.901 50.57-1.213.956-4.178 4.144-6.335 9.255-.66 1.563-1.179 3.089-1.681 4.564-1.549 4.551-2.934 8.62-7.78 11.823-3.068 2.027-6.914 3.832-10.666 5.593-4.096 1.922-8.08 3.792-10.816 5.84-5.242 3.926-7.789-.18-6.069-3.16.368-.636.598-1.2.815-1.73.797-1.953 1.413-3.461 8.025-6.543 3.457-1.612 4.202-3.028 3.817-4.123-.67-1.907-3.353-1.788-5.351-1.481l-7.981 1.226-8.805 1.346a4.37 4.37 0 00-3.125 2.135l-3.251 5.631c-1.356 1.203-3.999 2.459-3.72-2.148.186-3.087.443-5.42.647-6.89 2.407-3.657 7.951-10.526 12.464-11.039-.967-.263-4.063.212-8.707 4.222-1.958 1.691-3.078 3.098-3.673 4.212l-.386-2.545c1.575-4.334 4.926-11.34 8.832-12.877-1.003-.005-3.871 1.256-7.319 6.332-.866 1.276-1.471 2.377-1.879 3.319l-.243-3.798a4.366 4.366 0 01.306-1.907l1.781-4.437c.077-.192.168-.378.271-.557l1.017-1.76c.917-1.183 2.066-2.111 3.586-2.56-.61-.057-1.787.536-2.881 1.337l1.478-2.56a4.377 4.377 0 011.375-1.46l9.64-6.371a4.405 4.405 0 011.586-.648c8.49-1.658 25.041-5.33 29.67-8.032C171.81 3.695 231.942-42.035 240.508-50l61.575 26.412z"/></mask><path fill-rule="evenodd" clip-rule="evenodd" d="M302.083-23.588c-13.945 3.536-91.412 36.61-120.901 50.57-1.213.956-4.178 4.144-6.335 9.255-.66 1.563-1.179 3.089-1.681 4.564-1.549 4.551-2.934 8.62-7.78 11.823-3.068 2.027-6.914 3.832-10.666 5.593-4.096 1.922-8.08 3.792-10.816 5.84-5.242 3.926-7.789-.18-6.069-3.16.368-.636.598-1.2.815-1.73.797-1.953 1.413-3.461 8.025-6.543 3.457-1.612 4.202-3.028 3.817-4.123-.67-1.907-3.353-1.788-5.351-1.481l-7.981 1.226-8.805 1.346a4.37 4.37 0 00-3.125 2.135l-3.251 5.631c-1.356 1.203-3.999 2.459-3.72-2.148.186-3.087.443-5.42.647-6.89 2.407-3.657 7.951-10.526 12.464-11.039-.967-.263-4.063.212-8.707 4.222-1.958 1.691-3.078 3.098-3.673 4.212l-.386-2.545c1.575-4.334 4.926-11.34 8.832-12.877-1.003-.005-3.871 1.256-7.319 6.332-.866 1.276-1.471 2.377-1.879 3.319l-.243-3.798a4.366 4.366 0 01.306-1.907l1.781-4.437c.077-.192.168-.378.271-.557l1.017-1.76c.917-1.183 2.066-2.111 3.586-2.56-.61-.057-1.787.536-2.881 1.337l1.478-2.56a4.377 4.377 0 011.375-1.46l9.64-6.371a4.405 4.405 0 011.586-.648c8.49-1.658 25.041-5.33 29.67-8.032C171.81 3.695 231.942-42.035 240.508-50l61.575 26.412z" fill="#fff"/><path d="M181.182 26.983l-.928-1.179.133-.104.153-.073.642 1.356zm120.901-50.571l.592-1.378 4.067 1.744-4.29 1.088-.369-1.454zM174.847 36.237l-1.382-.584 1.382.584zm-1.681 4.564l1.42.483-1.42-.483zm-7.78 11.823l.827 1.251-.827-1.251zm-10.666 5.593l.637 1.358-.637-1.358zm-10.816 5.84l-.899-1.2.899 1.2zm-6.069-3.16l-1.299-.75 1.299.75zm.815-1.73l1.389.567-1.389-.568zm8.025-6.543l.634 1.36-.634-1.36zm3.817-4.123l-1.415.498 1.415-.498zm-5.351-1.481l-.227-1.483.227 1.483zm-7.981 1.226l.228 1.482h-.001l-.227-1.482zm-8.805 1.346l-.227-1.483.227 1.483zm-3.125 2.135l-1.299-.75 1.299.75zm-3.251 5.631l1.299.75-.122.21-.182.162-.995-1.122zm-3.72-2.148l1.497.09-1.497-.09zm.647-6.89l-1.486-.207.046-.336.187-.283 1.253.825zM131.37 37.28l.395-1.447-.225 2.938-.17-1.49zm-8.707 4.222l-.981-1.135.981 1.135zm-3.673 4.212l1.324.706-2.128 3.989-.679-4.47 1.483-.225zm-.386-2.545l-1.483.225-.057-.378.13-.36 1.41.513zm8.832-12.877l.006-1.5.543 2.896-.549-1.396zm-7.319 6.332l-1.24-.843 1.24.843zm-1.879 3.319l1.376.596-2.873-.5 1.497-.096zm-.243-3.798l1.497-.095-1.497.095zm.306-1.907l1.392.559-1.392-.56zm1.781-4.437l-1.392-.559 1.392.56zm.271-.557l-1.299-.75 1.299.75zm1.017-1.76l-1.299-.75.051-.089.063-.08 1.185.919zm3.586-2.56l.137-1.495.288 2.933-.425-1.439zm-2.881 1.337l.887 1.21-2.186-1.96 1.299.75zm1.478-2.56l-1.299-.75 1.299.75zm1.375-1.46l.827 1.251-.827-1.251zm9.64-6.371l.827 1.251-.827-1.251zm1.586-.648l-.288-1.472.288 1.472zm29.67-8.032l-.757-1.295.757 1.295zM240.508-50l-1.021-1.099.715-.665.898.386-.592 1.378zM180.54 25.627c14.773-6.994 41.535-18.763 66.338-29.222 12.404-5.23 24.329-10.137 34.028-13.959 9.659-3.806 17.211-6.576 20.809-7.488l.737 2.908c-3.375.856-10.737 3.546-20.446 7.372-9.67 3.81-21.57 8.707-33.962 13.932-24.789 10.452-51.505 22.201-66.22 29.168l-1.284-2.711zm-7.075 10.026c2.248-5.325 5.361-8.725 6.789-9.849l1.856 2.357c-.998.786-3.815 3.763-5.881 8.659l-2.764-1.167zm-1.719 4.664c.5-1.468 1.035-3.044 1.719-4.664l2.764 1.167c-.636 1.507-1.139 2.983-1.643 4.464l-2.84-.967zm-7.187 11.056c4.379-2.895 5.636-6.498 7.187-11.056l2.84.967c-1.547 4.546-3.06 9.08-8.373 12.591l-1.654-2.502zm-10.477 5.486c3.779-1.773 7.518-3.531 10.477-5.486l1.654 2.502c-3.177 2.1-7.131 3.952-10.856 5.7l-1.275-2.716zm-11.077 5.998c2.886-2.161 7.032-4.1 11.077-5.998l1.275 2.716c-4.146 1.946-7.968 3.747-10.554 5.683l-1.798-2.401zm-3.871-1.21c-.588 1.02-.3 1.943.092 2.273.27.229 1.369.741 3.779-1.063l1.798 2.401c-2.833 2.121-5.628 2.544-7.511.956-1.762-1.486-1.887-4.106-.756-6.066l2.598 1.5zm.905-1.913c-.217.53-.48 1.179-.905 1.914l-2.598-1.5c.312-.54.508-1.017.725-1.549l2.778 1.135zm7.27-5.75c-3.267 1.522-4.9 2.59-5.804 3.432-.831.775-1.085 1.384-1.466 2.318l-2.778-1.135c.416-1.018.869-2.139 2.199-3.377 1.256-1.171 3.236-2.398 6.581-3.958l1.268 2.72zm4.599-5.98c.399 1.135.111 2.303-.726 3.319-.779.945-2.065 1.818-3.873 2.66l-1.268-2.719c1.649-.768 2.464-1.41 2.826-1.849.169-.206.206-.327.214-.361a.079.079 0 00-.004-.055l2.831-.995zm-6.994-2.467c1.034-.158 2.401-.298 3.652-.085 1.265.214 2.748.865 3.342 2.552l-2.831.995c-.077-.22-.27-.464-1.013-.59-.758-.128-1.731-.054-2.695.094l-.455-2.966zm-7.982 1.226l7.982-1.226.455 2.966-7.981 1.225-.456-2.965zm-8.804 1.346l8.806-1.346.453 2.966-8.806 1.346-.453-2.966zm-4.197 2.868a5.87 5.87 0 014.197-2.868l.453 2.966a2.872 2.872 0 00-2.052 1.402l-2.598-1.5zm-3.251 5.631l3.251-5.63 2.598 1.5-3.251 5.63-2.598-1.5zm-.924-1.307c-.064 1.053.059 1.554.144 1.742.034.077.042.055-.015.01a.381.381 0 00-.171-.076c-.034-.005.09.013.407-.143.287-.143.597-.363.862-.598l1.991 2.244a7.086 7.086 0 01-1.522 1.042c-.552.273-1.325.543-2.155.426-.961-.135-1.715-.744-2.133-1.675-.375-.834-.478-1.904-.402-3.153l2.994.18zm.635-6.776c-.198 1.43-.45 3.724-.635 6.776l-2.994-.181c.188-3.123.448-5.495.658-7.007l2.971.412zm11.149-9.753c-.808.092-1.776.488-2.867 1.195-1.077.699-2.187 1.645-3.267 2.718-2.161 2.15-4.086 4.695-5.248 6.46l-2.505-1.65c1.245-1.892 3.296-4.61 5.638-6.937 1.171-1.165 2.443-2.26 3.75-3.108 1.294-.84 2.711-1.494 4.16-1.659l.339 2.98zm-9.858 1.596c2.421-2.09 4.497-3.311 6.159-3.972 1.594-.635 2.978-.82 3.924-.562l-.789 2.895c.025.006-.128-.032-.512.022-.362.051-.869.175-1.514.432-1.29.513-3.084 1.536-5.307 3.456l-1.961-2.27zm-4.015 4.64c.709-1.329 1.971-2.874 4.015-4.64l1.961 2.27c-1.872 1.617-2.85 2.884-3.329 3.783l-2.647-1.412zm2.42-2.063l.386 2.545-2.966.45-.386-2.545 2.966-.45zm7.898-11.256c-1.462.575-3.058 2.325-4.56 4.777-1.455 2.375-2.646 5.111-3.411 7.216l-2.82-1.025c.81-2.228 2.082-5.161 3.673-7.758 1.543-2.519 3.575-5.04 6.019-6.002l1.099 2.792zm-9.108 4.093c1.797-2.646 3.486-4.363 4.92-5.431 1.376-1.025 2.665-1.563 3.645-1.558l-.013 3c.026 0-.131.002-.489.154-.337.143-.794.394-1.35.81-1.113.829-2.581 2.28-4.232 4.71l-2.481-1.685zm-2.016 3.566c.453-1.045 1.107-2.229 2.016-3.566l2.481 1.686c-.825 1.214-1.38 2.233-1.744 3.072l-2.753-1.193zm2.631-3.297l.243 3.797-2.994.191-.243-3.797 2.994-.191zm.201-1.253c-.16.397-.229.825-.201 1.253l-2.994.191a5.861 5.861 0 01.411-2.562l2.784 1.118zm1.781-4.437l-1.781 4.437-2.784-1.118 1.781-4.437 2.784 1.118zm.178-.366c-.068.118-.127.24-.178.366l-2.784-1.118c.104-.257.225-.507.364-.748l2.598 1.5zm1.017-1.76l-1.017 1.76-2.598-1.5 1.017-1.76 2.598 1.5zm-2.484-1.67c1.061-1.368 2.456-2.52 4.345-3.08l.851 2.878c-1.151.34-2.053 1.044-2.826 2.041l-2.37-1.839zm4.633-.147c.106.01.118-.013-.008.022-.109.031-.266.09-.468.186a8.959 8.959 0 00-1.38.846l-1.773-2.42a11.948 11.948 0 011.864-1.135c.531-.253 1.299-.555 2.04-.487l-.275 2.988zm.034-1.965l-1.478 2.56-2.598-1.5 1.478-2.56 2.598 1.5zm.903-.96c-.371.246-.68.574-.903.96l-2.598-1.5a5.873 5.873 0 011.847-1.962l1.654 2.502zm9.64-6.37l-9.64 6.37-1.654-2.502 9.64-6.372 1.654 2.503zm1.046-.428c-.376.074-.73.218-1.046.427l-1.654-2.503a5.905 5.905 0 012.125-.868l.575 2.944zm30.139-8.209c-1.31.765-3.348 1.542-5.692 2.295-2.377.763-5.178 1.536-8.083 2.272-5.812 1.471-12.1 2.81-16.364 3.642l-.575-2.944c4.226-.825 10.459-2.152 16.203-3.606 2.872-.728 5.607-1.483 7.901-2.22 2.327-.748 4.093-1.443 5.097-2.03l1.513 2.591zm74.95-57.388c-4.351 4.046-21.602 17.526-38.421 30.366-8.43 6.435-16.782 12.732-23.402 17.641-6.573 4.874-11.54 8.454-13.127 9.381l-1.513-2.59c1.406-.822 6.201-4.268 12.853-9.2 6.606-4.899 14.946-11.187 23.368-17.617 16.885-12.89 33.983-26.258 38.199-30.178l2.043 2.197zm59.962 26.693l-61.575-26.412 1.183-2.758 61.575 26.412-1.183 2.758z" fill="#000" mask="url(#c)"/></g></svg>