<svg width="272" height="116" fill="none" xmlns="http://www.w3.org/2000/svg"><path d="M25.5 116v-15.87h9.997c1.1 0 1.974-.322 2.62-.967.713-.58 1.069-1.387 1.069-2.42V46.233h18.538v54.286c0 4.773-1.391 8.547-4.173 11.321C50.832 114.613 46.983 116 42 116H25.5zm23.003-74.897c-2.717 0-5.047-.967-6.988-2.903-1.941-2-2.912-4.322-2.912-6.967 0-2.71.97-5.031 2.912-6.967 1.941-2 4.27-3 6.988-3 2.718 0 5.047 1 6.989 3 1.94 1.936 2.912 4.258 2.912 6.967 0 2.645-.971 4.968-2.912 6.967-1.941 1.936-4.271 2.903-6.989 2.903zM92.399 97.615c-5.241 0-9.836-.968-13.783-2.903-3.947-2-7.02-4.677-9.22-8.032-2.2-3.419-3.3-7.29-3.3-11.612V46.232h18.538v27.675c0 1.161.291 2.29.874 3.387.582 1.097 1.423 2 2.523 2.71 1.165.644 2.491.967 3.98.967 1.488 0 2.75-.323 3.785-.968 1.1-.71 1.941-1.612 2.524-2.71.582-1.096.873-2.225.873-3.386V46.232h18.636v28.836c0 4.322-1.036 8.193-3.106 11.612-2.006 3.355-4.918 6.032-8.736 8.032-3.817 1.935-8.347 2.903-13.588 2.903zM126.095 96.357v-13.16h23.488c.518 0 .939-.097 1.262-.29.324-.259.583-.55.777-.872.194-.387.291-.774.291-1.16 0-.388-.097-.743-.291-1.065-.194-.387-.453-.678-.777-.871-.323-.194-.744-.29-1.262-.29h-7.57c-3.3 0-6.309-.549-9.027-1.645-2.718-1.162-4.885-2.936-6.503-5.323-1.553-2.451-2.329-5.58-2.329-9.386 0-2.967.711-5.645 2.135-8.031 1.488-2.452 3.494-4.387 6.018-5.806 2.523-1.484 5.306-2.226 8.347-2.226h25.527v13.16h-21.159c-.648 0-1.198.226-1.65.677a2.305 2.305 0 00-.583 1.549c0 .58.194 1.096.583 1.548a2.247 2.247 0 001.65.677h6.988c3.753 0 6.988.581 9.706 1.742 2.782 1.097 4.918 2.839 6.406 5.226 1.488 2.386 2.232 5.483 2.232 9.289 0 2.968-.776 5.677-2.329 8.128-1.488 2.452-3.494 4.42-6.018 5.903-2.523 1.484-5.371 2.226-8.541 2.226h-27.371zM195.768 96.357c-4.918 0-8.768-1.387-11.55-4.161-2.782-2.774-4.174-6.548-4.174-11.322V34.62h18.636v44.512c0 .645.226 1.194.679 1.645.453.387 1.003.58 1.65.58h10.968v15h-16.209zM172.474 60.36V46.232h39.503V60.36h-39.503zM244.532 97.518c-5.047 0-9.674-1.097-13.88-3.29-4.141-2.194-7.473-5.258-9.997-9.193-2.459-4-3.688-8.58-3.688-13.74 0-5.162 1.229-9.71 3.688-13.645 2.524-3.935 5.888-6.999 10.094-9.192 4.206-2.258 8.833-3.387 13.88-3.387 5.047 0 9.641 1.129 13.783 3.387 4.141 2.193 7.441 5.257 9.9 9.192 2.459 3.936 3.688 8.483 3.688 13.644s-1.229 9.741-3.688 13.741c-2.459 3.935-5.792 7-9.997 9.193-4.142 2.193-8.736 3.29-13.783 3.29zm0-16.644c1.747 0 3.3-.42 4.659-1.258a8.262 8.262 0 003.106-3.387c.776-1.483 1.165-3.16 1.165-5.031 0-1.871-.389-3.516-1.165-4.935a8.262 8.262 0 00-3.106-3.387c-1.359-.839-2.912-1.258-4.659-1.258-1.747 0-3.3.42-4.659 1.258a8.969 8.969 0 00-3.203 3.387c-.776 1.419-1.165 3.064-1.165 4.935 0 1.87.389 3.548 1.165 5.031a8.969 8.969 0 003.203 3.387c1.359.839 2.912 1.258 4.659 1.258z" fill="#fff"/><path d="M51.611 7.492c-.583-.672-1.575-.733-2.217-.122-.175.183-17.508 16.496-28.246 9.103-4.26-2.932-5.31-10.02-5.31-10.081a1.53 1.53 0 00-1.284-1.405c-.642-.061-1.342.305-1.634.916-2.743 6.355-7.587 14.42-8.929 13.503-.117 0-.35-.244-.525-.672-.7-2.016-.467-4.216.525-6.11 2.218-4.766 6.303-8.187 11.205-9.47.525-.122.934-.55 1.109-1.1.175-.55 0-1.16-.35-1.589-.41-.366-.934-.55-1.46-.427C8.66 1.504 3.816 5.658 1.19 11.28c-1.4 2.75-1.576 6.049-.467 8.92.525 1.406 1.81 2.383 3.268 2.383h.058c2.86-.06 6.42-3.788 8.87-7.82a1.371 1.371 0 011.343-.672c.525 0 .992.305 1.226.794.992 1.71 2.334 3.177 3.968 4.216 12.722 8.86 31.222-8.615 32.038-9.349.292-.305.467-.733.467-1.1.059-.427-.116-.855-.35-1.16z" fill="#78E08F"/><path d="M98.042 6.33c-.234-.305-.642-.488-1.05-.488-.409 0-.818.122-1.11.428-8.053 8.004-21.3 9.715-30.812 10.326-.292.06-.467-.428-.292-.734a8.663 8.663 0 001.517-3.543c.467-3.3-1.4-6.477-4.493-7.393-2.743-1.161-5.72.61-8.988 5.132-.233.306-.525.183-.467-.183.234-1.833.467-3.605.7-5.255a1.616 1.616 0 00-.524-1.527 1.385 1.385 0 00-1.576-.245c-.525.184-.875.733-.934 1.283-.642 4.888-1.4 9.96-2.217 14.848-5.311 11.18-11.088 28.41-8.346 31.099.409.428.992.672 1.576.672.292 0 .525 0 .817-.122 3.326-1.222 6.536-16.314 8.929-30.794.058-.122.058-.183.117-.244A36.861 36.861 0 0157.54 9.325c.876-.856 2.16-1.833 3.152-1.405 1.984.855 2.86 2.138 2.568 3.849-.76 2.81-3.094 4.949-5.895 5.376-.35 0-.7.062-1.05.062-.817.122-1.4.855-1.4 1.71.116.856.758 1.467 1.575 1.467.409 0 .817 0 1.226-.061 1.108-.122 2.392-.184 3.851-.245 9.863-.61 26.436-1.527 36.416-11.486.35-.245.466-.672.525-1.1a1.71 1.71 0 00-.467-1.161zM41.843 45.558c.759-3.666 1.692-7.271 2.918-10.754-.7 3.666-1.692 7.21-2.918 10.754z" fill="#78E08F"/><path d="M144.033 6.33c-.233-.305-.642-.488-1.05-.488-.409 0-.817.122-1.109.428-8.054 8.004-21.301 9.715-30.813 10.326-.292.06-.467-.428-.292-.734a8.653 8.653 0 001.517-3.543c.467-3.3-1.4-6.477-4.493-7.393-2.743-1.161-5.719.61-8.987 5.132-.234.306-.526.183-.467-.183.233-1.833.467-3.605.7-5.255a1.616 1.616 0 00-.525-1.527 1.385 1.385 0 00-1.576-.245c-.525.184-.875.733-.934 1.283-.642 4.888-1.4 9.96-2.217 14.848-5.31 11.18-11.088 28.41-8.345 31.099.408.428.992.672 1.575.672.292 0 .526 0 .817-.122 3.327-1.222 6.536-16.314 8.93-30.794.057-.122.057-.183.116-.244a36.858 36.858 0 016.653-10.265c.875-.856 2.159-1.833 3.151-1.405 1.984.855 2.86 2.138 2.568 3.849-.759 2.81-3.093 4.949-5.894 5.376-.351 0-.701.062-1.051.062-.817.122-1.4.855-1.4 1.71.116.856.758 1.467 1.575 1.467.409 0 .817 0 1.226-.061 1.108-.122 2.392-.184 3.851-.245 9.863-.61 26.437-1.527 36.416-11.486.35-.245.467-.672.525-1.1 0-.428-.175-.856-.467-1.161zM87.834 45.558c.759-3.666 1.693-7.271 2.918-10.754-.7 3.666-1.692 7.21-2.918 10.754z" fill="#78E08F"/></svg>