<svg width="213" height="53" fill="none" xmlns="http://www.w3.org/2000/svg"><path d="M25.328 28.912a.771.771 0 00-.576-.224c-.224 0-.448.064-.608.224-3.84 3.84-9.28 5.6-14.624 4.704-.416-.096-.704-.48-.64-.896.256-1.536.128-3.104-.768-3.616-.576-.32-1.44-.352-2.464 1.376a2.63 2.63 0 00-.384 1.952c.16.672.576 1.28 1.152 1.632.352.288-.064.768-.288.992-.608.736-1.664.864-2.4.288a1.852 1.852 0 01-.992-2.368c.416-1.696 2.08-3.168 2.688-3.168a.847.847 0 00.832-.832c.032-.448-.352-.832-.8-.864h-.032c-1.6 0-3.744 2.176-4.32 4.448a3.511 3.511 0 001.824 4.256c.608.352 1.28.512 1.984.544a3.656 3.656 0 003.168-2.176.355.355 0 01.352-.128c4.064 1.216 11.488.448 16.896-4.928a.874.874 0 00.256-.608.874.874 0 00-.256-.608zM7.216 32.56a.895.895 0 01-.128-1.216c.096-.16.16-.256.224-.352.032.512 0 1.056-.096 1.568zM48.413 30a.874.874 0 00-.608-.256.771.771 0 00-.576.224c-4.736 4.544-11.648 3.008-16.288.416a2.71 2.71 0 00-.48-.96c-.608-.704-1.6-.96-2.432-.576a.797.797 0 00-.544.672c-.064.288.064.608.32.8.256.192.544.416.864.608.544.352.832.96.736 1.6-.128.832-.384 1.632-.832 2.368-.224.416-.544.768-.928 1.088a1.802 1.802 0 01-1.792.224c-.608-.224-1.024-.768-1.152-1.408a12.094 12.094 0 01-.032-2.848c.032 0 .064-.032.096-.064 2.816-2.496 12.064-16.704 10.336-20.352a1.96 1.96 0 00-2.24-1.024c-3.392.544-8.512 12.64-9.632 19.616-.704 4.288-.16 6.944 1.632 7.936l.32.096c.288.064.576.096.864.096 1.664-.064 3.2-.992 3.968-2.496a7.523 7.523 0 00.864-2.016c.064-.32.32-.608.608-.736.32-.16.672-.16.96-.032 4.96 2.08 11.296 2.656 15.936-1.792a.86.86 0 00.256-.576c0-.224-.064-.448-.224-.608zM33.117 12.176h.224c.192 0 .224.064.256.064.288.608-.128 3.2-3.392 9.056a74.328 74.328 0 01-4.32 6.688c-.064.096-.192.128-.32.064-.096-.064-.16-.192-.128-.288 1.824-7.392 6.048-15.328 7.68-15.584zm41.717 17.408a.801.801 0 00-.576-.256.874.874 0 00-.608.256c-5.536 5.408-15.36 6.56-17.472 5.312-1.44-.832-1.28-1.824-.256-3.808.48-.96 1.024-2.08.096-2.752-.864-.64-1.696-.224-2.432.16a6.937 6.937 0 01-3.488.928c-.288 0-.544-.512-.48-.704 1.792-3.936.992-4.672.704-4.96-.48-.48-1.216-.448-2.112.096-1.472 1.056-2.112 2.944-1.6 4.704.128.48.352.928.672 1.312a.818.818 0 00.448.832c.192.096.416.096.64.032a4.15 4.15 0 001.76.384c1.312.032 2.592-.256 3.744-.896.448-.224.608-.032.544.096-.768 1.504-2.144 4.256.928 6.048a6.986 6.986 0 003.52.64c4.48 0 11.52-1.92 15.936-6.24a.75.75 0 00.256-.576.73.73 0 00-.224-.608zm-26.656-1.76a2.553 2.553 0 01.864-2.496 18.12 18.12 0 01-.864 2.528v-.032zm46.058 1.536c-.352-.32-.864-.32-1.184.032-.128.096-10.496 10.656-17.376 5.632-2.112-1.536-.064-5.536-.032-5.568a.853.853 0 00-.384-1.12c-.416-.192-.896-.064-1.12.352-.128.192-2.72 5.28.544 7.68a8.578 8.578 0 005.248 1.696c6.912 0 13.92-7.136 14.304-7.52a.801.801 0 00.256-.576c-.032-.224-.096-.448-.256-.608zm-20.448-2.528a.852.852 0 00.384-.096 7.87 7.87 0 002.048-1.504.85.85 0 00-.032-1.184c-.352-.32-.864-.32-1.184.032a6.66 6.66 0 01-1.632 1.184.838.838 0 00-.416.928c.096.384.448.64.832.64zm41.64 2.752c-.352-.32-.896-.288-1.184.064-2.528 2.624-6.624 2.88-9.44.608-.672-.48-1.6-.448-2.208.128-.352.32-.736.672-1.12 1.088-1.216 1.376-1.44.224-1.44-.544 0-.672-.128-1.376-.352-2.016a.872.872 0 00-.8-.544c-.352.032-.64.224-.768.576-.896 2.496-2.816 6.144-4.16 6.4-.096.032-.352.064-.736-.352a3.58 3.58 0 01.352-2.496 7.209 7.209 0 016.08-4.672.853.853 0 00.8-.896.853.853 0 00-.896-.8 8.992 8.992 0 00-7.584 5.792c-.544 1.408-.864 3.264 0 4.192.576.704 1.44 1.024 2.304.864 1.6-.32 3.04-2.432 4.064-4.352a43.89 43.89 0 01-.288 2.528 1.083 1.083 0 01-.192.48c-3.744 4.736-7.136 10.464-7.2 14.08-.096.96.256 1.92.896 2.624.32.32.704.48 1.12.48.352 0 .704-.096.992-.288 2.112-1.408 4.8-9.632 5.856-16.16.032-.128.096-.256.192-.384a51.794 51.794 0 013.552-3.936.827.827 0 011.056-.096 8.706 8.706 0 0011.136-1.184c.288-.352.288-.864-.032-1.184zM94.116 49.136c-.736 1.472-.992 2.112-1.376 1.984-.384-.096-.416-.736-.384-1.376.064-2.464 4.352-10.816 4.96-10.56.608.256-1.984 7.424-3.2 9.952zm46.105-18.88a.86.86 0 00-1.216-.064c-.096.096-9.6 8.64-15.488 4.768-2.336-1.536-2.912-5.248-2.912-5.28-.032-.384-.32-.672-.704-.736-.352-.032-.736.16-.896.48-1.504 3.328-4.16 7.552-4.896 7.072-.064 0-.192-.128-.288-.352-.384-1.056-.256-2.208.288-3.2a9.307 9.307 0 016.144-4.96.849.849 0 00.608-.576c.096-.288 0-.608-.192-.832-.224-.192-.512-.288-.8-.224-3.2.768-5.856 2.944-7.296 5.888a5.556 5.556 0 00-.256 4.672c.288.736.992 1.248 1.792 1.248h.032c1.568-.032 3.52-1.984 4.864-4.096a.763.763 0 01.736-.352c.288 0 .544.16.672.416a6.529 6.529 0 002.176 2.208c6.976 4.64 17.12-4.512 17.568-4.896a.86.86 0 00.256-.576c.032-.224-.064-.448-.192-.608zm28.864.416c-.16-.16-.352-.224-.576-.256a.874.874 0 00-.608.256c-4.832 4.736-11.872 6.368-14.816 5.44-2.496-.8-3.648-3.072-4.16-5.472-.096-.544 0-1.056.288-1.504 3.84-6.528 7.904-15.936 6.495-18.208a1.47 1.47 0 00-1.503-.672c-3.552.448-6.592 7.808-7.2 14.368a25.824 25.824 0 00-.032 4.16c.032.448-.064.896-.32 1.28-.192.32-.416.672-.64.992-2.816 4.16-4.736 5.504-5.536 5.408a.96.96 0 01-.864-.704c-.32-1.632.064-3.296.992-4.64.672-.8 1.664-1.696 2.624-1.504.544.16.992.576 1.216 1.088.096.448.512.768.96.704a.84.84 0 00.704-.96 3.456 3.456 0 00-2.336-2.4c-.992-.32-2.592-.192-4.448 1.984-1.025 1.184-2.049 4.32-1.281 6.336.32.96 1.185 1.632 2.177 1.76h.32c1.696 0 3.84-1.824 6.368-5.44a.517.517 0 01.48-.192c.192 0 .352.128.416.288a7.484 7.484 0 004.768 4.928c3.776 1.184 11.456-.928 16.512-5.856.32-.32.32-.832 0-1.184zm-20.384-5.888c.512-5.856 2.848-11.008 4.832-12.48a.535.535 0 01.576 0c.16.096.256.288.256.48-.288 2.432-2.016 6.816-5.216 12.512-.512.832-.512.064-.448-.512zm42.565 4.128a.771.771 0 00-.576-.224c-.224 0-.448.064-.608.224-3.84 3.84-9.28 5.6-14.624 4.704-.416-.096-.704-.48-.64-.896.256-1.536.128-3.104-.768-3.616-.576-.32-1.44-.352-2.464 1.376a2.63 2.63 0 00-.384 1.952c.16.672.576 1.28 1.152 1.632.352.288-.064.768-.288.992-.608.736-1.664.864-2.4.288a1.852 1.852 0 01-.992-2.368c.416-1.696 2.08-3.168 2.688-3.168a.847.847 0 00.832-.832c.032-.448-.352-.832-.8-.864h-.032c-1.6 0-3.745 2.176-4.321 4.448a3.51 3.51 0 001.825 4.256c.608.352 1.28.512 1.984.544a3.656 3.656 0 003.168-2.176.355.355 0 01.352-.128c4.064 1.216 11.488.448 16.896-4.928a.874.874 0 00.256-.608.874.874 0 00-.256-.608zm-18.112 3.648a.895.895 0 01-.128-1.216c.096-.16.16-.256.224-.352.032.512 0 1.056-.096 1.568zM212.175.912a.92.92 0 00-.64-.16.954.954 0 00-.544.384 184.706 184.706 0 00-16.896 30.176.918.918 0 00.064.864c.192.224.48.384.8.32a.847.847 0 00.672-.512 182.989 182.989 0 0116.768-29.92c.128-.192.16-.416.128-.64-.064-.224-.192-.416-.352-.512zm-17.889 33.632a6.932 6.932 0 00-2.463 2.144c-.288.352-.224.896.16 1.152a.828.828 0 001.184-.16 5.353 5.353 0 011.792-1.6c.448-.16.64-.672.448-1.088a.902.902 0 00-1.121-.448z" fill="#78E08F"/></svg>