<svg width="560" height="141" viewBox="0 0 560 141" fill="none" xmlns="http://www.w3.org/2000/svg">
<path d="M33.1682 39.1994C117.316 -7.03642 235.549 -4.29884 409.084 39.4337C452.534 50.3835 484.714 56.5677 507.828 59.0249C519.384 60.2535 528.738 60.5577 536.135 60.0408C543.492 59.5267 549.123 58.1882 553.078 55.9673C557.15 53.6808 559.493 50.4131 559.927 46.3452C560.34 42.4665 558.97 38.2583 556.609 34.0052C551.879 25.4854 542.471 15.5557 530.934 5.33809C529.903 4.42467 528.322 4.51488 527.402 5.53973C526.483 6.56459 526.574 8.13602 527.605 9.0495C539.084 19.2156 547.936 28.6752 552.228 36.4066C554.378 40.2791 555.208 43.4119 554.952 45.8216C554.715 48.0421 553.517 50.0102 550.617 51.6389C547.599 53.3333 542.825 54.5894 535.784 55.0814C528.784 55.5705 519.748 55.2922 508.36 54.0815C485.587 51.6605 453.666 45.5399 410.314 34.6145C236.637 -9.15382 116.706 -12.3822 30.7472 34.8487C13.4611 44.3467 4.11852 54.7173 1.09666 65.2759C-1.95439 75.9367 1.61829 86.1208 8.62496 94.7407C15.6115 103.336 26.1575 110.595 37.6933 115.723C49.2393 120.855 61.9739 123.942 73.4685 124.028C74.85 124.038 75.9784 122.933 75.9888 121.561C75.9992 120.188 74.8876 119.066 73.5061 119.056C62.8201 118.976 50.7677 116.088 39.7364 111.185C28.6948 106.276 18.873 99.4363 12.517 91.6167C6.1811 83.822 3.43639 75.2754 5.90902 66.6359C8.41083 57.8942 16.4329 48.3948 33.1682 39.1994Z" fill="#FFBE00"/>
<path fill-rule="evenodd" clip-rule="evenodd" d="M117.917 118.816C116.132 118.184 114.253 117.344 112.803 116.127C111.082 114.682 110.382 112.821 109.912 110.862C109.653 109.78 109.461 108.668 109.267 107.551C109.011 106.07 108.753 104.58 108.336 103.143C108.069 102.221 107.56 101.864 107.331 101.703L107.32 101.695C106.755 101.299 106.183 101.193 105.645 101.232C105.008 101.278 104.132 101.518 103.557 102.58C103.475 102.732 103.368 102.963 103.296 103.28C103.288 103.318 103.28 103.368 103.272 103.428C103.265 103.484 103.258 103.548 103.251 103.617C103.242 103.703 103.234 103.797 103.226 103.892L103.225 103.899L103.225 103.902C103.218 103.974 103.212 104.045 103.206 104.115C103.203 104.147 103.2 104.179 103.197 104.21C103.192 104.258 103.187 104.304 103.182 104.347C103.173 104.421 103.164 104.487 103.154 104.54C103.016 105.278 102.9 106.017 102.791 106.759C102.755 107.005 102.72 107.248 102.686 107.487C102.378 109.65 102.106 111.555 101.076 113.599C99.5233 116.681 97.9675 118.566 95.8574 119.402C93.8171 120.209 91.3777 120.057 88.2609 119.424C87.9643 119.353 87.6708 119.292 87.3803 119.242C86.0061 119.003 84.6925 119.899 84.4226 121.26C84.1527 122.619 85.026 123.944 86.3879 124.243C86.6721 124.305 86.9523 124.364 87.2294 124.418C91.4413 125.454 96.3172 129.152 99.1508 132.39C99.5918 132.894 100.136 133.856 100.735 134.913C101.322 135.95 101.962 137.079 102.607 137.96C103.57 139.274 104.652 140.14 105.56 140.446C106.169 140.652 106.682 140.62 107.106 140.516C107.721 140.365 108.232 140.034 108.624 139.507C108.838 139.218 109.036 138.831 109.13 138.338C109.153 138.218 109.166 138.006 109.172 137.79C109.179 137.577 109.18 137.359 109.18 137.223C109.287 136.856 109.404 136.493 109.521 136.13L109.522 136.127C109.694 135.592 109.867 135.056 110.008 134.51C110.521 132.525 111.483 131.2 112.641 129.604L112.78 129.413C112.853 129.313 112.926 129.211 113.001 129.108C114.233 127.396 115.557 126.32 117.498 125.462C117.75 125.4 119.787 124.905 120.507 124.62C121.558 124.203 122.059 123.504 122.24 123.128C122.549 122.49 122.581 121.932 122.519 121.467C122.428 120.78 122.118 120.193 121.568 119.719C121.227 119.424 120.718 119.138 120.037 118.998C119.523 118.891 118.182 118.829 117.934 118.817L117.917 118.816ZM105.966 115.251C105.872 115.46 105.771 115.67 105.665 115.882C103.39 120.396 100.847 122.916 97.7561 124.139L97.6524 124.179C99.7204 125.704 101.592 127.409 103.023 129.044C103.522 129.614 104.158 130.705 104.854 131.897C104.979 132.112 105.106 132.33 105.235 132.549C106 130.076 107.252 128.328 108.827 126.141C110.029 124.471 111.29 123.215 112.838 122.191C111.637 121.578 110.49 120.86 109.492 120.022C107.829 118.626 106.73 117.008 105.966 115.251Z" fill="#FFBE00"/>
</svg>
