<svg width="40" height="40" viewBox="0 0 40 40" fill="none" xmlns="http://www.w3.org/2000/svg">
<path d="M31.2658 23.2911C33.2911 23.2911 34.9789 22.5148 36.3291 20.962C37.6793 19.4093 38.3544 17.6203 38.3544 15.5949C38.3544 13.2996 37.5443 11.4768 35.9241 10.1266C34.3038 8.70886 32.5823 8 30.7595 8C28.9367 8 27.1814 8.81013 25.4937 10.4304C23.7384 12.0506 22.8608 14.1097 22.8608 16.6076C22.8608 20.5907 24.1435 24.0675 26.7089 27.038C29.2743 30.0084 31.9072 31.6624 34.6076 32L35.4177 30.481C33.865 29.8734 32.1097 28.692 30.1519 26.9367C28.1266 25.1139 27.0464 23.3924 26.9114 21.7722C28.5992 22.7848 30.0506 23.2911 31.2658 23.2911ZM10.4051 23.2911C12.4304 23.2911 14.1181 22.5148 15.4684 20.962C16.8186 19.4093 17.4937 17.6203 17.4937 15.5949C17.4937 13.2996 16.6835 11.4768 15.0633 10.1266C13.443 8.70886 11.7215 8 9.89874 8C8.07595 8 6.32067 8.81013 4.63291 10.4304C2.87764 12.0506 2 14.1097 2 16.6076C2 20.5907 3.2827 24.0675 5.8481 27.038C8.4135 30.0084 11.0464 31.6624 13.7468 32L14.557 30.481C13.0042 29.8734 11.2489 28.692 9.29114 26.9367C7.26582 25.1139 6.18565 23.3924 6.05063 21.7722C7.7384 22.7848 9.18987 23.2911 10.4051 23.2911Z" fill="#6CE787"/>
</svg>
