<svg width="64" height="48" viewBox="0 0 64 48" fill="none" xmlns="http://www.w3.org/2000/svg">
<path d="M53.6598 30.3834C54.911 29.1057 56.1621 27.8279 57.4132 26.5501C57.9482 25.978 58.907 25.9498 59.487 26.4275C60.1093 26.9442 60.1727 27.8214 59.6373 28.3939C58.3931 29.6645 57.1488 30.9351 55.9045 32.2057C54.7496 33.3849 53.5947 34.5642 52.4398 35.7436C51.8618 36.2776 50.9483 36.3422 50.329 35.8227C49.7101 35.3029 49.6494 34.4229 50.227 33.8894C51.3713 32.7206 52.5156 31.552 53.6598 30.3834Z" fill="#FFBE00"/>
<path d="M32.3206 34.6814C32.3478 30.9777 32.1408 27.2777 31.9336 23.5749C31.6886 19.1945 31.4433 14.8104 31.5852 10.412C31.6279 9.67088 30.9753 9.02626 30.1589 9.00079C29.342 8.97571 28.636 9.55021 28.6354 10.3303C28.4865 14.735 28.7248 19.1253 28.963 23.5119C29.1643 27.2203 29.3654 30.926 29.3323 34.6353C29.3419 35.4061 30.0111 36.0351 30.8389 36.0501C31.624 36.0266 32.3302 35.4522 32.3206 34.6814Z" fill="#FFBE00"/>
<path d="M13.4605 36.9777C11.5124 33.7874 9.06446 30.8245 6.66928 27.9693C6.1514 27.3562 5.19584 27.2254 4.5802 27.7162C3.92194 28.1683 3.81939 29.0431 4.29508 29.6172C6.61885 32.3825 9.0033 35.2472 10.8528 38.2946C11.2443 38.9466 12.1589 39.1936 12.8844 38.8353C13.6095 38.4775 13.8515 37.63 13.4605 36.9777Z" fill="#FFBE00"/>
</svg>
