<svg width="96" height="96" viewBox="0 0 96 96" fill="none" xmlns="http://www.w3.org/2000/svg">
<path d="M68.6199 45.2171C71.1553 46.8345 71.1553 50.5369 68.6199 52.1543L40.6127 70.0209C37.8739 71.7681 34.2857 69.8009 34.2857 66.5523V30.8191C34.2857 27.5705 37.8739 25.6033 40.6127 27.3505L68.6199 45.2171Z" fill="white"/>
<path fill-rule="evenodd" clip-rule="evenodd" d="M96 48C96 74.5097 74.5097 96 48 96C21.4903 96 0 74.5097 0 48C0 21.4903 21.4903 0 48 0C74.5097 0 96 21.4903 96 48ZM87.7714 48C87.7714 69.9652 69.9652 87.7714 48 87.7714C26.0348 87.7714 8.22857 69.9652 8.22857 48C8.22857 26.0348 26.0348 8.22857 48 8.22857C69.9652 8.22857 87.7714 26.0348 87.7714 48Z" fill="white"/>
</svg>
