<svg width="140" height="141" viewBox="0 0 140 141" fill="none" xmlns="http://www.w3.org/2000/svg">
<ellipse cx="55.7643" cy="70.4285" rx="44.5641" ry="44.8" fill="#6CE787"/>
<line y1="-0.8" x2="7.17524" y2="-0.8" transform="matrix(0.705239 -0.70897 0.705239 0.70897 51.915 92.752)" stroke="black" stroke-width="1.6"/>
<line y1="-0.8" x2="7.18416" y2="-0.8" transform="matrix(-0.512499 -0.858688 0.85629 -0.516495 120.225 89.4819)" stroke="black" stroke-width="1.6"/>
<line x1="0.8" y1="-0.8" x2="7.66639" y2="-0.8" transform="matrix(0.893479 0.449105 -0.445326 0.895368 128.031 74.4395)" stroke="black" stroke-width="1.6" stroke-linecap="round"/>
<line x1="130.783" y1="45.6628" x2="130.783" y2="60.7052" stroke="black" stroke-width="1.6"/>
<line x1="113.868" y1="45.6628" x2="113.868" y2="60.7052" stroke="black" stroke-width="1.6"/>
<path d="M134.388 94.0601C134.388 101.93 128.043 108.302 120.225 108.302C112.407 108.302 106.062 101.93 106.062 94.0601C106.062 86.1903 112.407 79.8177 120.225 79.8177C128.043 79.8177 134.388 86.1903 134.388 94.0601Z" stroke="black" stroke-width="1.6"/>
<path d="M64.1262 94.0601C64.1262 101.93 57.7812 108.302 49.9631 108.302C42.145 108.302 35.8 101.93 35.8 94.0601C35.8 86.1903 42.145 79.8177 49.9631 79.8177C57.7812 79.8177 64.1262 86.1903 64.1262 94.0601Z" stroke="black" stroke-width="1.6"/>
<path d="M52.4159 94.3871C52.4159 95.9359 51.1681 97.1842 49.6377 97.1842C48.1074 97.1842 46.8596 95.9359 46.8596 94.3871C46.8596 92.8383 48.1074 91.59 49.6377 91.59C51.1681 91.59 52.4159 92.8383 52.4159 94.3871Z" stroke="black" stroke-width="1.6"/>
<path d="M99.2197 97.3411L65.1364 97.9641L45.9258 74.2909C54.3537 57.346 69.4742 56.2246 76.2909 56.2246C66.3758 68.6841 68.2348 84.0509 70.7136 89.8654H81.8682L88.0651 81.1437L83.2447 75.4901C82.2147 74.2821 83.0732 72.422 84.6607 72.422H97.3606L123.388 61.2084C123.884 67.6874 127.313 69.7224 128.965 69.9301L127.726 74.2909L99.2197 97.3411Z" fill="white" stroke="black" stroke-width="1.6"/>
<path d="M99.6833 97.1641L108.791 90.0424H120.887C122.853 90.0424 124.448 91.6367 124.448 93.6033C124.448 95.5699 122.853 97.1641 120.887 97.1641H99.6833Z" stroke="black" stroke-width="1.6"/>
<path d="M38.3038 76.9714C40.5508 75.4782 43.5973 74.73 45.9259 74.2911L49.6441 79.2749H39.2883C37.8439 79.2749 37.1008 77.7709 38.3038 76.9714Z" stroke="black" stroke-width="1.6"/>
<path d="M83.5339 69.0747L83.2068 69.7324C82.5915 70.9694 83.4913 72.4219 84.8729 72.4219H97.3616L124.008 60.5853H107.277L96.128 64.7145C95.7143 64.8677 95.2766 64.9462 94.8354 64.9462H90.1983C87.3734 64.9462 84.7919 66.5453 83.5339 69.0747Z" stroke="black" stroke-width="1.6"/>
<path d="M76.9109 55.6016H60.7988C60.7988 49.1226 65.3433 47.0875 67.6155 46.8799H73.1894C75.2447 46.8799 76.9109 48.5461 76.9109 50.6014V55.6016Z" stroke="black" stroke-width="1.6"/>
<path d="M133.298 60.5855H110.999C107.916 60.5855 105.417 58.0862 105.417 55.0031V37.5109C105.417 34.4279 107.916 31.9286 110.999 31.9286H133.298C136.381 31.9286 138.881 34.4279 138.881 37.5109V55.0032C138.881 58.0862 136.381 60.5855 133.298 60.5855Z" fill="#FFE493" stroke="black" stroke-width="1.6"/>
<path d="M105.417 40.65H138.881" stroke="black" stroke-width="1.6"/>
<path d="M68.8555 55.6017V40.0272M68.8555 40.0272V38.1339C68.8555 35.0508 71.3548 32.5515 74.4378 32.5515H75.6704C76.6981 32.5515 77.5312 33.3846 77.5312 34.4123V38.1665C77.5312 39.1941 76.6981 40.0272 75.6704 40.0272H68.8555Z" stroke="black" stroke-width="1.6"/>
</svg>
