<svg width="71" height="70" fill="none" xmlns="http://www.w3.org/2000/svg"><circle r="35" transform="matrix(-1 0 0 1 36 35)" fill="#fff"/><circle r="7.083" transform="matrix(-1 0 0 1 46.263 52.808)" stroke="#000" stroke-width=".921"/><circle r="7.083" transform="matrix(-1 0 0 1 10.43 52.808)" stroke="#000" stroke-width=".921"/><circle r="1.425" transform="matrix(-1 0 0 1 46.263 52.807)" stroke="#000" stroke-width=".921"/><path d="M21.117 54.38l17.288.314 9.744-11.945c-4.275-8.55-11.944-9.115-15.402-9.115 5.03 6.286 4.086 14.04 2.829 16.974h-5.658l-3.143-4.401 2.903-3.387a.614.614 0 00-.466-1.014H22.06L8.858 36.148c-.252 3.27-1.99 4.296-2.829 4.401l.629 2.2 14.459 11.63z" fill="#fff" stroke="#000" stroke-width=".921"/><path d="M28.71 39.392l.764 1.525a.614.614 0 01-.55.889H22.06L8.544 35.834h8.486l5.767 2.124c.136.05.28.076.425.076h3.292c.93 0 1.78.526 2.197 1.358z" stroke="#000" stroke-width=".921"/><path d="M2.842 35.834h13.29a1.842 1.842 0 001.842-1.842V23.217a1.842 1.842 0 00-1.843-1.842H2.842A1.842 1.842 0 001 23.217v10.775c0 1.017.825 1.842 1.842 1.842z" fill="#FFE493" stroke="#000" stroke-width=".921"/><path d="M17.974 25.775H1M32.433 33.319h8.172c0-3.269-2.305-4.296-3.457-4.4H33.66c-.678 0-1.228.55-1.228 1.227v3.173zM36.519 33.32V25.46m0 0v-1.93a1.842 1.842 0 00-1.842-1.842h-1.945a.614.614 0 00-.614.614v2.544c0 .34.275.614.614.614h3.787zM52.474 44.446c-1.153-.988-2.976-1.444-4.325-1.697l-1.886 2.515h5.83c.478 0 .743-.508.38-.819zM20.718 54.233l-4.474-3.48h-6.129a1.74 1.74 0 000 3.48h10.603zM10.825 50.53l1.886-3.143M45.332 51.853l-2.515-2.514" stroke="#000" stroke-width=".921"/><path stroke="#000" stroke-width=".921" stroke-linecap="round" d="M6.04 42.543L3.09 44.017"/><path stroke="#000" stroke-width=".921" d="M17.974 28.458H1M13.74 28.29v7.544M4.94 28.29v7.544"/></svg>