<svg width="26" height="26" fill="none" xmlns="http://www.w3.org/2000/svg"><path fill-rule="evenodd" clip-rule="evenodd" d="M13.375.5C6.475.5.875 6.1.875 13s5.6 12.5 12.5 12.5 12.5-5.6 12.5-12.5S20.275.5 13.375.5zm0 22.5c-5.513 0-10-4.488-10-10 0-5.513 4.487-10 10-10 5.512 0 10 4.487 10 10 0 5.512-4.488 10-10 10zM10.838 9.838c0 .912.712 1.525 2.925 2.087 2.2.575 4.562 1.525 4.574 4.275-.012 2.012-1.512 3.1-3.412 3.463v2.087H12v-2.125c-1.875-.387-3.45-1.587-3.575-3.713h2.15c.113 1.15.9 2.05 2.9 2.05 2.138 0 2.625-1.075 2.625-1.737 0-.9-.488-1.763-2.925-2.338-2.713-.65-4.575-1.774-4.575-4.012 0-1.888 1.513-3.112 3.4-3.513V4.25h2.912v2.138c2.025.5 3.05 2.037 3.113 3.712h-2.137c-.05-1.225-.7-2.05-2.425-2.05-1.638 0-2.625.737-2.625 1.787z" fill="#78E08F"/></svg>
