<svg width="24" height="24" fill="none" xmlns="http://www.w3.org/2000/svg"><path fill-rule="evenodd" clip-rule="evenodd" d="M15.125.75c0 .35-.275.625-.625.625a.619.619 0 01-.625-.625c0-.35.275-.625.625-.625s.625.275.625.625zM4.5 3.25c-.688 0-1.25.563-1.25 1.25 0 .688.563 1.25 1.25 1.25.688 0 1.25-.563 1.25-1.25 0-.688-.563-1.25-1.25-1.25zm0 5c-.688 0-1.25.563-1.25 1.25 0 .688.563 1.25 1.25 1.25.688 0 1.25-.563 1.25-1.25 0-.688-.563-1.25-1.25-1.25zM3.25 14.5c0-.688.563-1.25 1.25-1.25.688 0 1.25.563 1.25 1.25 0 .688-.563 1.25-1.25 1.25-.688 0-1.25-.563-1.25-1.25zm0 5c0-.688.563-1.25 1.25-1.25.688 0 1.25.563 1.25 1.25 0 .688-.563 1.25-1.25 1.25-.688 0-1.25-.563-1.25-1.25zM.125 9.5c0-.35.275-.625.625-.625s.625.275.625.625-.275.625-.625.625A.619.619 0 01.125 9.5zm23.75 0c0 .35-.275.625-.625.625a.619.619 0 01-.625-.625c0-.35.275-.625.625-.625s.625.275.625.625zM14.5 5.75c.688 0 1.25-.563 1.25-1.25 0-.688-.563-1.25-1.25-1.25-.688 0-1.25.563-1.25 1.25 0 .688.563 1.25 1.25 1.25zM.75 13.875a.619.619 0 00-.625.625c0 .35.275.625.625.625s.625-.275.625-.625a.619.619 0 00-.625-.625zm8.125 9.375c0-.35.275-.625.625-.625s.625.275.625.625-.275.625-.625.625a.619.619 0 01-.625-.625zM9.5 1.375c.35 0 .625-.275.625-.625A.619.619 0 009.5.125a.619.619 0 00-.625.625c0 .35.275.625.625.625zM10.75 4.5c0 .688-.563 1.25-1.25 1.25-.688 0-1.25-.563-1.25-1.25 0-.688.563-1.25 1.25-1.25.688 0 1.25.563 1.25 1.25zM9.5 12.625A1.872 1.872 0 007.625 14.5c0 1.037.838 1.875 1.875 1.875a1.872 1.872 0 001.875-1.875A1.872 1.872 0 009.5 12.625zm8.75 1.875c0-.688.563-1.25 1.25-1.25.688 0 1.25.563 1.25 1.25 0 .688-.563 1.25-1.25 1.25-.688 0-1.25-.563-1.25-1.25zm1.25 3.75c-.688 0-1.25.563-1.25 1.25 0 .688.563 1.25 1.25 1.25.688 0 1.25-.563 1.25-1.25 0-.688-.563-1.25-1.25-1.25zM18.25 9.5c0-.688.563-1.25 1.25-1.25.688 0 1.25.563 1.25 1.25 0 .688-.563 1.25-1.25 1.25-.688 0-1.25-.563-1.25-1.25zm1.25-6.25c-.688 0-1.25.563-1.25 1.25 0 .688.563 1.25 1.25 1.25.688 0 1.25-.563 1.25-1.25 0-.688-.563-1.25-1.25-1.25zm3.125 11.25c0-.35.275-.625.625-.625s.625.275.625.625-.275.625-.625.625a.619.619 0 01-.625-.625zM14.5 18.25c-.688 0-1.25.563-1.25 1.25 0 .688.563 1.25 1.25 1.25.688 0 1.25-.563 1.25-1.25 0-.688-.563-1.25-1.25-1.25zm-.625 5c0-.35.275-.625.625-.625s.625.275.625.625-.275.625-.625.625a.619.619 0 01-.625-.625zM9.5 7.625A1.872 1.872 0 007.625 9.5c0 1.037.838 1.875 1.875 1.875A1.872 1.872 0 0011.375 9.5 1.872 1.872 0 009.5 7.625zM8.25 19.5c0-.688.563-1.25 1.25-1.25.688 0 1.25.563 1.25 1.25 0 .688-.563 1.25-1.25 1.25-.688 0-1.25-.563-1.25-1.25zm6.25-6.875a1.872 1.872 0 00-1.875 1.875c0 1.037.838 1.875 1.875 1.875a1.872 1.872 0 001.875-1.875 1.872 1.872 0 00-1.875-1.875zM12.625 9.5c0-1.037.838-1.875 1.875-1.875s1.875.838 1.875 1.875a1.872 1.872 0 01-1.875 1.875A1.872 1.872 0 0112.625 9.5z" fill="#FFBE00"/></svg>
