<svg width="168" height="72" viewBox="0 0 168 72" fill="none" xmlns="http://www.w3.org/2000/svg">
<path d="M15.75 72V62.15H21.9248C22.6042 62.15 23.1437 61.9498 23.5434 61.5493C23.983 61.189 24.2028 60.6885 24.2028 60.0478V28.6958H35.6531V62.3902C35.6531 65.3532 34.7938 67.6956 33.0753 69.4174C31.3967 71.1391 29.0187 72 25.9413 72H15.75ZM29.9579 25.5125C28.2794 25.5125 26.8406 24.9119 25.6416 23.7107C24.4426 22.4694 23.8431 21.0279 23.8431 19.3863C23.8431 17.7046 24.4426 16.2631 25.6416 15.0618C26.8406 13.8206 28.2794 13.2 29.9579 13.2C31.6365 13.2 33.0753 13.8206 34.2743 15.0618C35.4732 16.2631 36.0727 17.7046 36.0727 19.3863C36.0727 21.0279 35.4732 22.4694 34.2743 23.7107C33.0753 24.9119 31.6365 25.5125 29.9579 25.5125Z" fill="#6CE787"/>
<path d="M57.0699 60.5884C53.8326 60.5884 50.9951 59.9878 48.5571 58.7865C46.1192 57.5453 44.2208 55.8836 42.862 53.8014C41.5031 51.6793 40.8237 49.2768 40.8237 46.5941V28.6958H52.274V45.8733C52.274 46.5941 52.4538 47.2948 52.8135 47.9755C53.1732 48.6562 53.6928 49.2167 54.3722 49.6572C55.0916 50.0576 55.9109 50.2578 56.8301 50.2578C57.7493 50.2578 58.5286 50.0576 59.1681 49.6572C59.8475 49.2167 60.3671 48.6562 60.7268 47.9755C61.0865 47.2948 61.2663 46.5941 61.2663 45.8733V28.6958H72.7765V46.5941C72.7765 49.2768 72.1371 51.6793 70.8582 53.8014C69.6192 55.8836 67.8207 57.5453 65.4628 58.7865C63.1048 59.9878 60.3071 60.5884 57.0699 60.5884Z" fill="#6CE787"/>
<path d="M77.882 59.8076V51.6392H92.3897C92.7094 51.6392 92.9692 51.5792 93.1691 51.459C93.3689 51.2989 93.5287 51.1187 93.6487 50.9185C93.7685 50.6782 93.8285 50.438 93.8285 50.1977C93.8285 49.9575 93.7685 49.7373 93.6487 49.5371C93.5287 49.2968 93.3689 49.1166 93.1691 48.9965C92.9692 48.8764 92.7094 48.8163 92.3897 48.8163H87.7137C85.6754 48.8163 83.817 48.476 82.1384 47.7953C80.4599 47.0746 79.121 45.9734 78.1218 44.4919C77.1627 42.9704 76.6831 41.0284 76.6831 38.666C76.6831 36.8241 77.1227 35.1624 78.0019 33.6809C78.9212 32.1593 80.1601 30.9581 81.7188 30.0772C83.2775 29.1563 84.996 28.6958 86.8744 28.6958H102.641V36.8641H89.5721C89.1725 36.8641 88.8327 37.0043 88.553 37.2846C88.3132 37.5648 88.1933 37.8852 88.1933 38.2455C88.1933 38.6059 88.3132 38.9262 88.553 39.2065C88.8327 39.4868 89.1725 39.6269 89.5721 39.6269H93.8885C96.2065 39.6269 98.2048 39.9873 99.8834 40.7081C101.602 41.3888 102.921 42.4699 103.84 43.9514C104.759 45.4329 105.219 47.3548 105.219 49.7173C105.219 51.5591 104.739 53.2409 103.78 54.7624C102.861 56.284 101.622 57.5052 100.063 58.4262C98.5045 59.3471 96.746 59.8076 94.7877 59.8076H77.882Z" fill="#6CE787"/>
<path d="M120.916 59.8076C117.878 59.8076 115.5 58.9467 113.782 57.2249C112.063 55.5032 111.204 53.1608 111.204 50.1977V21.4884H122.714V49.1166C122.714 49.5171 122.854 49.8574 123.134 50.1377C123.414 50.3779 123.753 50.4981 124.153 50.4981H130.927V59.8076H120.916ZM106.528 37.4647V28.6958H130.927V37.4647H106.528Z" fill="#6CE787"/>
<path d="M151.034 60.5283C147.917 60.5283 145.059 59.8476 142.462 58.4862C139.904 57.1248 137.846 55.2229 136.287 52.7804C134.768 50.2979 134.009 47.4549 134.009 44.2517C134.009 41.0484 134.768 38.2255 136.287 35.783C137.846 33.3405 139.924 31.4386 142.522 30.0772C145.119 28.6758 147.977 27.975 151.094 27.975C154.212 27.975 157.049 28.6758 159.607 30.0772C162.165 31.4386 164.203 33.3405 165.722 35.783C167.241 38.2255 168 41.0484 168 44.2517C168 47.4549 167.241 50.2979 165.722 52.7804C164.203 55.2229 162.145 57.1248 159.547 58.4862C156.989 59.8476 154.152 60.5283 151.034 60.5283ZM151.034 50.1977C152.114 50.1977 153.073 49.9375 153.912 49.417C154.751 48.8964 155.391 48.1957 155.83 47.3148C156.31 46.3939 156.55 45.3528 156.55 44.1916C156.55 43.0304 156.31 42.0094 155.83 41.1285C155.391 40.2476 154.751 39.5469 153.912 39.0263C153.073 38.5058 152.114 38.2455 151.034 38.2455C149.955 38.2455 148.996 38.5058 148.157 39.0263C147.318 39.5469 146.658 40.2476 146.179 41.1285C145.699 42.0094 145.459 43.0304 145.459 44.1916C145.459 45.3528 145.699 46.3939 146.179 47.3148C146.658 48.1957 147.318 48.8964 148.157 49.417C148.996 49.9375 149.955 50.1977 151.034 50.1977Z" fill="#6CE787"/>
<path d="M31.8775 4.65009C31.5171 4.23293 30.9043 4.195 30.5078 4.57424C30.3997 4.68801 19.6944 14.8136 13.0622 10.2249C10.4309 8.40453 9.78212 4.00538 9.78212 3.96746C9.74608 3.51238 9.42167 3.17106 8.98914 3.09522C8.59264 3.05729 8.16011 3.28483 7.97988 3.66407C6.28578 7.60813 3.29407 12.6141 2.46504 12.0452C2.39296 12.0452 2.24878 11.8935 2.14064 11.628C1.70811 10.3766 1.85229 9.01131 2.46504 7.83568C3.83474 4.87763 6.35787 2.7539 9.38563 1.95751C9.71003 1.88166 9.96234 1.61619 10.0705 1.27488C10.1786 0.93357 10.0705 0.554331 9.85421 0.288866C9.6019 0.0613244 9.27749 -0.0524468 8.95309 0.0234006C5.34862 0.933569 2.35691 3.51238 0.734899 7.00135C-0.130174 8.70792 -0.238308 10.7558 0.446541 12.5382C0.770944 13.4105 1.56393 14.0172 2.46504 14.0172H2.50109C4.26728 13.9793 6.46601 11.666 7.97988 9.163C8.16011 8.85961 8.48451 8.70792 8.80891 8.74584C9.13332 8.74584 9.42167 8.93546 9.56585 9.23885C10.1786 10.3007 11.0076 11.2109 12.0169 11.8556C19.8746 17.3545 31.3008 6.50835 31.8054 6.05326C31.9857 5.86364 32.0938 5.59818 32.0938 5.37064C32.1298 5.10517 32.0217 4.83971 31.8775 4.65009Z" fill="white"/>
<path d="M60.5553 3.92954C60.4111 3.73992 60.1588 3.62615 59.9065 3.62615C59.6542 3.62615 59.4019 3.702 59.2217 3.89161C54.2475 8.85961 46.0653 9.92148 40.1901 10.3007C40.0098 10.3386 39.9017 10.0352 40.0098 9.84563C40.4784 9.20093 40.8028 8.44245 40.947 7.64606C41.2353 5.59818 40.0819 3.62615 38.1715 3.05729C36.4774 2.33674 34.6392 3.43653 32.6207 6.24288C32.4765 6.4325 32.2963 6.35665 32.3323 6.12911C32.4765 4.9914 32.6207 3.89161 32.7648 2.86767C32.8369 2.48844 32.6927 2.14713 32.4404 1.91958C32.1521 1.65412 31.7916 1.61619 31.4672 1.76789C31.1428 1.88166 30.9266 2.22297 30.8905 2.56429C30.494 5.59818 30.0254 8.74584 29.5208 11.7797C26.2407 18.7198 22.6723 29.4142 24.3664 31.0829C24.6187 31.3483 24.9792 31.5 25.3396 31.5C25.5199 31.5 25.664 31.5 25.8443 31.4242C27.8988 30.6657 29.8813 21.2986 31.3591 12.3107C31.3951 12.2348 31.3951 12.1969 31.4312 12.159C32.4404 9.8077 33.8462 7.64606 35.5403 5.7878C36.081 5.25687 36.8739 4.65009 37.4867 4.91555C38.7122 5.44648 39.2529 6.24288 39.0727 7.30474C38.6041 9.04923 37.1623 10.3766 35.4321 10.642C35.2159 10.642 34.9996 10.6799 34.7833 10.6799C34.2787 10.7558 33.9183 11.2109 33.9183 11.7418C33.9904 12.2727 34.3869 12.652 34.8915 12.652C35.1438 12.652 35.3961 12.652 35.6484 12.6141C36.3333 12.5382 37.1262 12.5003 38.0274 12.4624C44.1189 12.0831 54.3556 11.5143 60.5193 5.33271C60.7355 5.18102 60.8076 4.91555 60.8437 4.65009C60.8437 4.38462 60.7355 4.11916 60.5553 3.92954ZM25.8443 28.2765C26.3128 26.0011 26.8896 23.7636 27.6465 21.602C27.214 23.8774 26.6012 26.077 25.8443 28.2765Z" fill="white"/>
<path d="M88.9616 3.92954C88.8175 3.73992 88.5651 3.62615 88.3128 3.62615C88.0605 3.62615 87.8082 3.702 87.628 3.89161C82.6538 8.85961 74.4717 9.92148 68.5964 10.3007C68.4161 10.3386 68.308 10.0352 68.4162 9.84563C68.8847 9.20093 69.2091 8.44245 69.3533 7.64606C69.6417 5.59818 68.4882 3.62615 66.5779 3.05729C64.8838 2.33674 63.0455 3.43653 61.027 6.24288C60.8828 6.4325 60.7026 6.35665 60.7386 6.12911C60.8828 4.9914 61.027 3.89161 61.1712 2.86767C61.2433 2.48844 61.0991 2.14713 60.8468 1.91958C60.5584 1.65412 60.198 1.61619 59.8736 1.76789C59.5492 1.88166 59.3329 2.22297 59.2968 2.56429C58.9003 5.59818 58.4318 8.74584 57.9271 11.7797C54.6471 18.7198 51.0786 29.4142 52.7728 31.0829C53.0251 31.3483 53.3855 31.5 53.746 31.5C53.9262 31.5 54.0704 31.5 54.2506 31.4242C56.3051 30.6657 58.2876 21.2986 59.7654 12.3107C59.8015 12.2348 59.8015 12.1969 59.8375 12.159C60.8468 9.8077 62.2525 7.64606 63.9466 5.7878C64.4873 5.25687 65.2803 4.65009 65.893 4.91555C67.1185 5.44648 67.6592 6.24288 67.479 7.30474C67.0104 9.04923 65.5686 10.3766 63.8385 10.642C63.6222 10.642 63.4059 10.6799 63.1897 10.6799C62.685 10.7558 62.3246 11.2109 62.3246 11.7418C62.3967 12.2727 62.7932 12.652 63.2978 12.652C63.5501 12.652 63.8024 12.652 64.0547 12.6141C64.7396 12.5382 65.5326 12.5003 66.4337 12.4624C72.5252 12.0831 82.7619 11.5143 88.9256 5.33271C89.1419 5.18102 89.214 4.91555 89.25 4.65009C89.25 4.38462 89.1419 4.11916 88.9616 3.92954ZM54.2506 28.2765C54.7192 26.0011 55.2959 23.7636 56.0528 21.602C55.6203 23.8774 55.0075 26.077 54.2506 28.2765Z" fill="white"/>
</svg>
