<?xml version="1.0" standalone="no"?>
<!DOCTYPE svg PUBLIC "-//W3C//DTD SVG 20010904//EN"
 "http://www.w3.org/TR/2001/REC-SVG-20010904/DTD/svg10.dtd">
<svg version="1.0" xmlns="http://www.w3.org/2000/svg"
 width="1024.000000pt" height="1024.000000pt" viewBox="0 0 1024.000000 1024.000000"
 preserveAspectRatio="xMidYMid meet">
<metadata>
Created by potrace 1.11, written by Peter Selinger 2001-2013
</metadata>
<g transform="translate(0.000000,1024.000000) scale(0.100000,-0.100000)"
fill="#000000" stroke="none">
<path d="M2480 7181 c-229 -74 -434 -256 -549 -487 -22 -43 -45 -99 -52 -124
-19 -68 -15 -215 7 -280 l19 -54 165 -2 164 -1 44 41 c24 22 70 76 103 120
109 147 108 146 138 146 34 0 50 -13 89 -71 44 -66 148 -159 222 -199 l65 -35
280 1 280 1 87 36 c176 73 342 168 498 285 98 74 110 81 105 55 -2 -10 -14
-83 -26 -163 -12 -80 -30 -162 -40 -182 l-19 -37 77 3 c54 3 78 8 82 17 12 38
118 232 165 303 124 184 218 276 286 276 72 0 150 -81 150 -157 0 -43 -47
-133 -93 -181 -54 -56 -121 -90 -199 -101 -45 -6 -66 -14 -80 -31 -24 -29 -23
-65 2 -90 23 -23 37 -24 270 -10 754 45 1153 143 1503 367 37 23 70 43 73 43
3 0 3 -15 0 -32 -3 -18 -15 -98 -27 -178 -12 -80 -28 -160 -35 -179 -8 -19
-12 -37 -8 -40 3 -3 37 -6 75 -6 51 0 69 4 69 13 0 27 93 199 165 307 120 180
217 275 280 275 45 0 112 -46 136 -92 64 -126 -89 -322 -272 -347 -46 -6 -67
-14 -81 -31 -24 -30 -23 -65 3 -91 21 -21 28 -21 158 -15 828 41 1268 144
1629 383 104 69 222 180 222 209 0 12 -9 33 -21 48 -34 43 -70 36 -147 -33
-180 -158 -434 -281 -727 -352 -170 -41 -512 -89 -637 -89 -56 0 -59 8 -24 71
101 180 45 381 -130 464 -130 62 -266 5 -396 -164 -29 -38 -59 -70 -65 -70
-16 -1 -16 -14 7 148 10 73 16 141 13 150 -11 31 -36 51 -63 51 -48 0 -69 -27
-79 -105 -9 -66 -12 -72 -58 -113 -26 -24 -84 -67 -128 -97 -258 -171 -584
-272 -1040 -320 -169 -18 -235 -19 -235 -4 0 6 17 45 37 87 34 67 38 84 38
152 0 66 -5 85 -33 142 -71 145 -229 207 -360 142 -53 -26 -170 -135 -213
-198 -29 -44 -53 -48 -45 -8 3 15 12 81 21 146 16 116 16 121 -3 145 -10 14
-31 27 -45 29 -58 7 -77 -25 -92 -151 -6 -56 -8 -59 -78 -119 -258 -222 -533
-381 -761 -439 -363 -93 -613 55 -721 427 -14 48 -25 95 -25 106 0 51 -44 82
-92 66 -22 -8 -42 -41 -117 -191 -147 -297 -282 -493 -334 -485 -36 5 -52 52
-52 154 0 90 1 94 48 188 55 108 135 209 222 278 66 54 188 120 255 139 25 7
55 21 68 32 44 40 16 128 -40 126 -13 0 -48 -8 -78 -18z"/>
<path d="M2134 5739 c-53 -15 -127 -73 -158 -122 -33 -54 -45 -147 -27 -214
17 -61 69 -124 131 -158 48 -26 65 -30 135 -30 97 0 153 24 214 90 70 76 89
200 44 289 -27 54 -94 115 -151 136 -55 21 -134 25 -188 9z"/>
<path d="M6323 5488 c-4 -7 -10 -105 -13 -218 l-5 -205 -105 -3 c-84 -2 -107
-6 -117 -19 -16 -20 -18 -300 -3 -323 7 -11 36 -16 117 -20 l108 -5 5 -490 c5
-437 8 -496 24 -545 39 -116 100 -173 236 -219 70 -23 89 -25 278 -25 190 -1
204 0 218 18 19 27 21 338 2 353 -7 6 -57 13 -112 16 -112 7 -149 23 -181 77
-19 34 -20 51 -20 425 l0 390 170 5 c169 5 170 5 182 30 16 31 17 254 2 298
l-11 32 -171 2 -172 3 -3 204 c-1 130 -6 209 -13 218 -16 18 -404 19 -416 1z"/>
<path d="M5060 5080 c-141 -18 -237 -50 -326 -109 -155 -101 -224 -223 -224
-398 0 -206 69 -303 295 -412 112 -55 226 -95 394 -141 202 -55 241 -79 241
-153 0 -53 -29 -89 -92 -118 -45 -20 -69 -24 -154 -24 -92 0 -105 3 -159 30
-69 36 -97 69 -104 127 l-6 43 -204 3 c-151 2 -207 -1 -218 -10 -12 -10 -14
-28 -10 -86 22 -288 340 -472 777 -449 333 18 556 152 615 370 13 48 16 91 13
165 -3 90 -7 107 -38 168 -72 140 -254 240 -595 325 -229 57 -285 80 -311 130
-18 36 -18 53 2 95 34 72 191 113 326 85 97 -21 168 -90 168 -165 0 -34 27
-38 234 -34 192 3 200 7 190 82 -19 143 -96 273 -204 348 -62 43 -179 91 -273
113 -79 18 -253 26 -337 15z"/>
<path d="M7943 5075 c-276 -50 -466 -208 -557 -464 -36 -99 -46 -147 -56 -271
-26 -287 52 -562 204 -727 156 -168 348 -241 605 -230 189 8 301 46 434 147
123 93 217 242 264 418 24 89 26 114 27 292 0 180 -2 203 -26 292 -80 296
-288 491 -578 544 -93 17 -222 16 -317 -1z m246 -391 c34 -10 69 -30 98 -57
87 -80 123 -193 123 -392 0 -189 -29 -290 -107 -376 -48 -54 -104 -81 -178
-86 -145 -12 -259 69 -309 220 -43 128 -41 380 4 500 62 165 206 240 369 191z"/>
<path d="M2000 5041 c-7 -13 -10 -301 -10 -864 0 -938 2 -915 -65 -982 -42
-41 -114 -65 -201 -65 -35 0 -74 -4 -88 -10 l-26 -10 0 -167 c0 -93 5 -175 10
-183 8 -12 33 -15 141 -13 370 6 560 97 634 303 48 133 48 133 52 1070 3 593
1 895 -6 913 l-11 27 -209 0 c-198 0 -211 -1 -221 -19z"/>
<path d="M2782 5048 c-9 -9 -12 -157 -12 -603 0 -557 1 -596 20 -669 26 -102
63 -168 132 -239 194 -197 586 -210 771 -25 26 26 50 48 52 48 3 0 5 -29 5
-64 0 -95 1 -96 232 -96 175 0 189 1 208 20 20 20 20 33 20 804 0 486 -4 794
-10 810 l-10 26 -209 0 c-160 0 -211 -3 -219 -13 -8 -9 -12 -182 -14 -553 -3
-532 -3 -540 -25 -580 -52 -98 -149 -150 -262 -142 -122 9 -205 81 -230 199
-7 32 -11 237 -11 557 0 382 -3 511 -12 520 -17 17 -409 17 -426 0z"/>
</g>
</svg>
