<svg width="24" height="24" viewBox="0 0 24 24" fill="none" xmlns="http://www.w3.org/2000/svg">
<circle cx="8.25" cy="7.5" r="2.25" fill="#FFE493"/>
<circle cx="17.25" cy="7.5" r="2.25" fill="#FFE493"/>
<circle cx="12.75" cy="12.75" r="2.25" fill="#FFE493"/>
<path d="M16.5 8.37C16.455 8.3625 16.4025 8.3625 16.3575 8.37C15.3225 8.3325 14.4975 7.485 14.4975 6.435C14.4975 5.3625 15.36 4.5 16.4325 4.5C17.505 4.5 18.3675 5.37 18.3675 6.435C18.36 7.485 17.535 8.3325 16.5 8.37Z" stroke="#697667" stroke-width="1.125" stroke-linecap="round" stroke-linejoin="round"/>
<path d="M15.7275 13.8299C16.755 14.0024 17.8875 13.8224 18.6825 13.2899C19.74 12.5849 19.74 11.4299 18.6825 10.7249C17.88 10.1924 16.7325 10.0124 15.705 10.1924" stroke="#697667" stroke-width="1.125" stroke-linecap="round" stroke-linejoin="round"/>
<path d="M7.47749 8.37C7.52249 8.3625 7.57499 8.3625 7.61999 8.37C8.65499 8.3325 9.47999 7.485 9.47999 6.435C9.47999 5.3625 8.61749 4.5 7.54499 4.5C6.47249 4.5 5.60999 5.37 5.60999 6.435C5.61749 7.485 6.44249 8.3325 7.47749 8.37Z" stroke="#697667" stroke-width="1.125" stroke-linecap="round" stroke-linejoin="round"/>
<path d="M8.24999 13.8299C7.22249 14.0024 6.08999 13.8224 5.29499 13.2899C4.23749 12.5849 4.23749 11.4299 5.29499 10.7249C6.09749 10.1924 7.24498 10.0124 8.27248 10.1924" stroke="#697667" stroke-width="1.125" stroke-linecap="round" stroke-linejoin="round"/>
<path d="M12 13.9725C11.955 13.965 11.9025 13.965 11.8575 13.9725C10.8225 13.935 9.99751 13.0875 9.99751 12.0375C9.99751 10.965 10.86 10.1025 11.9325 10.1025C13.005 10.1025 13.8675 10.9725 13.8675 12.0375C13.86 13.0875 13.035 13.9425 12 13.9725Z" stroke="#697667" stroke-width="1.125" stroke-linecap="round" stroke-linejoin="round"/>
<path d="M9.81751 16.335C8.76001 17.04 8.76001 18.195 9.81751 18.9C11.0175 19.7025 12.9825 19.7025 14.1825 18.9C15.24 18.195 15.24 17.04 14.1825 16.335C12.99 15.54 11.0175 15.54 9.81751 16.335Z" stroke="#697667" stroke-width="1.125" stroke-linecap="round" stroke-linejoin="round"/>
</svg>
