<svg width="24" height="24" viewBox="0 0 24 24" fill="none" xmlns="http://www.w3.org/2000/svg">
<path d="M18.4 15.2C19.7255 15.2 20.8 14.1255 20.8 12.8V7.20005C20.8 5.87457 19.6354 4.75029 18.5414 5.49872C18.3386 5.63742 18.1477 5.79546 17.9716 5.97162C17.2214 6.72177 16.8 7.73918 16.8 8.80005V13.6C16.8 14.4801 17.52 15.2 18.4 15.2Z" fill="#FFE493"/>
<path d="M11.2685 4.80005H8.27223C7.2392 4.80005 6.2983 5.45853 6.13125 6.47797C5.72874 8.93431 6.08993 12 9.54241 12C12.9148 12 13.5814 9.07487 13.4262 6.64982C13.3558 5.55078 12.3698 4.80005 11.2685 4.80005Z" fill="#FFE493"/>
<path d="M4.8 4V9.6C4.8 10.48 5.52 11.2 6.4 11.2H9.6C10.0243 11.2 10.4313 11.0314 10.7314 10.7314C11.0314 10.4313 11.2 10.0243 11.2 9.6V4" stroke="#697667" stroke-width="1.6" stroke-linecap="round" stroke-linejoin="round"/>
<path d="M8 4V20" stroke="#697667" stroke-width="1.6" stroke-linecap="round" stroke-linejoin="round"/>
<path d="M19.2 14.4V4C18.1391 4 17.1217 4.42143 16.3716 5.17157C15.6214 5.92172 15.2 6.93913 15.2 8V12.8C15.2 13.68 15.92 14.4 16.8 14.4H19.2ZM19.2 14.4V20" stroke="#697667" stroke-width="1.6" stroke-linecap="round" stroke-linejoin="round"/>
</svg>
