<svg width="24" height="24" viewBox="0 0 24 24" fill="none" xmlns="http://www.w3.org/2000/svg">
<g clip-path="url(#clip0_3_495)">
<g clip-path="url(#clip1_3_495)">
<rect x="4" y="4" width="7" height="7" rx="1" fill="#FFE493"/>
<path d="M24.1204 16.7417C24.0726 16.5542 24.0352 16.3634 23.9755 16.1793C23.5631 14.9057 22.719 14.0426 21.4482 13.6383C21.041 13.5085 20.5988 13.4209 20.1533 13.519C20.0629 13.5388 19.9587 13.5412 19.8721 13.5152C19.8105 13.4967 19.7343 13.4233 19.7215 13.3627C19.5928 12.7652 19.4772 12.1654 19.3551 11.5664C19.2088 10.8477 19.063 10.1295 18.9119 9.41176C18.8097 8.92695 18.6989 8.44355 18.5938 7.95969C18.5838 7.91471 18.5848 7.86736 18.5782 7.79256C19.0085 7.79256 19.4313 7.79351 19.8541 7.79256C20.1405 7.79161 20.3309 7.60602 20.3313 7.32289C20.3332 6.39966 20.3337 5.47691 20.3328 4.55368C20.3328 4.18391 20.1727 4.01015 19.8063 4.00826C18.7491 4.00305 17.6919 3.99311 16.6351 4.01252C16.1811 4.02104 15.7417 4.13373 15.3729 4.43579C15.3222 4.47745 15.2285 4.47745 15.1542 4.47792C14.4757 4.48077 13.7963 4.46183 13.1193 4.48834C12.8361 4.4997 12.5298 4.55226 12.2808 4.67819C11.4466 5.09909 11.323 6.24532 11.929 6.85134C12.2443 7.16666 12.606 7.33568 13.0634 7.32526C13.7575 7.30869 14.452 7.32053 15.1461 7.321C15.4567 7.321 15.5992 7.4602 15.5992 7.76084C15.5992 9.26783 15.6115 10.7748 15.5921 12.2814C15.5859 12.7666 15.3715 13.2013 15.0528 13.5691C14.5491 14.1515 13.9184 14.455 13.1349 14.4256C12.7093 14.4095 12.2827 14.4161 11.857 14.4247C11.4669 14.4322 11.2463 14.2092 11.2444 13.8111C11.2416 13.2354 11.2292 12.6587 11.2487 12.0834C11.2614 11.7108 11.1104 11.4135 10.9101 11.1091C11.3074 10.5561 11.3992 9.96996 11.0062 9.36536C10.6014 8.74278 9.96086 8.72052 9.34964 8.73993C9.34964 8.177 9.34964 7.63064 9.34964 7.08475C9.34964 5.86987 9.35295 4.655 9.34727 3.44012C9.34443 2.86866 8.88187 2.27211 8.27348 2.16511C8.06091 2.12771 7.84122 2.11588 7.62486 2.11493C6.21255 2.11067 4.80024 2.10688 3.38841 2.1173C3.06931 2.11966 2.74594 2.15186 2.46518 2.34361C2.11199 2.58459 1.83407 2.88665 1.8265 3.33265C1.79951 4.93812 1.78767 6.54359 1.77915 8.14907C1.7782 8.32993 1.83502 8.51126 1.86816 8.69212C1.96285 9.20913 2.71232 9.72661 3.19619 9.69347C3.60431 9.66553 4.01715 9.70341 4.42622 9.6821C4.64874 9.67074 4.72118 9.75975 4.75811 9.95765C4.81824 10.2791 5.18374 10.8013 5.47633 11.0078C5.36176 11.0594 5.26138 11.1133 5.15533 11.1507C4.25151 11.4684 3.44049 11.9575 2.71659 12.5721C2.15744 13.0469 1.66315 13.5952 1.25457 14.2121C0.642868 15.1344 0.23996 16.1423 0.024065 17.2256C-0.00718307 17.3837 -0.00150108 17.5485 -0.0275402 17.7081C-0.0398502 17.7838 -0.0871944 17.8539 -0.118916 17.9268V18.8737C-0.0957165 18.8765 -0.0573673 18.8708 -0.0512123 18.8832C0.0723572 19.1066 0.266474 19.1649 0.509827 19.1611C1.12484 19.1516 1.74033 19.1563 2.35581 19.1582C2.81648 19.1597 2.76914 19.1047 2.76914 19.5517C2.76914 19.5985 2.7663 19.6478 2.77813 19.6923C2.95615 20.3688 3.262 20.9597 3.83961 21.3943C4.5299 21.9147 5.29263 22.105 6.13632 21.9473C6.89006 21.8067 7.46862 21.3887 7.9094 20.7684C8.24839 20.2912 8.40889 19.7581 8.41078 19.1578C8.4979 19.1578 8.5746 19.1578 8.65177 19.1578C10.6635 19.1578 12.6752 19.153 14.6873 19.1587C15.4155 19.1606 16.0494 18.9158 16.6266 18.4897C16.7601 18.3912 16.8908 18.2577 17.0423 18.2222C17.2397 18.1758 17.4561 18.2109 17.6696 18.2109C17.2179 19.7524 17.8992 20.9422 18.7917 21.5264C19.7263 22.1386 21.0131 22.1987 22.0022 21.4725C22.5016 21.106 22.8686 20.6259 23.0532 20.0204C23.2364 19.4201 23.2256 18.8226 23.0329 18.2213C23.4149 18.1664 23.8524 18.3505 24.1204 17.9254C24.1204 17.5305 24.1204 17.1361 24.1204 16.7417ZM0.868231 18.2009C0.888115 17.9666 0.883854 17.753 0.926937 17.5499C1.08223 16.818 1.28013 16.1016 1.63522 15.4331C2.17543 14.4161 2.9036 13.5706 3.83914 12.9011C4.52754 12.4087 5.2789 12.0323 6.10034 11.8477C6.74329 11.7033 7.40849 11.6389 8.06753 11.5901C8.62431 11.5489 9.18725 11.5787 9.74687 11.5825C10.0451 11.5844 10.3103 11.7326 10.3032 12.1308C10.2913 12.7889 10.3401 13.4479 10.3392 14.1065C10.3382 14.767 11.1156 15.3915 11.697 15.3711C12.1226 15.3559 12.5487 15.3687 12.9749 15.3692C13.3778 15.3692 13.7707 15.3484 14.1694 15.2404C15.5301 14.873 16.5575 13.5076 16.547 12.118C16.5371 10.7616 16.5452 9.40466 16.5452 8.04775C16.5452 7.96489 16.5452 7.88204 16.5452 7.79398C16.8609 7.79398 17.1445 7.80013 17.4277 7.79114C17.5536 7.78688 17.6109 7.82949 17.6313 7.95259C17.6639 8.14859 17.7046 8.34318 17.7468 8.5373C17.9134 9.31234 18.0834 10.0869 18.2491 10.8624C18.4181 11.654 18.5782 12.448 18.7524 13.2387C18.8513 13.688 18.8144 14.1079 18.5384 14.4872C17.8538 15.4279 17.1711 16.3706 16.4779 17.3051C16.0319 17.9064 15.4198 18.2028 14.6736 18.2071C13.6088 18.2137 12.544 18.2094 11.4792 18.2099C10.8244 18.2099 10.1697 18.2094 9.51535 18.2109C9.4074 18.2109 9.32028 18.2142 9.29803 18.0655C9.14416 17.0452 8.63567 16.22 7.81092 15.6239C6.94119 14.9952 5.95973 14.7745 4.88452 14.9857C3.61898 15.2347 2.70475 15.9293 2.15507 17.0864C1.98794 17.4377 1.90035 17.8264 1.77489 18.2014H0.868231V18.2009ZM2.72085 4.96558H8.40037C8.40037 6.09618 8.40226 7.214 8.39847 8.33182C8.39753 8.55766 8.18211 8.73851 7.9326 8.73899C6.38773 8.74041 4.84333 8.74325 3.29846 8.73899C2.87093 8.73757 2.73126 8.50084 2.727 8.18884C2.71138 7.11884 2.72085 6.04789 2.72085 4.96605V4.96558ZM17.7165 17.2521C17.9243 16.9614 18.1236 16.6916 18.3135 16.4151C18.723 15.8204 19.1259 15.221 19.5374 14.6273C19.5733 14.5752 19.6472 14.5312 19.7102 14.5198C19.8688 14.4914 20.0326 14.4635 20.1926 14.4715C20.5316 14.4881 20.882 14.4824 21.2053 14.5681C21.7508 14.713 22.201 15.034 22.5556 15.4824C22.9647 15.9989 23.1853 16.577 23.1749 17.2516H17.7165V17.2521ZM8.35302 18.2028H2.78476C3.02811 16.7905 4.26714 15.6765 6.04589 15.8914C7.15756 16.0259 8.21146 17.058 8.35255 18.2028H8.35302ZM20.3129 18.2094C20.8171 18.2094 21.3213 18.2033 21.8256 18.2156C21.9032 18.2175 22.014 18.2847 22.049 18.3529C22.3762 18.9849 22.2763 19.7803 21.8317 20.3239C21.194 21.1036 20.2461 21.2859 19.3736 20.767C18.5228 20.2614 18.2619 19.2425 18.6264 18.3543C18.6776 18.2303 18.7481 18.2047 18.8707 18.2066C19.3513 18.2137 19.8319 18.2094 20.3124 18.2094H20.3129ZM7.44116 19.1625C7.49182 20.0824 6.75939 20.8934 5.8532 21.043C5.35987 21.1245 4.88263 20.9895 4.48114 20.6936C3.97597 20.3215 3.69142 19.8135 3.70326 19.1625H7.44116ZM2.72037 3.99785C2.72037 3.89511 2.72132 3.81651 2.72037 3.73792C2.7128 3.25926 2.91496 3.05284 3.40924 3.05852C3.77995 3.0623 4.15067 3.05946 4.52138 3.05946C5.62547 3.05946 6.73003 3.05852 7.83412 3.05994C8.12955 3.05994 8.37244 3.19677 8.39611 3.40082C8.41931 3.5992 8.40132 3.80231 8.40132 3.99832H2.72037V3.99785ZM5.64867 9.68778C7.05529 9.68778 8.42593 9.68636 9.79658 9.68873C10.101 9.68873 10.2937 9.88001 10.2932 10.166C10.2923 10.4534 10.1005 10.6333 9.79137 10.6337C8.87761 10.6347 7.96385 10.6337 7.05056 10.6342C6.38346 10.6347 5.94978 10.291 5.64914 9.68778H5.64867ZM17.4864 6.86933C17.0674 6.84566 16.6621 6.86743 16.2777 6.78837C15.8809 6.70693 15.5689 6.24816 15.603 5.88786C15.6437 5.45608 15.8444 5.11708 16.2772 5.02381C16.6664 4.94001 17.0768 4.95706 17.4859 4.92912V6.86933H17.4864ZM14.6764 6.3722C14.104 6.3722 13.5297 6.37883 12.9554 6.36889C12.7258 6.3651 12.4915 6.12364 12.4777 5.9139C12.4668 5.74441 12.6373 5.49016 12.8461 5.48164C13.4606 5.45655 14.0771 5.47265 14.6764 5.47265V6.3722ZM19.3773 6.83003H18.4551V4.96937H19.3773V6.83003Z" fill="#697667"/>
</g>
</g>
<defs>
<clipPath id="clip0_3_495">
<rect width="24" height="24" fill="white"/>
</clipPath>
<clipPath id="clip1_3_495">
<rect width="24.2407" height="19.8902" fill="white" transform="matrix(-1 0 0 1 24.1204 2.10986)"/>
</clipPath>
</defs>
</svg>
